<svg height="32" viewBox="0 0 32 32" width="32" xmlns="http://www.w3.org/2000/svg"><path d="m21.733 9.733c.246-.325.632-.533 1.067-.533.736 0 1.333.597 1.333 1.333 0 .435-.208.821-.53 1.064l-.003.002-4.4 4.4 4.4 4.4c.166.22.267.498.267.8 0 .736-.597 1.333-1.333 1.333-.302 0-.58-.1-.803-.269l.003.002-5.333-5.333c-.236-.24-.381-.57-.381-.933s.145-.693.381-.934l5.333-5.333z"/><path d="m13.733 9.733c.246-.325.632-.533 1.067-.533.736 0 1.333.597 1.333 1.333 0 .435-.208.821-.53 1.064l-.003.002-4.4 4.4 4.4 4.4c.166.22.267.498.267.8 0 .736-.597 1.333-1.333 1.333-.302 0-.58-.1-.803-.269l.003.002-5.333-5.333c-.236-.24-.381-.57-.381-.933s.145-.693.381-.934l5.333-5.333z"/></svg>