<svg height="32" viewBox="0 0 32 32" width="32" xmlns="http://www.w3.org/2000/svg"><path d="m4.393 4.388c.127-.126.274-.222.43-.287.157-.065.33-.101.511-.101h5.333c.736 0 1.333.597 1.333 1.333s-.597 1.333-1.333 1.333h-2.114l3.057 3.057c.521.521.521 1.365 0 1.886s-1.365.521-1.886 0l-3.057-3.057v2.114c0 .736-.597 1.333-1.333 1.333s-1.333-.597-1.333-1.333v-5.333c0-.181.036-.353.101-.51.065-.156.16-.302.287-.43l.006-.006z"/><path d="m27.899 4.823c.065.157.101.33.101.51v5.333c0 .736-.597 1.333-1.333 1.333s-1.333-.597-1.333-1.333v-2.114l-3.057 3.057c-.521.521-1.365.521-1.886 0s-.521-1.365 0-1.886l3.057-3.057h-2.114c-.736 0-1.333-.597-1.333-1.333s.597-1.333 1.333-1.333h5.333c.367 0 .699.148.94.388l.006.006c.126.127.222.274.287.43z"/><path d="m28 26.667c0 .181-.036.353-.101.51-.2.482-.674.822-1.228.823h-5.337c-.736 0-1.333-.597-1.333-1.333s.597-1.333 1.333-1.333h2.114l-3.057-3.057c-.521-.521-.521-1.365 0-1.886s1.365-.521 1.886 0l3.057 3.057v-2.114c0-.736.597-1.333 1.333-1.333s1.333.597 1.333 1.333z"/><path d="m4 26.667c0 .181.036.353.101.51.2.482.674.822 1.228.823h5.337c.736 0 1.333-.597 1.333-1.333s-.597-1.333-1.333-1.333h-2.114l3.057-3.057c.521-.521.521-1.365 0-1.886s-1.365-.521-1.886 0l-3.057 3.057v-2.114c0-.736-.597-1.333-1.333-1.333s-1.333.597-1.333 1.333z"/><path d="m16 20c2.209 0 4-1.791 4-4s-1.791-4-4-4-4 1.791-4 4 1.791 4 4 4z"/></svg>