<svg height="32" viewBox="0 0 32 32" width="32" xmlns="http://www.w3.org/2000/svg"><path d="m27.893 4.827c-.063-.168-.158-.31-.28-.426-.238-.247-.572-.4-.941-.4-.002 0-.004 0-.006 0h-6.666c-.733 0-1.333.6-1.333 1.333s.6 1.333 1.333 1.333h3.453l-9.72 9.72c-.286.246-.466.608-.466 1.013 0 .736.597 1.333 1.333 1.333.404 0 .767-.18 1.011-.464l.001-.002 9.72-9.72v3.453c0 .733.6 1.333 1.333 1.333s1.333-.6 1.333-1.333v-6.667c-.002-.184-.041-.357-.11-.515l.003.009z"/><path d="m22.667 17.333c-.736 0-1.333.597-1.333 1.333v5.333c0 .736-.597 1.333-1.333 1.333h-12c-.736 0-1.333-.597-1.333-1.333v-12c0-.736.597-1.333 1.333-1.333h5.333c.733 0 1.333-.6 1.333-1.333s-.6-1.333-1.333-1.333h-5.333c-2.209 0-4 1.791-4 4v12c0 2.209 1.791 4 4 4h12c2.209 0 4-1.791 4-4v-5.333c0-.736-.597-1.333-1.333-1.333z"/></svg>