<svg height="32" viewBox="0 0 32 32" width="32" xmlns="http://www.w3.org/2000/svg"><path d="m15.609 4.943c.521-.521.521-1.365 0-1.886s-1.365-.521-1.886 0l-2.667 2.667c-.128.128-.224.275-.289.432s-.101.33-.101.51.036.353.101.51.162.305.289.432l2.667 2.667c.521.521 1.365.521 1.886 0s.521-1.365 0-1.886l-.391-.391h.781c1.051 0 2.091.207 3.061.609s1.853.991 2.595 1.734c.743.743 1.332 1.625 1.734 2.595s.609 2.011.609 3.061-.207 2.091-.609 3.061c-.282.68.041 1.46.722 1.742s1.46-.041 1.742-.722c.536-1.294.812-2.681.812-4.082s-.276-2.788-.812-4.082-1.322-2.47-2.312-3.46-2.166-1.776-3.461-2.312-2.681-.812-4.082-.812h-.781l.391-.391z"/><path d="m20.943 26.276-2.667 2.667c-.521.521-1.365.521-1.886 0s-.521-1.365 0-1.886l.391-.391h-.781c-1.401 0-2.788-.276-4.082-.812s-2.47-1.322-3.461-2.312-1.776-2.166-2.312-3.461c-.536-1.294-.812-2.681-.812-4.082s.276-2.788.812-4.082c.282-.68 1.062-1.003 1.742-.722s1.003 1.062.722 1.742c-.402.971-.609 2.011-.609 3.061s.207 2.091.609 3.061c.402.971.991 1.853 1.734 2.595s1.625 1.332 2.595 1.734c.971.402 2.011.609 3.061.609h.781l-.39-.39c-.521-.521-.521-1.365 0-1.886s1.365-.521 1.886 0l2.651 2.651c.25.242.405.58.406.955v.004c0 .014 0 .028-.001.042-.004.127-.026.25-.063.366-.063.196-.172.38-.327.536z"/></svg>