<svg height="32" viewBox="0 0 32 32" width="32" xmlns="http://www.w3.org/2000/svg"><path d="m27.609 10.276c-.521.521-1.365.521-1.886 0l-1.724-1.724v15.448c0 .736-.597 1.333-1.333 1.333s-1.333-.597-1.333-1.333v-15.448l-1.724 1.724c-.521.521-1.365.521-1.886 0s-.521-1.365 0-1.886l4-4c.128-.128.275-.224.432-.289.156-.065.327-.101.506-.101h.008c.362.001.69.147.93.382l.01.01 3.999 3.999c.521.521.521 1.365 0 1.886z"/><path d="m4.391 21.724c.521-.521 1.365-.521 1.886 0l1.724 1.724v-15.448c0-.736.597-1.333 1.333-1.333s1.333.597 1.333 1.333v15.448l1.724-1.724c.521-.521 1.365-.521 1.886 0s.521 1.365 0 1.886l-4 4c-.128.128-.275.224-.432.289-.156.065-.327.101-.506.101h-.008c-.362-.001-.69-.147-.93-.382l-.01-.01-3.999-3.999c-.521-.521-.521-1.365 0-1.886z"/></svg>