<svg height="32" viewBox="0 0 32 32" width="32" xmlns="http://www.w3.org/2000/svg"><path d="m28 9.657c0-1.061-.421-2.078-1.172-2.828l-1.657-1.657c-.75-.75-1.768-1.172-2.828-1.172h-12.686c-1.061 0-2.078.421-2.828 1.172l-1.657 1.657c-.75.75-1.172 1.768-1.172 2.828v1.01h24zm-18.343-2.99h12.686c.354 0 .693.14.943.391l.943.943h-16.458l.943-.943c.25-.25.589-.391.943-.391z"/><path d="m6.667 12v12c0 .736.597 1.333 1.333 1.333h16c.736 0 1.333-.597 1.333-1.333v-12h2.667v12c0 2.209-1.791 4-4 4h-16c-2.209 0-4-1.791-4-4v-12z"/><path d="m16 13.333c.708 0 1.281.546 1.281 1.219v3.953l.531-.505c.501-.476 1.312-.476 1.812 0s.5 1.248 0 1.724l-2.721 2.588c-.231.218-.549.353-.9.354h-.008c-.172-.001-.337-.033-.487-.093s-.291-.146-.413-.262l-.003-.003-2.718-2.585c-.5-.476-.5-1.248 0-1.724s1.312-.476 1.812 0l.531.505v-3.953c0-.673.574-1.219 1.281-1.219z"/></svg>