<svg height="32" viewBox="0 0 32 32" width="32" xmlns="http://www.w3.org/2000/svg"><path d="m22.276 11.609c-.521.521-1.365.521-1.886 0l-3.057-3.057v12.781c0 .736-.597 1.333-1.333 1.333s-1.333-.597-1.333-1.333v-12.781l-3.057 3.057c-.521.521-1.365.521-1.886 0s-.521-1.365 0-1.886l5.333-5.333c.128-.128.275-.224.432-.289.154-.064.322-.1.498-.101h.012.009c.36.002.687.148.925.382l5.342 5.342c.521.521.521 1.365 0 1.886z"/><path d="m6.667 21.333c0-.736-.597-1.333-1.333-1.333s-1.333.597-1.333 1.333v2.667c0 2.209 1.791 4 4 4h16c2.209 0 4-1.791 4-4v-2.667c0-.736-.597-1.333-1.333-1.333s-1.333.597-1.333 1.333v2.667c0 .736-.597 1.333-1.333 1.333h-16c-.736 0-1.333-.597-1.333-1.333v-2.667z"/></svg>