<svg height="32" viewBox="0 0 32 32" width="32" xmlns="http://www.w3.org/2000/svg"><path d="m28 9.333c0-2.209-1.791-4-4-4h-1.333v-1.333c0-.733-.6-1.333-1.333-1.333s-1.333.6-1.333 1.333v1.333h-8v-1.333c0-.733-.6-1.333-1.333-1.333s-1.333.6-1.333 1.333v1.333h-1.333c-2.209 0-4 1.791-4 4v4h24v-4zm-2.667 1.334h-18.667v-1.333c0-.736.597-1.333 1.333-1.333h16c.736 0 1.333.597 1.333 1.333v1.333zm-10.56 16h-6.773c-.736 0-1.333-.597-1.333-1.333v-10.667h-2.667v10.667c0 2.209 1.791 4 4 4h7.04c-.267-.467-.413-1.013-.36-1.6zm13.56-9.667c-.615-.613-1.463-.992-2.4-.992s-1.785.379-2.4.992l-6.507 6.507c-.453.453-.72 1.04-.787 1.68l-.24 2.667c-.04.413.12.8.387 1.08s.667.44 1.093.4l2.68-.24c.56-.053 1.08-.267 1.493-.627l.173-.16 6.507-6.507c1.333-1.333 1.333-3.48 0-4.8zm-8.386 9.413-.027.013-1.12.107.107-1.12.013-.027 5.627-5.627 1.027 1.027z"/></svg>