<svg height="32" viewBox="0 0 32 32" width="32" xmlns="http://www.w3.org/2000/svg"><path d="m9.333 2.667c0-.736.597-1.333 1.333-1.333s1.333.597 1.333 1.333v1.333h8v-1.333c0-.736.597-1.333 1.333-1.333s1.333.597 1.333 1.333v1.333h1.333c2.209 0 4 1.791 4 4v4h-24v-4c0-2.209 1.791-4 4-4h1.333v-1.333zm16 5.333c0-.736-.597-1.333-1.333-1.333h-16c-.736 0-1.333.597-1.333 1.333v1.333h18.667v-1.333zm-21.333 5.333h2.667v10.667c0 .736.597 1.333 1.333 1.333h16c.736 0 1.333-.597 1.333-1.333v-10.667h2.667v10.667c0 2.209-1.791 4-4 4h-16c-2.209 0-4-1.791-4-4z"/><path d="m13.333 20h8c.736 0 1.333.597 1.333 1.333s-.597 1.333-1.333 1.333h-8c-.736 0-1.333-.597-1.333-1.333s.597-1.333 1.333-1.333zm-4-2.667c0-.736.597-1.333 1.333-1.333h8c.736 0 1.333.597 1.333 1.333s-.597 1.333-1.333 1.333h-8c-.736 0-1.333-.597-1.333-1.333z"/></svg>