<svg height="32" viewBox="0 0 32 32" width="32" xmlns="http://www.w3.org/2000/svg"><path d="m9.333 4c0-.736.597-1.333 1.333-1.333s1.333.597 1.333 1.333v1.333h8v-1.333c0-.736.597-1.333 1.333-1.333s1.333.597 1.333 1.333v1.333h1.333c2.209 0 4 1.791 4 4v4h-24v-4c0-2.209 1.791-4 4-4h1.333v-1.333zm16 5.333c0-.736-.597-1.333-1.333-1.333h-16c-.736 0-1.333.597-1.333 1.333v1.333h18.667v-1.333z"/><path d="m4 14.667v10.667c0 2.209 1.791 4 4 4h16c2.209 0 4-1.791 4-4v-10.667h-2.667v10.667c0 .736-.597 1.333-1.333 1.333h-16c-.736 0-1.333-.597-1.333-1.333v-10.667z"/><path d="m20.943 16.391c.521.521.521 1.365 0 1.886l-5.333 5.333c-.521.521-1.365.521-1.886 0l-2.667-2.667c-.521-.521-.521-1.365 0-1.886s1.365-.521 1.886 0l1.724 1.724 4.391-4.391c.521-.521 1.365-.521 1.886 0z"/></svg>