<svg height="32" viewBox="0 0 32 32" width="32" xmlns="http://www.w3.org/2000/svg"><path d="m10.667 2.667c-.736 0-1.333.597-1.333 1.333v1.333h-1.333c-2.209 0-4 1.791-4 4v4h24v-4c0-2.209-1.791-4-4-4h-1.333v-1.333c0-.736-.597-1.333-1.333-1.333s-1.333.597-1.333 1.333v1.333h-8v-1.333c0-.736-.597-1.333-1.333-1.333zm-4 6.666c0-.736.597-1.333 1.333-1.333h16c.736 0 1.333.597 1.333 1.333v1.333h-18.667v-1.333z"/><path d="m24 28.813c.238-.228.418-.522.51-.863.031-.115.05-.23.059-.345.486-.057.958-.185 1.4-.377.065.095.139.186.224.27.727.727 1.908.727 2.636-.002s.729-1.909.002-2.636c-.084-.084-.175-.159-.27-.224.095-.22.175-.449.239-.687s.109-.476.137-.714c.115-.009.23-.028.346-.059.995-.267 1.585-1.29 1.32-2.284s-1.287-1.584-2.282-1.316c-.115.031-.225.072-.329.122-.287-.387-.631-.733-1.024-1.025.05-.104.091-.213.122-.328.267-.995-.322-2.016-1.316-2.282s-2.017.325-2.284 1.32c-.031.115-.05.23-.059.345-.486.057-.958.185-1.4.377-.065-.095-.139-.186-.224-.27-.727-.727-1.908-.727-2.636.002s-.729 1.909-.002 2.636c.084.084.175.159.27.223-.095.22-.175.449-.239.687s-.109.476-.137.714c-.115.009-.23.028-.345.059-.995.267-1.585 1.29-1.32 2.284s1.287 1.583 2.282 1.316c.115-.031.225-.072.329-.122.287.387.631.733 1.024 1.025-.05.104-.091.213-.122.328-.084.312-.083.627-.012.921.127.524.479.98.976 1.228.111.055.229.1.353.134.158.042.316.063.473.064h.019c.483-.003.941-.194 1.282-.521zm2.4-5.505c-.356 1.326-1.72 2.114-3.045 1.76s-2.111-1.717-1.755-3.043 1.72-2.114 3.045-1.76 2.111 1.717 1.755 3.043z"/><path d="m19.53 27.137c-.085.796.135 1.574.581 2.197h-12.111c-2.209 0-4-1.791-4-4v-10.667h2.667v10.667c0 .736.597 1.333 1.333 1.333h9.499c.592.371 1.304.548 2.031.47z"/></svg>