<svg height="32" viewBox="0 0 32 32" width="32" xmlns="http://www.w3.org/2000/svg"><path d="m16 2.667c-5.893 0-10.667 2.387-10.667 5.333v16c0 2.947 4.773 5.333 10.667 5.333s10.667-2.387 10.667-5.333v-16c0-2.947-4.773-5.333-10.667-5.333zm8 21.333v.013l-.013.053c-.027.053-.067.147-.187.293-.24.293-.693.667-1.44 1.027-1.493.747-3.733 1.28-6.36 1.28s-4.867-.533-6.347-1.28c-.747-.373-1.2-.747-1.44-1.027-.081-.081-.144-.179-.185-.288l-.002-.006-.027-.053v-1.813c1.96 1.107 4.813 1.8 8 1.8s6.04-.693 8-1.8v1.8zm0-5.333v.013l-.013.053c-.027.053-.067.147-.187.293-.24.293-.693.667-1.44 1.027-1.493.747-3.733 1.28-6.36 1.28s-4.867-.533-6.347-1.28c-.747-.373-1.2-.747-1.44-1.027-.081-.081-.144-.179-.185-.288l-.002-.006-.027-.053v-1.813c1.96 1.107 4.813 1.8 8 1.8s6.04-.693 8-1.8v1.8zm0-5.334v.013l-.013.053c-.027.053-.067.147-.187.293-.24.293-.693.667-1.44 1.027-1.493.747-3.733 1.28-6.36 1.28s-4.867-.533-6.347-1.28c-.747-.373-1.2-.747-1.44-1.027-.081-.081-.144-.179-.185-.288l-.002-.006-.027-.053v-1.813c1.96 1.107 4.813 1.8 8 1.8s6.04-.693 8-1.8v1.8zm0-5.32-.013.053c-.027.053-.067.147-.187.293-.24.293-.693.667-1.44 1.027-1.493.747-3.733 1.28-6.36 1.28s-4.867-.533-6.347-1.28c-.747-.373-1.2-.747-1.44-1.027-.081-.081-.144-.179-.185-.288l-.002-.006-.027-.053v-.027l.013-.053c.027-.053.067-.147.187-.293.24-.293.693-.667 1.44-1.027 1.493-.747 3.733-1.28 6.36-1.28s4.867.533 6.347 1.28c.747.373 1.2.747 1.44 1.027.12.133.173.24.187.293l.027.053v.027z"/></svg>