<svg height="32" viewBox="0 0 32 32" width="32" xmlns="http://www.w3.org/2000/svg"><path d="m16 2.667c-5.893 0-10.667 2.4-10.667 5.333v5.36l-.011.002c.1-.017.203-.025.308-.025.534 0 1.015.224 1.356.584l3.96 4.107-.137-.031c1.628.438 3.339.672 5.106.672h.085-.022c.146.004.292.006.438.006 2.767 0 5.378-.672 7.583-1.819v1.813l-.003.008c-.049.131-.121.25-.211.352-.24.28-.693.653-1.44 1.027l.092-.038c-1.856.849-3.919 1.322-6.093 1.322-.121 0-.242-.001-.345-.004-.947 0-1.84-.067-2.68-.187l-.001-.009c.008.073.012.148.012.223 0 .538-.213 1.027-.558 1.386l-.827.853c1.253.267 2.613.4 4.053.4h-.022c.146.004.292.006.438.006 2.767 0 5.378-.672 7.583-1.819v1.813l-.003.008c-.049.131-.121.25-.211.352-.24.28-.693.653-1.44 1.027l.092-.038c-1.856.849-3.919 1.322-6.093 1.322-.121 0-.242-.001-.345-.004-2.4 0-4.48-.453-5.947-1.093l-1.947 2.027c1.947 1.067 4.76 1.733 7.893 1.733 5.893 0 10.667-2.4 10.667-5.333v-16c0-2.933-4.773-5.333-10.667-5.333zm8 5.346-.013.053c-.054.113-.121.209-.201.294l.001-.001c-.24.28-.693.667-1.44 1.027-1.764.811-3.828 1.284-6.001 1.284-.121 0-.242-.001-.363-.004h.018c-.103.003-.224.004-.345.004-2.174 0-4.237-.473-6.093-1.322l.092.038c-.747-.373-1.2-.747-1.44-1.027-.09-.102-.162-.221-.211-.352l-.003-.008.013-.053c.054-.113.121-.209.201-.294l-.001.001c.24-.28.693-.667 1.44-1.027 1.772-.819 3.845-1.297 6.03-1.297.111 0 .223.001.334.004h-.017c.103-.003.224-.004.345-.004 2.174 0 4.237.473 6.093 1.322l-.092-.038c.747.373 1.2.747 1.44 1.027.09.102.162.221.211.352l.003.008zm-8 5.32c3.187 0 6.04-.693 8-1.8v1.8l-.013.053c-.054.113-.121.209-.201.294l.001-.001c-.24.28-.693.667-1.44 1.027-1.772.819-3.845 1.297-6.03 1.297-.111 0-.223-.001-.334-.004h.017c-.103.003-.224.004-.345.004-2.174 0-4.237-.473-6.093-1.322l.092.038c-.747-.373-1.2-.747-1.44-1.027-.09-.102-.162-.221-.211-.352l-.003-.008v-1.8c1.96 1.107 4.813 1.8 8 1.8z"/><path d="m6.667 23.333v.093l.093-.093zm0-4v-.093l.093.093z"/><path d="m8.933 20.4c.236.24.381.57.381.933s-.145.693-.381.934l-4 4c-.22.166-.498.267-.8.267-.736 0-1.333-.597-1.333-1.333 0-.302.1-.58.269-.803l-.002.003 1.707-1.733h-3.44c-.736 0-1.333-.597-1.333-1.333s.597-1.333 1.333-1.333h3.453l-1.733-1.733c-.282-.246-.459-.605-.459-1.006 0-.736.597-1.333 1.333-1.333.408 0 .772.183 1.017.471l.002.002 4 4z"/></svg>