<svg height="32" viewBox="0 0 32 32" width="32" xmlns="http://www.w3.org/2000/svg"><path d="m18 2.667h-1.333v12.667h12.667v-1.333c0-1.488-.293-2.962-.863-4.337s-1.404-2.624-2.457-3.677-2.302-1.887-3.677-2.457-2.849-.863-4.337-.863zm1.333 10v-7.23c.679.106 1.345.292 1.983.557 1.052.436 2.007 1.074 2.812 1.879s1.443 1.76 1.879 2.812c.264.638.451 1.304.557 1.983h-7.23z"/><path d="m14 6.667c-2.242 0-4.433.665-6.296 1.91s-3.316 3.015-4.174 5.086-1.082 4.35-.645 6.548 1.517 4.218 3.102 5.803 3.604 2.664 5.803 3.102 4.477.213 6.548-.645 3.841-2.31 5.086-4.174 1.91-4.055 1.91-6.296v-1.333h-10v-10h-1.333zm-4.815 4.127c1.052-.703 2.241-1.164 3.482-1.357v9.897h9.897c-.193 1.24-.654 2.429-1.357 3.482-.952 1.425-2.306 2.536-3.89 3.192s-3.326.828-5.007.493-3.225-1.16-4.437-2.372-2.037-2.756-2.372-4.437-.163-3.424.493-5.007c.656-1.584 1.767-2.937 3.192-3.89z"/></svg>