<svg height="32" viewBox="0 0 32 32" width="32" xmlns="http://www.w3.org/2000/svg"><path d="m25.333 8v16h-2.667v-16c0-.736-.597-1.333-1.333-1.333s-1.333.597-1.333 1.333v16h-2.667v-10.667c0-.736-.597-1.333-1.333-1.333s-1.333.597-1.333 1.333v10.667h-2.667v-5.333c0-.736-.597-1.333-1.333-1.333s-1.333.597-1.333 1.333v5.333h-2.667v-5.333c0-2.209 1.791-4 4-4 .468 0 .916.08 1.333.228v-1.561c0-2.209 1.791-4 4-4 .467 0 .916.08 1.333.228v-1.561c0-1.742 1.113-3.223 2.667-3.772.417-.147.866-.228 1.333-.228s.916.08 1.333.228c1.554.549 2.667 2.031 2.667 3.772z"/><path d="m28 26.667c0-.736-.597-1.333-1.333-1.333h-21.333c-.736 0-1.333.597-1.333 1.333s.597 1.333 1.333 1.333h21.333c.736 0 1.333-.597 1.333-1.333z"/></svg>