<svg height="32" viewBox="0 0 32 32" width="32" xmlns="http://www.w3.org/2000/svg"><path d="m16.933 1.733c-.22-.166-.498-.267-.8-.267-.736 0-1.333.597-1.333 1.333 0 .302.1.58.269.803l-.002-.003.4.4c-7.097.334-12.725 6.17-12.725 13.319 0 7.364 5.97 13.333 13.333 13.333s13.333-5.97 13.333-13.333c0-5.463-3.286-10.159-7.99-12.219l-.086-.033c.006.066.009.143.009.22 0 .75-.31 1.428-.808 1.913l-.001.001-.267.4c3.786 1.683 6.382 5.403 6.4 9.731v.002c-.008 5.885-4.78 10.653-10.667 10.653-5.891 0-10.667-4.776-10.667-10.667 0-5.703 4.476-10.361 10.107-10.652l.026-.001-.4.4c-.166.22-.267.498-.267.8 0 .736.597 1.333 1.333 1.333.302 0 .58-.1.803-.269l-.003.002 2.667-2.667c.533-.533.533-1.333 0-1.867l-2.667-2.667z"/><path d="m20.933 13.733c.533.533.533 1.333 0 1.867l-5.333 5.333c-.24.236-.57.381-.933.381s-.693-.145-.934-.381l-2.666-2.666c-.325-.246-.533-.632-.533-1.067 0-.736.597-1.333 1.333-1.333.435 0 .821.208 1.064.53l.002.003 1.733 1.733 4.4-4.4c.24-.236.57-.381.933-.381s.693.145.934.381z"/></svg>