<svg height="32" viewBox="0 0 32 32" width="32" xmlns="http://www.w3.org/2000/svg"><path d="m22.276 11.724c.521.521.521 1.365 0 1.886l-6.667 6.667c-.456.456-1.159.513-1.676.171-.074-.049-.144-.106-.209-.171l-3.333-3.333c-.521-.521-.521-1.365 0-1.886s1.365-.521 1.886 0l2.391 2.391 5.724-5.724c.521-.521 1.365-.521 1.886 0z"/><path d="m29.333 16c0-7.364-5.97-13.333-13.333-13.333s-13.333 5.97-13.333 13.333c0 7.364 5.97 13.333 13.333 13.333s13.333-5.97 13.333-13.333zm-2.666 0c0 5.891-4.776 10.667-10.667 10.667s-10.667-4.776-10.667-10.667 4.776-10.667 10.667-10.667 10.667 4.776 10.667 10.667z"/></svg>