<svg height="32" viewBox="0 0 32 32" width="32" xmlns="http://www.w3.org/2000/svg"><path d="m16 29.333c-7.364 0-13.333-5.97-13.333-13.333s5.97-13.333 13.333-13.333c7.364 0 13.333 5.97 13.333 13.333s-5.97 13.333-13.333 13.333zm0-2.666c5.891 0 10.667-4.776 10.667-10.667s-4.776-10.667-10.667-10.667c-5.891 0-10.667 4.776-10.667 10.667s4.776 10.667 10.667 10.667zm-1.533-15.734 6.107 3.733c1.013.627 1.013 2.067 0 2.693l-6.107 3.733c-1.067.667-2.467-.093-2.467-1.333v-7.493c0-1.253 1.4-2.027 2.467-1.36z"/></svg>