<svg height="32" viewBox="0 0 32 32" width="32" xmlns="http://www.w3.org/2000/svg"><path d="m6.667 16c0-5.155 4.179-9.333 9.333-9.333s9.333 4.179 9.333 9.333c0 5.155-4.179 9.333-9.333 9.333-.736 0-1.333.597-1.333 1.333s.597 1.333 1.333 1.333c6.627 0 12-5.373 12-12s-5.373-12-12-12-12 5.373-12 12v.781l-.391-.391c-.521-.521-1.365-.521-1.886 0s-.521 1.365 0 1.886l2.667 2.667c.521.521 1.365.521 1.886 0l2.667-2.667c.521-.521.521-1.365 0-1.886s-1.365-.521-1.886 0l-.39.391v-.781z"/><path d="m17.333 16.51v-4.51c0-.736-.597-1.333-1.333-1.333s-1.333.597-1.333 1.333v5.305c-.005.232.051.461.161.664.121.224.307.416.549.543.012.006.024.013.037.019l2.658 1.329c.659.329 1.459.062 1.789-.596s.062-1.459-.596-1.789l-1.93-.965z"/></svg>