<svg height="32" viewBox="0 0 32 32" width="32" xmlns="http://www.w3.org/2000/svg"><path d="m16 28c.736 0 1.333-.597 1.333-1.333s-.597-1.333-1.333-1.333v2.667zm9.333-9.333c0 .736.597 1.333 1.333 1.333s1.333-.597 1.333-1.333h-2.667zm-.4-2.267c-.22-.166-.498-.267-.8-.267-.736 0-1.333.597-1.333 1.333 0 .302.1.58.269.803l-.002-.003 1.867-1.867zm1.734 3.6-.933.933c.24.236.57.381.933.381s.693-.145.934-.381l-.933-.933zm3.6-1.733c.166-.22.267-.498.267-.8 0-.736-.597-1.333-1.333-1.333-.302 0-.58.1-.803.269l.003-.002 1.867 1.867zm-14.267-.934h-1.333v.827l.733.36zm2.067 2.534c.175.089.381.142.6.142.741 0 1.342-.601 1.342-1.342 0-.522-.298-.975-.734-1.196l-.008-.004zm-.734-7.867c0-.736-.597-1.333-1.333-1.333s-1.333.597-1.333 1.333h2.667zm-13.333 4c0 6.627 5.373 12 12 12v-2.667c-5.155 0-9.333-4.179-9.333-9.333zm24 0c0-6.627-5.373-12-12-12v2.667c5.155 0 9.333 4.179 9.333 9.333zm-12-12c-6.627 0-12 5.373-12 12h2.667c0-5.155 4.179-9.333 9.333-9.333zm9.333 12v2.667h2.667v-2.667zm-2.266 2.267 2.667 2.667 1.867-1.867-2.667-2.667zm4.533 2.666 2.667-2.667-1.867-1.867-2.667 2.667zm-12.2-2.4 2.667 1.333 1.2-2.4-2.667-1.333zm1.933-1.2v-5.333h-2.667v5.333z"/></svg>