<svg height="32" viewBox="0 0 32 32" width="32" xmlns="http://www.w3.org/2000/svg"><path d="m23.542 4.134c.521-.521 1.365-.521 1.886 0l3.771 3.771c.521.521.521 1.365 0 1.886s-1.365.521-1.886 0l-3.771-3.771c-.521-.521-.521-1.365 0-1.886z"/><path d="m17.333 16.372v-4.372c0-.736-.597-1.333-1.333-1.333s-1.333.597-1.333 1.333v5.304c-.002.089.005.177.02.263.036.203.117.389.234.549.113.156.261.289.436.385.079.043.162.079.25.106l3.972 1.324c.699.233 1.454-.145 1.687-.843s-.145-1.454-.843-1.687l-3.088-1.029z"/><path d="m16 29.333c-6.627 0-12-5.373-12-12s5.373-12 12-12 12 5.373 12 12-5.373 12-12 12zm0-2.666c5.155 0 9.333-4.179 9.333-9.333s-4.179-9.333-9.333-9.333c-5.155 0-9.333 4.179-9.333 9.333s4.179 9.333 9.333 9.333z"/><path d="m2.801 7.905c-.521.521-.521 1.365 0 1.886s1.365.521 1.886 0l3.771-3.771c.521-.521.521-1.365 0-1.886s-1.365-.521-1.886 0z"/></svg>