<svg height="32" viewBox="0 0 32 32" width="32" xmlns="http://www.w3.org/2000/svg"><path d="m4 23.867v-16c0-2.209 1.791-4 4-4h13.203c1.095.016 2.083.472 2.797 1.2l2.801 3.201c.698.682 1.147 1.617 1.199 2.666v13.067c0 2.209-1.791 4-4 4h-16c-2.209 0-4-1.791-4-4zm16 1.466v-5.333c0-.8-.533-1.333-1.333-1.333h-5.333c-.8 0-1.333.533-1.333 1.333v5.333h8zm2.667-5.333v5.333h1.333c.8 0 1.333-.533 1.333-1.333v-13.067c-.005-.366-.157-.695-.4-.933l-2.934-2.934c-.174-.192-.401-.332-.657-.398l-.009-.002v2.667c0 2.209-1.791 4-4 4h-4c-2.209 0-4-1.791-4-4v-2.667h-1.333c-.736 0-1.333.597-1.333 1.333v16c0 .8.533 1.333 1.333 1.333h1.333v-5.333c0-2.209 1.791-4 4-4h5.333c2.209 0 4 1.791 4 4zm-10.667-10.667c0 .736.597 1.333 1.333 1.333h4c.8 0 1.333-.533 1.333-1.333v-2.667h-6.667v2.667z"/></svg>