<svg height="32" viewBox="0 0 32 32" width="32" xmlns="http://www.w3.org/2000/svg"><path d="m2.667 8v12c0 2.209 1.791 4 4 4h6.667v1.333h-4c-.736 0-1.333.597-1.333 1.333s.597 1.333 1.333 1.333h13.333c.736 0 1.333-.597 1.333-1.333s-.597-1.333-1.333-1.333h-4v-1.333h6.667c2.209 0 4-1.791 4-4v-12c0-2.209-1.791-4-4-4h-18.667c-2.209 0-4 1.791-4 4zm4-1.333h18.667c.736 0 1.333.597 1.333 1.333v8h-21.333v-8c0-.736.597-1.333 1.333-1.333zm20 12v1.333c0 .736-.597 1.333-1.333 1.333h-18.667c-.736 0-1.333-.597-1.333-1.333v-1.333z"/></svg>