<svg height="32" viewBox="0 0 32 32" width="32" xmlns="http://www.w3.org/2000/svg"><path d="m6.667 9.333h18.667c2.209 0 4 1.791 4 4v5.333c0 2.209-1.791 4-4 4h-1.333v1.333c0 2.209-1.791 4-4 4h-8c-2.209 0-4-1.791-4-4v-1.333h-1.333c-2.209 0-4-1.791-4-4v-5.333c0-2.209 1.791-4 4-4zm1.333 10.667v-1.333c-.736 0-1.333-.597-1.333-1.333s.597-1.333 1.333-1.333h16c.736 0 1.333.597 1.333 1.333s-.597 1.333-1.333 1.333v1.333h1.333c.736 0 1.333-.597 1.333-1.333v-5.333c0-.736-.597-1.333-1.333-1.333h-18.667c-.736 0-1.333.597-1.333 1.333v5.333c0 .736.597 1.333 1.333 1.333h1.333zm2.667 4c0 .736.597 1.333 1.333 1.333h8c.736 0 1.333-.597 1.333-1.333v-5.333h-10.667v5.333z"/><path d="m24 8c0-2.209-1.791-4-4-4h-8c-2.209 0-4 1.791-4 4h2.667c0-.736.597-1.333 1.333-1.333h8c.736 0 1.333.597 1.333 1.333z"/></svg>