<svg height="32" viewBox="0 0 32 32" width="32" xmlns="http://www.w3.org/2000/svg"><path d="m17.333 15.039v-5.705c0-.736-.597-1.333-1.333-1.333s-1.333.597-1.333 1.333v6.635c-.002.087.005.173.019.257.061.359.266.668.552.868.115.08.242.142.379.183l3.961 1.32c.699.233 1.454-.145 1.687-.843s-.145-1.454-.843-1.687l-3.088-1.029z"/><path d="m16 29.333c-7.364 0-13.333-5.97-13.333-13.333s5.97-13.333 13.333-13.333c7.364 0 13.333 5.97 13.333 13.333s-5.97 13.333-13.333 13.333zm0-2.666c5.891 0 10.667-4.776 10.667-10.667s-4.776-10.667-10.667-10.667-10.667 4.776-10.667 10.667 4.776 10.667 10.667 10.667z"/></svg>