<svg height="32" viewBox="0 0 32 32" width="32" xmlns="http://www.w3.org/2000/svg"><path d="m26.667 6.667c0 1.755-1.13 3.246-2.703 3.785-.116 1.7-.537 3.321-1.618 4.583-1.355 1.58-3.478 2.299-6.346 2.299-2.466 0-3.676.615-4.321 1.368-.543.634-.863 1.563-.971 2.875 1.532.561 2.625 2.031 2.625 3.757 0 2.209-1.791 4-4 4s-4-1.791-4-4c0-1.742 1.113-3.223 2.667-3.772v-11.122c-1.554-.549-2.667-2.031-2.667-3.772 0-2.209 1.791-4 4-4s4 1.791 4 4c0 1.742-1.113 3.223-2.667 3.772v5.602c1.319-.939 3.101-1.375 5.333-1.375 2.466 0 3.676-.615 4.321-1.368.544-.634.863-1.563.971-2.875-1.532-.561-2.625-2.031-2.625-3.757 0-2.209 1.791-4 4-4s4 1.791 4 4zm-4 1.333c.736 0 1.333-.597 1.333-1.333s-.597-1.333-1.333-1.333-1.333.597-1.333 1.333.597 1.333 1.333 1.333zm-13.334 0c.736 0 1.333-.597 1.333-1.333s-.597-1.333-1.333-1.333-1.333.597-1.333 1.333.597 1.333 1.333 1.333zm0 18.667c.736 0 1.333-.597 1.333-1.333s-.597-1.333-1.333-1.333-1.333.597-1.333 1.333.597 1.333 1.333 1.333z"/></svg>