<svg height="32" viewBox="0 0 32 32" width="32" xmlns="http://www.w3.org/2000/svg"><path d="m20 8v.533l-9.333 4.533c-.704-.632-1.641-1.019-2.667-1.019-2.192 0-3.973 1.764-4 3.95v.003c-.001.026-.001.056-.001.086 0 2.209 1.791 4 4 4 1.027 0 1.963-.387 2.671-1.023l-.004.003 6.667 4.133c-.052.241-.081.517-.081.801 0 2.209 1.791 4 4 4 .028 0 .057 0 .085-.001h-.004c2.166-.056 3.9-1.825 3.9-3.999 0-2.209-1.791-4-4-4-.98 0-1.877.352-2.573.937l.006-.005-6.667-4.133c.036-.2.056-.431.056-.667s-.02-.466-.059-.691l.003.024 9.333-4.533c.704.632 1.641 1.019 2.667 1.019 2.192 0 3.973-1.764 4-3.95v-.003c0-2.209-1.791-4-4-4s-4 1.791-4 4zm-10.667 8c0 .736-.597 1.333-1.333 1.333s-1.333-.597-1.333-1.333c0-.736.597-1.333 1.333-1.333s1.333.597 1.333 1.333zm13.334 8c0 .736-.597 1.333-1.333 1.333s-1.333-.597-1.333-1.333c0-.736.597-1.333 1.333-1.333s1.333.597 1.333 1.333zm1.333-14.667c-.736 0-1.333-.597-1.333-1.333s.597-1.333 1.333-1.333c.736 0 1.333.597 1.333 1.333s-.597 1.333-1.333 1.333z"/></svg>