<svg height="32" viewBox="0 0 32 32" width="32" xmlns="http://www.w3.org/2000/svg"><path d="m12 8c0-2.209-1.791-4-4-4s-4 1.791-4 4 1.791 4 4 4 4-1.791 4-4zm-2.667 0c0 .736-.597 1.333-1.333 1.333s-1.333-.597-1.333-1.333.597-1.333 1.333-1.333 1.333.597 1.333 1.333z"/><path d="m17.333 9.333c0-1.473 1.194-2.667 2.667-2.667s2.667 1.194 2.667 2.667v6.667c0 .736.597 1.333 1.333 1.333s1.333-.597 1.333-1.333v-6.667c0-2.946-2.388-5.333-5.333-5.333s-5.333 2.388-5.333 5.333v13.333c0 1.473-1.194 2.667-2.667 2.667s-2.667-1.194-2.667-2.667v-6.667c0-.736-.597-1.333-1.333-1.333s-1.333.597-1.333 1.333v6.667c0 2.945 2.388 5.333 5.333 5.333s5.333-2.388 5.333-5.333z"/><path d="m27.609 20.391c.521.521.521 1.365 0 1.886l-1.724 1.724 1.724 1.724c.521.521.521 1.365 0 1.886s-1.365.521-1.886 0l-1.724-1.724-1.724 1.724c-.521.521-1.365.521-1.886 0s-.521-1.365 0-1.886l1.724-1.724-1.724-1.724c-.521-.521-.521-1.365 0-1.886s1.365-.521 1.886 0l1.724 1.724 1.724-1.724c.521-.521 1.365-.521 1.886 0z"/></svg>