<svg height="32" viewBox="0 0 32 32" width="32" xmlns="http://www.w3.org/2000/svg"><path d="m26.667 20.267v-.267c0-2.946-2.388-5.333-5.333-5.333h-4v-2.933c1.567-.566 2.667-2.04 2.667-3.771 0-2.209-1.791-4-4-4s-4 1.791-4 4c0 1.731 1.1 3.206 2.639 3.762l.028.009v2.933h-4c-2.946 0-5.333 2.388-5.333 5.333v.267c-1.567.566-2.667 2.04-2.667 3.771 0 2.209 1.791 4 4 4s4-1.791 4-4c0-1.731-1.1-3.206-2.639-3.762l-.028-.009v-.267c0-1.467 1.2-2.667 2.667-2.667h4v2.933c-1.567.566-2.667 2.04-2.667 3.771 0 2.209 1.791 4 4 4s4-1.791 4-4c0-1.731-1.1-3.206-2.639-3.762l-.028-.009v-2.933h4c1.473 0 2.667 1.194 2.667 2.667v.267c-1.567.566-2.667 2.04-2.667 3.771 0 2.209 1.791 4 4 4s4-1.791 4-4c0-1.731-1.1-3.206-2.639-3.762zm-20 5.066c-.8 0-1.333-.667-1.333-1.333s.667-1.333 1.333-1.333 1.333.667 1.333 1.333-.667 1.333-1.333 1.333zm9.333 0c-.8 0-1.333-.667-1.333-1.333s.667-1.333 1.333-1.333 1.333.667 1.333 1.333-.533 1.333-1.333 1.333zm0-16c-.8 0-1.333-.667-1.333-1.333s.667-1.333 1.333-1.333 1.333.667 1.333 1.333-.533 1.333-1.333 1.333zm9.333 16c-.8 0-1.333-.667-1.333-1.333s.667-1.333 1.333-1.333 1.333.667 1.333 1.333-.533 1.333-1.333 1.333z"/></svg>