<svg height="32" viewBox="0 0 32 32" width="32" xmlns="http://www.w3.org/2000/svg"><path d="m5.333 21.333v-14.667c0-2.209 1.791-4 4-4h12c2.209 0 4 1.791 4 4v3.023c-.392-.227-.848-.357-1.333-.357s-.941.13-1.333.357v-3.023c0-.736-.597-1.333-1.333-1.333h-12c-.736 0-1.333.597-1.333 1.333v14.667h4c.736 0 1.333.597 1.333 1.333v4h8c.736 0 1.333-.597 1.333-1.333v-3.023c.392.227.848.357 1.333.357s.941-.13 1.333-.357v3.023c0 2.209-1.791 4-4 4h-8c-.854 0-1.672-.339-2.276-.943l-4.781-4.781c-.604-.604-.943-1.422-.943-2.276z"/><path d="m28.943 15.057-4-4c-.521-.521-1.365-.521-1.886 0s-.521 1.365 0 1.886l1.724 1.724h-7.448c-.736 0-1.333.597-1.333 1.333s.597 1.333 1.333 1.333h7.448l-1.724 1.724c-.521.521-.521 1.365 0 1.886s1.365.521 1.886 0l3.999-3.999c.031-.031.061-.064.089-.099.03-.036.057-.073.082-.111.047-.072.087-.147.119-.225.065-.157.1-.328.1-.509s-.036-.353-.101-.51-.161-.305-.289-.432z"/></svg>