<svg height="32" viewBox="0 0 32 32" width="32" xmlns="http://www.w3.org/2000/svg"><path d="m8 10.667c0-.736.597-1.333 1.333-1.333h10.667c.736 0 1.333.597 1.333 1.333s-.597 1.333-1.333 1.333h-10.667c-.736 0-1.333-.597-1.333-1.333z"/><path d="m9.333 14.667c-.736 0-1.333.597-1.333 1.333s.597 1.333 1.333 1.333h5.333c.736 0 1.333-.597 1.333-1.333s-.597-1.333-1.333-1.333z"/><path d="m26.171 27.636-3.77-2.833c-.693-.521-1.536-.802-2.403-.802h-13.331c-2.209 0-4-1.734-4-3.873v-12.253c0-2.139 1.791-3.873 4-3.873h18.667c2.209 0 4 1.734 4 3.873v18.186c0 1.575-1.839 2.492-3.163 1.576zm-19.504-20.969c-.818 0-1.333.62-1.333 1.207v12.253c0 .586.516 1.207 1.333 1.207h13.331c1.445 0 2.851.469 4.005 1.337l2.663 2.002v-16.799c0-.586-.515-1.207-1.333-1.207h-18.667z"/></svg>