<svg height="32" viewBox="0 0 32 32" width="32" xmlns="http://www.w3.org/2000/svg"><path d="m12.667 13.333c1.105 0 2-.895 2-2s-.895-2-2-2-2 .895-2 2 .895 2 2 2z"/><path d="m4 24v-16c0-2.209 1.791-4 4-4h16c2.209 0 4 1.791 4 4v16c0 2.209-1.791 4-4 4h-16c-2.209 0-4-1.791-4-4zm20-17.333h-16c-.736 0-1.333.597-1.333 1.333v11.448l1.172-1.172c1.562-1.562 4.095-1.562 5.657 0l.229.229c.521.521 1.365.521 1.886 0l4.229-4.229c1.509-1.509 3.925-1.56 5.495-.153v-6.123c0-.736-.597-1.333-1.333-1.333zm1.333 17.333v-6.114l-1.724-1.724c-.521-.521-1.365-.521-1.886 0l-4.229 4.229c-1.562 1.562-4.095 1.562-5.657 0l-.229-.229c-.521-.521-1.365-.521-1.886 0l-3.057 3.057v.781c0 .736.597 1.333 1.333 1.333h16c.736 0 1.333-.597 1.333-1.333z"/></svg>