<svg height="32" viewBox="0 0 32 32" width="32" xmlns="http://www.w3.org/2000/svg"><path d="m6.667 10.667c0-.736.597-1.333 1.333-1.333h2.667c.736 0 1.333.597 1.333 1.333s-.597 1.333-1.333 1.333h-2.667c-.736 0-1.333-.597-1.333-1.333z"/><path d="m8 13.333c-.736 0-1.333.597-1.333 1.333s.597 1.333 1.333 1.333h2.667c.736 0 1.333-.597 1.333-1.333s-.597-1.333-1.333-1.333z"/><path d="m6.667 18.667c0-.736.597-1.333 1.333-1.333h2.667c.736 0 1.333.597 1.333 1.333s-.597 1.333-1.333 1.333h-2.667c-.736 0-1.333-.597-1.333-1.333z"/><path d="m21.333 9.333c-.736 0-1.333.597-1.333 1.333s.597 1.333 1.333 1.333h2.667c.736 0 1.333-.597 1.333-1.333s-.597-1.333-1.333-1.333z"/><path d="m20 14.667c0-.736.597-1.333 1.333-1.333h2.667c.736 0 1.333.597 1.333 1.333s-.597 1.333-1.333 1.333h-2.667c-.736 0-1.333-.597-1.333-1.333z"/><path d="m21.333 17.333c-.736 0-1.333.597-1.333 1.333s.597 1.333 1.333 1.333h2.667c.736 0 1.333-.597 1.333-1.333s-.597-1.333-1.333-1.333z"/><path d="m16 5.806c.977-1.107 2.407-1.806 4-1.806h6.667c2.209 0 4 1.791 4 4v13.333c0 2.209-1.791 4-4 4h-8c-.736 0-1.333.597-1.333 1.333s-.597 1.333-1.333 1.333-1.333-.597-1.333-1.333-.597-1.333-1.333-1.333h-8c-2.209 0-4-1.791-4-4v-13.333c0-2.209 1.791-4 4-4h6.667c1.593 0 3.023.698 4 1.806zm-4 .861h-6.667c-.736 0-1.333.597-1.333 1.333v13.333c0 .736.597 1.333 1.333 1.333h8c.467 0 .916.08 1.333.228v-13.561c0-1.473-1.194-2.667-2.667-2.667zm5.333 16.227c.417-.147.866-.228 1.333-.228h8c.736 0 1.333-.597 1.333-1.333v-13.333c0-.736-.597-1.333-1.333-1.333h-6.667c-1.473 0-2.667 1.194-2.667 2.667v13.561z"/></svg>