<svg height="32" viewBox="0 0 32 32" width="32" xmlns="http://www.w3.org/2000/svg"><path d="m18.667 5.333h-9.333c-.736 0-1.333.597-1.333 1.333v18.667c0 .736.597 1.333 1.333 1.333h13.333c.736 0 1.333-.597 1.333-1.333v-13.333h2.667v13.333c0 2.209-1.791 4-4 4h-13.333c-2.209 0-4-1.791-4-4v-18.667c0-2.209 1.791-4 4-4h9.333c.854 0 1.673.339 2.276.943l4.781 4.781c.604.604.943 1.422.943 2.276h-6.667c-.736 0-1.333-.597-1.333-1.333z"/><path d="m12 17.333c-.736 0-1.333.597-1.333 1.333s.597 1.333 1.333 1.333h8c.736 0 1.333-.597 1.333-1.333s-.597-1.333-1.333-1.333z"/><path d="m10.667 14.667c0-.736.597-1.333 1.333-1.333h8c.736 0 1.333.597 1.333 1.333s-.597 1.333-1.333 1.333h-8c-.736 0-1.333-.597-1.333-1.333z"/><path d="m12 21.333c-.736 0-1.333.597-1.333 1.333s.597 1.333 1.333 1.333h2.667c.736 0 1.333-.597 1.333-1.333s-.597-1.333-1.333-1.333z"/></svg>