<svg height="32" viewBox="0 0 32 32" width="32" xmlns="http://www.w3.org/2000/svg"><path d="m9.333 9.333c-.736 0-1.333.597-1.333 1.333s.597 1.333 1.333 1.333h2.667c.736 0 1.333-.597 1.333-1.333s-.597-1.333-1.333-1.333zm-1.333 12c0-.736.597-1.333 1.333-1.333h2.667c.736 0 1.333.597 1.333 1.333s-.597 1.333-1.333 1.333h-2.667c-.736 0-1.333-.597-1.333-1.333zm1.333-6.666c-.736 0-1.333.597-1.333 1.333s.597 1.333 1.333 1.333h2.667c.736 0 1.333-.597 1.333-1.333s-.597-1.333-1.333-1.333z"/><path d="m2.667 8v16c0 2.209 1.791 4 4 4h18.667c2.209 0 4-1.791 4-4v-16c0-2.209-1.791-4-4-4h-18.667c-2.209 0-4 1.791-4 4zm4-1.333h18.667c.736 0 1.333.597 1.333 1.333v16c0 .736-.597 1.333-1.333 1.333h-18.667c-.736 0-1.333-.597-1.333-1.333v-16c0-.736.597-1.333 1.333-1.333z"/></svg>