<svg height="32" viewBox="0 0 32 32" width="32" xmlns="http://www.w3.org/2000/svg"><path d="m12 8c-.736 0-1.333.597-1.333 1.333s.597 1.333 1.333 1.333h8c.736 0 1.333-.597 1.333-1.333s-.597-1.333-1.333-1.333z"/><path d="m10.667 13.333c0-.736.597-1.333 1.333-1.333h4c.736 0 1.333.597 1.333 1.333s-.597 1.333-1.333 1.333h-4c-.736 0-1.333-.597-1.333-1.333z"/><path d="m14.286 28.734c1.085.515 2.343.515 3.428 0l2.393-1.135c.355-.168.766-.172 1.124-.009l3.55 1.617c.883.402 1.886-.243 1.886-1.213v-21.327c0-2.209-1.791-4-4-4h-13.333c-2.209 0-4 1.791-4 4v21.327c0 .97 1.003 1.615 1.886 1.213l3.55-1.617c.358-.163.769-.16 1.124.009zm-4.953-23.401h13.333c.736 0 1.333.597 1.333 1.333v19.255l-1.664-.758c-1.073-.489-2.307-.479-3.372.026l-2.393 1.135c-.362.171-.781.171-1.143 0l-2.393-1.135c-1.065-.505-2.299-.515-3.372-.026l-1.664.758v-19.255c0-.736.597-1.333 1.333-1.333z"/></svg>