<svg height="32" viewBox="0 0 32 32" width="32" xmlns="http://www.w3.org/2000/svg"><path d="m25.724 23.609c.604-.604.943-1.422.943-2.276v-14.667c0-2.209-1.791-4-4-4h-12c-2.209 0-4 1.791-4 4v5.333h2.667v-5.333c0-.736.597-1.333 1.333-1.333h12c.736 0 1.333.597 1.333 1.333v14.667h-4c-.736 0-1.333.597-1.333 1.333v4h-8c-.736 0-1.333-.597-1.333-1.333v-8h-2.667v8c0 2.209 1.791 4 4 4h8c.854 0 1.673-.339 2.276-.943z"/><path d="m14.114 16-1.724 1.724c-.521.521-.521 1.365 0 1.886s1.365.521 1.886 0l4-4c.031-.031.061-.064.089-.098.03-.036.057-.073.082-.111.047-.072.087-.147.119-.225.065-.157.1-.328.1-.509s-.036-.353-.101-.51-.161-.305-.289-.432l-4-4c-.521-.521-1.365-.521-1.886 0s-.521 1.365 0 1.886l1.724 1.724h-10.114c-.736 0-1.333.597-1.333 1.333s.597 1.333 1.333 1.333h10.114z"/></svg>