<svg height="32" viewBox="0 0 32 32" width="32" xmlns="http://www.w3.org/2000/svg"><path d="m23.333 9.333s-.001 0-.002 0c-3.314 0-6 2.686-6 6 0 1.435.504 2.752 1.344 3.784l-.009-.011v3.56h-12c-.736 0-1.333-.597-1.333-1.333v-13.333c0-.736.597-1.333 1.333-1.333h16c.736 0 1.333.597 1.333 1.333v.027c.947.08 1.853.36 2.667.773v-.8c0-2.209-1.791-4-4-4h-16c-2.209 0-4 1.791-4 4v13.333c0 2.209 1.791 4 4 4h12v1.28c0 .92.853 1.587 1.693 1.333l2.6-.773c.24-.067.493-.067.733 0l2.6.773c.853.253 1.693-.413 1.693-1.333v-7.507c.849-1.024 1.365-2.352 1.365-3.8 0-3.299-2.674-5.973-5.973-5.973-.016 0-.031 0-.047 0h.002zm2 15.547-.867-.253c-.337-.101-.725-.16-1.127-.16s-.789.058-1.155.167l.029-.007-.88.253v-3.88c.595.224 1.282.353 2 .353s1.405-.129 2.04-.366l-.04.013zm-2-6.213c-1.841 0-3.333-1.492-3.333-3.333s1.492-3.333 3.333-3.333c1.841 0 3.333 1.492 3.333 3.333s-1.492 3.333-3.333 3.333z"/><path d="m13.72 11.72-3.053 3.067-1.053-1.053c-.246-.286-.608-.466-1.013-.466-.736 0-1.333.597-1.333 1.333 0 .404.18.767.464 1.011l.002.001 2 2c.241.24.573.388.94.388s.699-.148.94-.388l4-4c.24-.241.388-.573.388-.94s-.148-.699-.388-.94c-.242-.248-.58-.401-.953-.401-.367 0-.699.148-.94.388z"/></svg>