<svg height="32" viewBox="0 0 32 32" width="32" xmlns="http://www.w3.org/2000/svg"><path d="m9.333 13.333c0-.736.597-1.333 1.333-1.333h5.333c.736 0 1.333.597 1.333 1.333s-.597 1.333-1.333 1.333h-5.333c-.736 0-1.333-.597-1.333-1.333z"/><path d="m10.667 16c-.736 0-1.333.597-1.333 1.333s.597 1.333 1.333 1.333h2.667c.736 0 1.333-.597 1.333-1.333s-.597-1.333-1.333-1.333z"/><path d="m9.561 5.333h14.439c.736 0 1.333.597 1.333 1.333v14.667c0 .736-.597 1.333-1.333 1.333h-1.333v-12c0-2.209-1.791-4-4-4h-10.667c-2.209 0-4 1.791-4 4v14.667c0 2.209 1.791 4 4 4h10.667c2.209 0 4-1.791 4-4h1.333c2.209 0 4-1.791 4-4v-14.667c0-2.209-1.791-4-4-4h-10.667c-1.742 0-3.223 1.113-3.772 2.667zm10.439 20c0 .736-.597 1.333-1.333 1.333h-10.667c-.736 0-1.333-.597-1.333-1.333v-14.667c0-.736.597-1.333 1.333-1.333h10.667c.736 0 1.333.597 1.333 1.333z"/></svg>