<svg height="32" viewBox="0 0 32 32" width="32" xmlns="http://www.w3.org/2000/svg"><path d="m22.667 5.333c.736 0 1.333.597 1.333 1.333v18.667c0 .736-.597 1.333-1.333 1.333h-13.333c-.736 0-1.333-.597-1.333-1.333v-18.667c0-.736.597-1.333 1.333-1.333zm-13.334-2.666c-2.209 0-4 1.791-4 4v18.667c0 2.209 1.791 4 4 4h13.333c2.209 0 4-1.791 4-4v-18.667c0-2.209-1.791-4-4-4z"/><path d="m10.667 17.333c0-.736.597-1.333 1.333-1.333h8c.736 0 1.333.597 1.333 1.333s-.597 1.333-1.333 1.333h-8c-.736 0-1.333-.597-1.333-1.333zm0-4c0-.736.597-1.333 1.333-1.333h8c.736 0 1.333.597 1.333 1.333s-.597 1.333-1.333 1.333h-8c-.736 0-1.333-.597-1.333-1.333zm6.666 9.334c0-.736.597-1.333 1.333-1.333h1.333c.736 0 1.333.597 1.333 1.333s-.597 1.333-1.333 1.333h-1.333c-.736 0-1.333-.597-1.333-1.333zm-6.666-13.334c0-.736.597-1.333 1.333-1.333h2.667c.736 0 1.333.597 1.333 1.333s-.597 1.333-1.333 1.333h-2.667c-.736 0-1.333-.597-1.333-1.333z"/></svg>