<svg height="32" viewBox="0 0 32 32" width="32" xmlns="http://www.w3.org/2000/svg"><path d="m14.667 1.333h2.667c2.209 0 4 1.791 4 4s-1.791 4-4 4h-2.667c-2.209 0-4-1.791-4-4s1.791-4 4-4zm2.666 2.667h-2.667c-.736 0-1.333.597-1.333 1.333s.597 1.333 1.333 1.333h2.667c.736 0 1.333-.597 1.333-1.333s-.597-1.333-1.333-1.333z"/><path d="m9.501 4c-.11.426-.168.873-.168 1.333s.058.907.168 1.333h-.168c-.736 0-1.333.597-1.333 1.333v17.333c0 .736.597 1.333 1.333 1.333h13.333c.736 0 1.333-.597 1.333-1.333v-17.333c0-.736-.597-1.333-1.333-1.333h-.168c.11-.426.168-.873.168-1.333s-.058-.907-.168-1.333h.168c2.209 0 4 1.791 4 4v17.333c0 2.209-1.791 4-4 4h-13.333c-2.209 0-4-1.791-4-4v-17.333c0-2.209 1.791-4 4-4z"/><path d="m12 17.333c-.736 0-1.333.597-1.333 1.333s.597 1.333 1.333 1.333h8c.736 0 1.333-.597 1.333-1.333s-.597-1.333-1.333-1.333z"/><path d="m10.667 14.667c0-.736.597-1.333 1.333-1.333h8c.736 0 1.333.597 1.333 1.333s-.597 1.333-1.333 1.333h-8c-.736 0-1.333-.597-1.333-1.333z"/><path d="m12 21.333c-.736 0-1.333.597-1.333 1.333s.597 1.333 1.333 1.333h2.667c.736 0 1.333-.597 1.333-1.333s-.597-1.333-1.333-1.333z"/></svg>