<svg height="32" viewBox="0 0 32 32" width="32" xmlns="http://www.w3.org/2000/svg"><path d="m8 4h10.667c2.209 0 4 1.791 4 4v5.72c-.796-.245-1.711-.387-2.659-.387-.003 0-.006 0-.008 0v-5.333c0-.736-.597-1.333-1.333-1.333h-10.667c-.736 0-1.333.597-1.333 1.333v16c0 .736.597 1.333 1.333 1.333h3.053c.28.96.72 1.867 1.28 2.667h-4.333c-2.209 0-4-1.791-4-4v-16c0-2.209 1.791-4 4-4z"/><path d="m13.467 16h-2.8c-.736 0-1.333-.597-1.333-1.333s.597-1.333 1.333-1.333h5.333.002c.411 0 .778.186 1.023.478l.002.002c-1.392.477-2.582 1.225-3.561 2.188l.001-.001zm-4.134-5.333c0-.736.597-1.333 1.333-1.333h5.333c.736 0 1.333.597 1.333 1.333s-.597 1.333-1.333 1.333h-5.333c-.736 0-1.333-.597-1.333-1.333zm12 10v1.28l1.4.933c.353.243.582.646.582 1.101 0 .736-.597 1.333-1.333 1.333-.265 0-.512-.077-.72-.211l.005.003-2-1.333c-.362-.241-.598-.646-.6-1.106v-2c0-.736.597-1.333 1.333-1.333s1.333.597 1.333 1.333z"/><path d="m20 30.667c4.418 0 8-3.582 8-8s-3.582-8-8-8c-4.418 0-8 3.582-8 8s3.582 8 8 8zm0-2.667c-2.946 0-5.333-2.388-5.333-5.333s2.388-5.333 5.333-5.333c2.946 0 5.333 2.388 5.333 5.333s-2.388 5.333-5.333 5.333z"/></svg>