<svg height="32" viewBox="0 0 32 32" width="32" xmlns="http://www.w3.org/2000/svg"><path d="m18.667 14c0 1.105-.895 2-2 2s-2-.895-2-2 .895-2 2-2 2 .895 2 2z"/><path d="m2.667 24v-12c0-2.209 1.791-4 4-4h13.333c2.209 0 4 1.791 4 4v9.333h1.333c.736 0 1.333-.597 1.333-1.333v-12c0-.736-.597-1.333-1.333-1.333h-17.106c.549-1.554 2.031-2.667 3.772-2.667h13.333c2.209 0 4 1.791 4 4v12c0 2.209-1.791 4-4 4h-1.333c0 2.209-1.791 4-4 4h-13.333c-2.209 0-4-1.791-4-4zm18.666-8.552v-3.448c0-.736-.597-1.333-1.333-1.333h-13.333c-.736 0-1.333.597-1.333 1.333v8.781l2.505-2.505c1.562-1.562 4.095-1.562 5.657 0l1.562 1.562c.521.521 1.365.521 1.886 0l4.391-4.391zm-15.915 9.02c.189.506.677.865 1.249.865h13.333c.736 0 1.333-.597 1.333-1.333v-4.781l-2.505 2.505c-1.562 1.562-4.095 1.562-5.657 0l-1.562-1.562c-.521-.521-1.365-.521-1.886 0l-4.306 4.306z"/></svg>