<svg height="32" viewBox="0 0 32 32" width="32" xmlns="http://www.w3.org/2000/svg"><path d="m26.667 20c0 4.418-3.582 8-8 8h-6.667c-4.418 0-8-3.582-8-8v-12c0-2.209 1.791-4 4-4h14.667c1.742 0 3.223 1.113 3.772 2.667h.228c2.209 0 4 1.791 4 4v2.667c0 2.209-1.791 4-4 4v2.667zm-4-13.333h-14.667c-.736 0-1.333.597-1.333 1.333v1.333h17.333v-1.333c0-.736-.597-1.333-1.333-1.333zm1.333 5.333h-17.333v8c0 2.945 2.388 5.333 5.333 5.333h6.667c2.945 0 5.333-2.388 5.333-5.333zm4 1.333v-2.667c0-.736-.597-1.333-1.333-1.333v5.333c.736 0 1.333-.597 1.333-1.333z"/></svg>