<svg height="32" viewBox="0 0 32 32" width="32" xmlns="http://www.w3.org/2000/svg"><path d="m6.667 20c0-5.155 4.179-9.333 9.333-9.333s9.333 4.179 9.333 9.333v4h2.667v-4-.001c0-5.213-3.325-9.65-7.97-11.306l-.084-.026c.034-.196.053-.421.053-.651 0-2.209-1.791-4-4-4s-4 1.791-4 4c0 .23.019.455.057.675l-.003-.024c-4.729 1.682-8.053 6.119-8.053 11.332v.001 4h2.667zm9.333-13.333c.736 0 1.333.597 1.333 1.333v.067c-.4-.039-.864-.061-1.333-.061s-.934.022-1.392.065l.059-.004v-.067c0-.736.597-1.333 1.333-1.333zm12 18.666h-24c-.733 0-1.333.6-1.333 1.333s.6 1.333 1.333 1.333h24c.733 0 1.333-.6 1.333-1.333s-.6-1.333-1.333-1.333z"/><path d="m9.333 20c0 .733.6 1.333 1.333 1.333s1.333-.6 1.333-1.333c0-2.209 1.791-4 4-4 .733 0 1.333-.6 1.333-1.333s-.6-1.333-1.333-1.333c-3.682 0-6.667 2.985-6.667 6.667z"/></svg>