<svg height="32" viewBox="0 0 32 32" width="32" xmlns="http://www.w3.org/2000/svg"><path d="m15.756 23.196c.71-.166 1.357-.513 1.873-1.029l4.539-4.539c.516-.516.863-1.162 1.029-1.873 3.722-.607 7.157-2.861 6.518-6.963-.873-5.609-7.663-6.323-12.426-5.837.119.042.236.089.353.14-1.335-.584-2.85-.603-4.098.137l-.94.558c-3.642 2.161-6.65 5.169-8.811 8.811l-.558.94c-.676 1.139-.719 2.501-.277 3.745-.486 4.763.228 11.553 5.837 12.426 4.101.639 6.355-2.796 6.963-6.518zm-1.714-2.684-6.822-2.373c-1.777-.618-2.141-2.482-1.694-3.236l.558-.94c1.934-3.258 4.621-5.946 7.879-7.879l.94-.558c.754-.447 2.617-.084 3.236 1.694l2.373 6.822c.285.821.054 1.416-.231 1.701l-4.539 4.539c-.285.285-.88.516-1.701.231zm-.958 2.49c-.092.487-.221.971-.392 1.435-.391 1.062-.919 1.792-1.461 2.205-.476.361-1.089.583-2.027.437-1.942-.302-3.134-1.901-3.561-5.056-.078-.576-.122-1.161-.138-1.74.265.146.545.272.84.375l6.74 2.344zm9.918-9.918-2.344-6.74c-.102-.294-.228-.575-.375-.84.579.017 1.164.06 1.74.138 3.155.427 4.753 1.619 5.056 3.561.146.938-.076 1.551-.437 2.027-.412.543-1.143 1.071-2.205 1.461-.464.171-.948.3-1.435.392z"/></svg>