<svg height="32" viewBox="0 0 32 32" width="32" xmlns="http://www.w3.org/2000/svg"><path d="m27.965 6.97c.104-.448-.029-.931-.372-1.262-.044-.043-.092-.083-.143-.12-.596-.433-1.429-.301-1.863.294l-4.449 6.118h3.297l3.308-4.549c.108-.149.181-.313.221-.481z"/><path d="m21.13 13.333h-1.435c-.003 0-.006 0-.009 0h-2.857c-.003 0-.006 0-.009 0h-10.152c-2.209 0-4 1.791-4 4v1.333c0 5.155 4.179 9.333 9.333 9.333h8c5.155 0 9.333-4.179 9.333-9.333v-1.333c0-2.209-1.791-4-4-4h-.887c-.003 0-.006 0-.009 0h-3.297c-.003 0-.006 0-.009 0zm-14.463 2.667h18.667c.736 0 1.333.597 1.333 1.333v1.333c0 3.682-2.985 6.667-6.667 6.667h-8c-3.682 0-6.667-2.985-6.667-6.667v-1.333c0-.736.597-1.333 1.333-1.333z"/><path d="m16.025 10.374.998-2.594c-1.056-.703-2.325-1.113-3.689-1.113-3.225 0-5.916 2.29-6.533 5.333h2.761c.549-1.554 2.031-2.667 3.772-2.667 1.036 0 1.981.394 2.691 1.041z"/><path d="m16.828 12 3.261-8.479c.264-.687 1.036-1.03 1.723-.766.317.122.56.351.705.631.11.213.163.455.147.701-.009.131-.037.263-.086.392l-2.779 7.224-.114.297z"/></svg>