<svg height="32" viewBox="0 0 32 32" width="32" xmlns="http://www.w3.org/2000/svg"><path d="m12 13.333c0 .736-.597 1.333-1.333 1.333s-1.333-.597-1.333-1.333.597-1.333 1.333-1.333 1.333.597 1.333 1.333z"/><path d="m14.667 18.667c.736 0 1.333-.597 1.333-1.333s-.597-1.333-1.333-1.333-1.333.597-1.333 1.333.597 1.333 1.333 1.333z"/><path d="m12 21.333c0 .736-.597 1.333-1.333 1.333s-1.333-.597-1.333-1.333.597-1.333 1.333-1.333 1.333.597 1.333 1.333z"/><path d="m18.667 22.667c.736 0 1.333-.597 1.333-1.333s-.597-1.333-1.333-1.333-1.333.597-1.333 1.333.597 1.333 1.333 1.333z"/><path d="m4 8.46v15.09c0 2.458 1.993 4.451 4.451 4.451h15.09c3.871 0 5.855-4.569 3.338-7.395.703-.903 1.121-2.039 1.121-3.272 0-2.945-2.388-5.333-5.333-5.333-.46 0-.907.058-1.333.168v-4.168c0-1.473-1.194-2.667-2.667-2.667h-7.048l-.021-.021c-2.804-2.804-7.598-.818-7.598 3.147zm2.667 0c0-1.589 1.922-2.385 3.045-1.261l15.09 15.09c1.124 1.124.328 3.045-1.261 3.045h-15.09c-.985 0-1.784-.799-1.784-1.784zm18.3 10.222-3.65-3.65c.396-.233.857-.366 1.349-.366 1.473 0 2.667 1.194 2.667 2.667 0 .492-.133.953-.366 1.349zm-6.3-6.301-4.381-4.381h4.381z"/></svg>