<svg height="32" viewBox="0 0 32 32" width="32" xmlns="http://www.w3.org/2000/svg"><path d="m4 14c0-2.242 1.229-4.196 3.051-5.226 1.092-3.537 4.387-6.107 8.282-6.107 3.13 0 5.873 1.659 7.396 4.146 3.012.642 5.271 3.317 5.271 6.52 0 2.734-1.645 5.083-4 6.112v4.555c0 2.209-1.791 4-4 4h-8c-2.209 0-4-1.791-4-4v-4.341c-2.33-.824-4-3.046-4-5.659zm5.812 3.333h.855v2.667h10.667v-2.667h.408l.394-.08c1.825-.37 3.197-1.988 3.197-3.92 0-1.919-1.353-3.527-3.16-3.912l-1.12-.239-.598-.977c-1.059-1.729-2.958-2.873-5.122-2.873-2.693 0-4.978 1.776-5.734 4.227l-.313 1.013-.923.522c-1.019.576-1.697 1.663-1.697 2.905 0 1.714 1.296 3.129 2.96 3.313l.185.021zm11.521 5.334h-10.667v1.333c0 .736.597 1.333 1.333 1.333h8c.736 0 1.333-.597 1.333-1.333v-1.333z"/></svg>