<svg height="32" viewBox="0 0 32 32" width="32" xmlns="http://www.w3.org/2000/svg"><path d="m20 8.267c0-2.062-4-5.6-4-5.6s-4 3.538-4 5.6c0 1.626 1.113 3.008 2.667 3.521v.212h-5.333c-2.209 0-4 1.791-4 4v9.333h2.667v-5.346c.661-.536 1.636-1.082 2.731-1.26 1.255-.204 2.767.051 4.326 1.61 2.174 2.174 4.551 2.697 6.64 2.357.84-.137 1.616-.409 2.302-.747v3.387h2.667v-9.333c0-2.209-1.791-4-4-4h-5.333v-.212c1.554-.512 2.667-1.895 2.667-3.521zm-4 1.066c-.736 0-1.333-.597-1.333-1.333s1.333-2 1.333-2 1.333 1.264 1.333 2-.597 1.333-1.333 1.333zm6.667 5.334c.736 0 1.333.597 1.333 1.333v2.802c-.661.536-1.636 1.082-2.731 1.26-1.255.204-2.767-.051-4.326-1.61-2.174-2.174-4.551-2.697-6.64-2.357-.84.137-1.616.409-2.303.748v-.843c0-.736.597-1.333 1.333-1.333h13.333z"/><path d="m4 26.667c-.736 0-1.333.597-1.333 1.333s.597 1.333 1.333 1.333h24c.736 0 1.333-.597 1.333-1.333s-.597-1.333-1.333-1.333z"/></svg>