<svg height="32" viewBox="0 0 32 32" width="32" xmlns="http://www.w3.org/2000/svg"><path d="m26.981 14.667c.633-.708 1.019-1.642 1.019-2.667 0-5.333-6.411-8-12-8s-12 2.667-12 8c0 1.024.385 1.959 1.019 2.667-.633.708-1.019 1.642-1.019 2.667s.385 1.959 1.018 2.667c-.633.708-1.018 1.642-1.018 2.667v1.333c0 2.209 1.791 4 4 4h16c2.209 0 4-1.791 4-4v-1.333c0-1.024-.385-1.959-1.019-2.667.633-.708 1.019-1.642 1.019-2.667s-.385-1.959-1.019-2.667zm-18.981-1.334c-.736 0-1.333-.597-1.333-1.333 0-1.41.792-2.66 2.574-3.693 1.814-1.051 4.331-1.641 6.759-1.641s4.945.59 6.759 1.641c1.782 1.032 2.574 2.283 2.574 3.693 0 .736-.597 1.333-1.333 1.333zm0 2.667h16c.736 0 1.333.597 1.333 1.333s-.597 1.333-1.333 1.333h-16c-.736 0-1.333-.597-1.333-1.333s.597-1.333 1.333-1.333zm-.016 5.333h4.545c.123.17.261.332.414.485l1.886 1.886c1.562 1.562 4.095 1.562 5.657 0l1.886-1.886c.153-.153.291-.315.414-.485h1.231c.729.009 1.317.602 1.317 1.333v1.333c0 .736-.597 1.333-1.333 1.333h-16c-.736 0-1.333-.597-1.333-1.333v-1.333c0-.731.588-1.325 1.317-1.333zm8.245 0h2.856l-.485.485c-.521.521-1.365.521-1.886 0z"/></svg>