<svg height="32" viewBox="0 0 32 32" width="32" xmlns="http://www.w3.org/2000/svg"><path d="m10.667 11.333c0-3.314 2.686-6 6-6 2.731.04 5.043 1.788 5.919 4.222l.014.045c.064.151.101.326.101.51 0 .736-.597 1.333-1.333 1.333-.634 0-1.164-.442-1.3-1.034l-.002-.009c-.538-1.391-1.851-2.366-3.396-2.4h-.004c-1.841 0-3.333 1.492-3.333 3.333 0 .72.267 1.427.707 2h-3.013c-.227-.594-.359-1.282-.36-2zm-4 3.334h18.667c.736 0 1.333.597 1.333 1.333s-.597 1.333-1.333 1.333h-3.693c.633.936 1.011 2.091 1.011 3.333 0 3.308-2.677 5.991-5.984 6h-.001c-2.733-.032-5.05-1.784-5.919-4.222l-.014-.044c-.02-.087-.032-.187-.032-.29 0-.736.597-1.333 1.333-1.333.552 0 1.026.336 1.229.814l.003.009c.427 1.307 1.88 2.4 3.4 2.4 1.818-.029 3.281-1.51 3.281-3.333 0-1.509-1.003-2.784-2.378-3.194l-.024-.006c-.271-.058-.599-.106-.933-.132l-.027-.002h-9.92c-.736 0-1.333-.597-1.333-1.333s.597-1.333 1.333-1.333z"/></svg>