<svg height="32" viewBox="0 0 32 32" width="32" xmlns="http://www.w3.org/2000/svg"><path d="m5.724 7.609c-.521-.521-.521-1.365 0-1.886s1.365-.521 1.886 0l1.808 1.808 16.858 16.858c.521.521.521 1.365 0 1.886s-1.365.521-1.886 0l-7.808-7.808-1.984 5.953c-.233.699-.988 1.076-1.687.843s-1.076-.988-.843-1.687l2.406-7.218-8.751-8.751z"/><path d="m17.997 14.226 1.631-4.892h5.706c.736 0 1.333-.597 1.333-1.333s-.597-1.333-1.333-1.333h-6.637c-.02 0-.039 0-.059 0h-7.971c-.072 0-.143.006-.212.017l2.65 2.65h3.712l-.928 2.784 2.108 2.108z"/></svg>