<svg height="32" viewBox="0 0 32 32" width="32" xmlns="http://www.w3.org/2000/svg"><path d="m12 8c0-.736.597-1.333 1.333-1.333h13.333c.736 0 1.333.597 1.333 1.333s-.597 1.333-1.333 1.333h-5.333v14.667c0 .736-.597 1.333-1.333 1.333s-1.333-.597-1.333-1.333v-14.667h-5.333c-.736 0-1.333-.597-1.333-1.333z"/><path d="m5.333 13.333c-.736 0-1.333.597-1.333 1.333s.597 1.333 1.333 1.333h2.667v8c0 .736.597 1.333 1.333 1.333s1.333-.597 1.333-1.333v-8h2.667c.736 0 1.333-.597 1.333-1.333s-.597-1.333-1.333-1.333z"/></svg>