<svg height="32" viewBox="0 0 32 32" width="32" xmlns="http://www.w3.org/2000/svg"><path d="m16 11.154c-.873 0-1.691-.427-2.189-1.144-.855-1.229-2.249-2.01-3.811-2.01-2.547 0-4.667 2.099-4.667 4.757 0 5.26 4.472 9.485 9.229 11.955.391.203.776.39 1.151.56.184.083.39.083.573 0 .375-.17.76-.357 1.151-.56 4.757-2.47 9.229-6.695 9.229-11.955 0-2.658-2.12-4.757-4.667-4.757-1.562 0-2.956.781-3.811 2.01-.499.717-1.316 1.144-2.189 1.144zm-1.916-4.564c.748.508 1.398 1.152 1.916 1.897.518-.745 1.168-1.389 1.916-1.897 1.167-.794 2.572-1.257 4.084-1.257 4.05 0 7.333 3.324 7.333 7.423 0 6.827-5.686 11.736-10.667 14.322-.433.225-.861.432-1.28.622-.883.4-1.891.4-2.774 0-.419-.19-.847-.397-1.28-.622-4.981-2.586-10.667-7.494-10.667-14.322 0-4.1 3.283-7.423 7.333-7.423 1.512 0 2.917.463 4.084 1.257z"/></svg>