<svg height="32" viewBox="0 0 32 32" width="32" xmlns="http://www.w3.org/2000/svg"><path d="m10.667 4c0-.736.597-1.333 1.333-1.333s1.333.597 1.333 1.333v2.667c0 .736-.597 1.333-1.333 1.333s-1.333-.597-1.333-1.333zm-5.04 12.933 4.72-4.707 1.88 1.893-4.707 4.707c-.784.732-1.273 1.772-1.273 2.926 0 2.209 1.791 4 4 4 1.154 0 2.194-.489 2.924-1.271l.002-.002 4.707-4.707 1.893 1.88-4.72 4.72c-1.198 1.158-2.831 1.871-4.631 1.871-3.682 0-6.667-2.985-6.667-6.667 0-1.8.714-3.434 1.873-4.633l-.002.002zm6.6-6.586 4.72-4.72c1.198-1.158 2.831-1.871 4.631-1.871 3.682 0 6.667 2.985 6.667 6.667 0 1.8-.714 3.434-1.873 4.633l.002-.002-4.72 4.72-1.88-1.893 4.707-4.707c.784-.732 1.273-1.772 1.273-2.926 0-2.209-1.791-4-4-4-1.154 0-2.194.489-2.924 1.271l-.002.002-4.693 4.707-1.907-1.88zm11.32 13.2c.241-.24.573-.388.94-.388s.699.148.94.388l1.893 1.88c.242.242.392.577.392.947 0 .739-.599 1.339-1.339 1.339-.37 0-.704-.15-.947-.392l-1.88-1.893c-.24-.241-.388-.573-.388-.94s.148-.699.388-.94zm-18.867-18.867c.242-.244.577-.394.947-.394s.705.151.947.394l1.88 1.893c.286.246.466.608.466 1.013 0 .736-.597 1.333-1.333 1.333-.404 0-.767-.18-1.011-.464l-.001-.002-1.907-1.88c-.244-.242-.394-.577-.394-.947s.151-.705.394-.947zm-.68 8.653c-.736 0-1.333-.597-1.333-1.333s.597-1.333 1.333-1.333h2.667c.736 0 1.333.597 1.333 1.333s-.597 1.333-1.333 1.333zm21.333 8c-.736 0-1.333-.597-1.333-1.333s.597-1.333 1.333-1.333h2.667c.736 0 1.333.597 1.333 1.333s-.597 1.333-1.333 1.333zm-6.666 4c0-.736.597-1.333 1.333-1.333s1.333.597 1.333 1.333v2.667c0 .736-.597 1.333-1.333 1.333s-1.333-.597-1.333-1.333z"/></svg>