<svg height="32" viewBox="0 0 32 32" width="32" xmlns="http://www.w3.org/2000/svg"><path d="m18.827 7.52-4.693 4.707-1.907-1.88 4.72-4.72c1.214-1.256 2.914-2.035 4.795-2.035 3.682 0 6.667 2.985 6.667 6.667 0 1.882-.78 3.581-2.033 4.793l-.002.002-4.72 4.72-1.88-1.893 4.707-4.707c.784-.732 1.273-1.772 1.273-2.926 0-2.209-1.791-4-4-4-1.154 0-2.194.489-2.924 1.271l-.002.002zm-8.48 4.707 1.88 1.893-4.707 4.707c-.784.732-1.273 1.772-1.273 2.926 0 2.209 1.791 4 4 4 1.154 0 2.194-.489 2.924-1.271l.002-.002 4.707-4.707 1.893 1.88-4.72 4.72c-1.198 1.158-2.831 1.871-4.631 1.871-3.682 0-6.667-2.985-6.667-6.667 0-1.8.714-3.434 1.873-4.633l-.002.002 4.72-4.72z"/><path d="m12.227 17.88 5.653-5.653c.242-.242.577-.392.947-.392.739 0 1.339.599 1.339 1.339 0 .37-.15.704-.392.947l-5.653 5.653c-.242.242-.577.392-.947.392-.739 0-1.339-.599-1.339-1.339 0-.37.15-.704.392-.947z"/></svg>