<svg height="32" viewBox="0 0 32 32" width="32" xmlns="http://www.w3.org/2000/svg"><path d="m12.179 5.381c-.368-.638-.15-1.453.488-1.821 3.189-1.841 7.266-.748 9.107 2.44.628 1.088.915 2.278.893 3.449v-.115h-2.666c.001-.68-.172-1.369-.537-2-1.105-1.913-3.551-2.569-5.464-1.464-.638.368-1.453.15-1.821-.488z"/><path d="m18.667 20c0 1.473-1.194 2.667-2.667 2.667s-2.667-1.194-2.667-2.667 1.194-2.667 2.667-2.667 2.667 1.194 2.667 2.667z"/><path d="m9.333 10.666h13.333c2.209 0 4 1.791 4 4v10.667c0 2.209-1.791 4-4 4h-13.333c-2.209 0-4-1.791-4-4v-10.667c0-2.209 1.791-4 4-4zm13.334 2.667h-13.333c-.736 0-1.333.597-1.333 1.333v10.667.017c0 .028.002.056.004.083.051.69.627 1.233 1.33 1.233h13.333c.736 0 1.333-.597 1.333-1.333v-10.667c0-.736-.597-1.334-1.333-1.334z"/></svg>