<svg height="32" viewBox="0 0 32 32" width="32" xmlns="http://www.w3.org/2000/svg"><path d="m18.667 20c0 1.473-1.194 2.667-2.667 2.667s-2.667-1.194-2.667-2.667 1.194-2.667 2.667-2.667 2.667 1.194 2.667 2.667z"/><path d="m5.333 14.667c0-2.209 1.791-4 4-4h13.333c2.209 0 4 1.791 4 4v10.667c0 2.209-1.791 4-4 4h-13.333c-2.209 0-4-1.791-4-4zm4-1.334c-.736 0-1.333.597-1.333 1.333v10.667c0 .736.597 1.333 1.333 1.333h13.333c.736 0 1.333-.597 1.333-1.333v-10.667c0-.736-.597-1.333-1.333-1.333z"/><path d="m20 9.333h2.667c0-3.682-2.985-6.667-6.667-6.667s-6.667 2.985-6.667 6.667h2.667c0-2.209 1.791-4 4-4s4 1.791 4 4z"/></svg>