<svg height="32" viewBox="0 0 32 32" width="32" xmlns="http://www.w3.org/2000/svg"><path d="m4 9.333c0 1.24 0 1.86.135 2.369.367 1.38 1.438 2.459 2.808 2.828.505.136 1.121.136 2.352.136s1.847 0 2.352-.136c1.37-.37 2.441-1.448 2.808-2.828.135-.509.135-1.129.135-2.369s0-1.86-.135-2.369c-.367-1.38-1.438-2.459-2.808-2.828-.505-.136-1.121-.136-2.352-.136s-1.847 0-2.352.136c-1.37.37-2.441 1.448-2.808 2.828-.135.509-.135 1.129-.135 2.369zm5.295 2.667c-.64 0-1.031-.001-1.327-.014-.282-.013-.349-.034-.339-.031-.457-.123-.814-.483-.936-.943.003.01-.018-.057-.031-.341-.014-.299-.014-.693-.014-1.337s.001-1.038.014-1.337c.013-.284.034-.351.031-.341.122-.46.479-.82.936-.943-.01.003.057-.018.339-.031.297-.014.688-.014 1.327-.014s1.031.001 1.327.014c.282.013.349.034.339.031.457.123.814.483.936.943-.003-.01.018.057.031.341.014.299.014.693.014 1.337s-.001 1.038-.014 1.337c-.011.25-.029.332-.031.341-.122.46-.479.82-.936.943.01-.003-.057.018-.339.031-.297.014-.688.014-1.327.014z"/><path d="m17.41 9.333c0 1.24 0 1.86.135 2.369.367 1.38 1.438 2.459 2.808 2.828.505.136 1.121.136 2.352.136s1.847 0 2.352-.136c1.371-.37 2.441-1.448 2.808-2.828.135-.509.135-1.129.135-2.369s0-1.86-.135-2.369c-.367-1.38-1.438-2.459-2.808-2.828-.505-.136-1.121-.136-2.352-.136s-1.847 0-2.352.136c-1.371.37-2.441 1.448-2.808 2.828-.135.509-.135 1.129-.135 2.369zm5.295 2.667c-.64 0-1.031-.001-1.327-.014-.266-.012-.341-.031-.34-.031-.457-.123-.813-.482-.935-.943.003.01-.018-.057-.031-.341-.013-.299-.014-.693-.014-1.337s.001-1.038.014-1.337c.013-.284.034-.351.031-.341.122-.46.479-.82.936-.943-.01.003.057-.018.339-.031.297-.014.688-.014 1.327-.014s1.031.001 1.327.014c.282.013.349.034.339.031.457.123.814.483.936.943 0 0 .019.074.031.341.014.299.014.693.014 1.337s-.001 1.038-.014 1.337c-.011.25-.029.332-.031.341-.122.46-.479.82-.936.943 0 0-.073.019-.339.031-.297.014-.688.014-1.327.014z"/><path d="m4.135 20.298c.367-1.38 1.438-2.459 2.808-2.828.505-.136 1.121-.136 2.352-.136s1.847 0 2.352.136c1.37.37 2.441 1.448 2.808 2.828.135.509.135 1.129.135 2.369s0 1.86-.135 2.369c-.367 1.38-1.438 2.459-2.808 2.828-.505.136-1.121.136-2.352.136s-1.847 0-2.352-.136c-1.37-.37-2.441-1.448-2.808-2.828-.135-.509-.135-1.129-.135-2.369s0-1.86.135-2.369zm3.833 5.021c.297.014.688.014 1.327.014s1.031-.001 1.327-.014c.282-.013.349-.034.339-.031.457-.123.814-.483.936-.943.002-.009.02-.091.031-.341.014-.299.014-.693.014-1.337s-.001-1.038-.014-1.337c-.012-.268-.031-.343-.031-.342s0-.001 0 0c-.122-.46-.479-.819-.936-.942 0 0-.073-.019-.339-.031-.297-.014-.688-.014-1.327-.014s-1.031.001-1.327.014c-.265.012-.34.031-.34.031-.457.123-.813.483-.935.943 0-.001 0 0 0 0s-.019.074-.031.341c-.014.299-.014.693-.014 1.337s.001 1.038.014 1.337c.012.267.031.343.031.342.122.46.479.819.936.942-.01-.003.057.018.339.031z"/><path d="m17.41 22.667c0 1.24 0 1.86.135 2.369.367 1.38 1.438 2.459 2.808 2.828.505.136 1.121.136 2.352.136s1.847 0 2.352-.136c1.371-.37 2.441-1.448 2.808-2.828.135-.509.135-1.129.135-2.369s0-1.86-.135-2.369c-.367-1.38-1.438-2.459-2.808-2.828-.505-.136-1.121-.136-2.352-.136s-1.847 0-2.352.136c-1.371.37-2.441 1.448-2.808 2.828-.135.509-.135 1.129-.135 2.369zm5.295 2.666c-.64 0-1.031-.001-1.327-.014-.282-.013-.349-.034-.339-.031-.457-.123-.814-.483-.936-.943.003.01-.018-.057-.031-.341-.013-.299-.014-.693-.014-1.337s.001-1.038.014-1.337c.013-.284.034-.351.031-.341.122-.46.479-.82.936-.943-.01.003.057-.018.339-.031.297-.014.688-.014 1.327-.014s1.031.001 1.327.014c.282.013.349.034.339.031.457.123.814.483.936.943-.003-.01.018.057.031.341.014.299.014.693.014 1.337s-.001 1.038-.014 1.337c-.011.25-.029.332-.031.341-.122.46-.479.82-.936.943.01-.003-.057.018-.339.031-.297.014-.688.014-1.327.014z"/></svg>