<svg height="32" viewBox="0 0 32 32" width="32" xmlns="http://www.w3.org/2000/svg"><path d="m18.44 19.45c1.629-.591 2.962-1.701 3.999-3.179 1.037-1.553 1.629-3.179 1.555-5.027 0-2.366-.814-4.362-2.518-6.063-1.629-1.7-3.702-2.514-6.072-2.514s-4.443.813-6.22 2.588c-1.703 1.701-2.518 3.697-2.518 6.063 0 1.775.518 3.475 1.629 4.954 1.037 1.479 2.444 2.588 4.073 3.179-1.777 1.035-2.666 2.662-2.666 4.806 0 2.218.963 3.845 2.888 4.88.74.37 1.333.222 1.777-.444.148-.296.222-.591.148-.961s-.296-.665-.592-.813c-.963-.591-1.481-1.479-1.481-2.588 0-.813.296-1.553.889-2.144s1.259-.887 2.147-.887c.815 0 1.555.296 2.147.887s.889 1.331.889 2.144c0 1.183-.444 2.07-1.481 2.588-.296.222-.518.444-.592.813-.148.296-.074.666.148.961.222.37.592.591 1.111.591.046 0 .148-.028.289-.067.088-.024.19-.053.304-.081 1.925-1.109 2.888-2.736 2.888-4.88s-.889-3.771-2.74-4.806zm2.444-8.207c.074 1.035-.148 1.922-.667 2.809-.444.887-1.111 1.553-1.851 1.922-.222.148-.444.222-.592.222-.444 0-.814-.148-1.185-.592-.37-.739-.222-1.331.444-1.774.963-.591 1.481-1.479 1.481-2.588 0-.813-.296-1.553-.889-2.144s-1.333-.887-2.147-.887-1.555.296-2.147.887-.889 1.331-.889 2.144c0 1.183.444 2.07 1.481 2.588.296.222.518.444.592.813.148.296.074.666-.148.961-.148.296-.444.517-.815.592-.37.148-.74.074-1.037-.148-1.851-.961-2.814-2.588-2.814-4.806 0-1.553.518-2.884 1.629-3.993s2.37-1.627 3.924-1.627c1.555 0 2.888.518 3.999 1.627s1.629 2.44 1.629 3.993z"/></svg>