<svg height="32" width="32" xmlns="http://www.w3.org/2000/svg">
  <path d="M4 9.3l.1 2.4A4 4 0 007 14.5c.5.2 1.2.2 2.4.2s1.8 0 2.3-.2a4 4 0 002.9-2.8V9.3 7A4 4 0 0011.6 4L9.3 4l-2.4.1A4 4 0 004.1 7L4 9.3zM9.3 12H7.6c-.4-.2-.8-.5-1-1v-.3-1.4V8v-.3c.2-.5.6-.9 1-1H11c.4.1.8.5.9 1v1.6a35.8 35.8 0 010 1.7c-.1.5-.5.8-1 1H9.4z"/>
  <path d="M17.4 9.3l.1 2.4a4 4 0 002.9 2.8c.5.2 1 .2 2.3.2s1.9 0 2.4-.2a4 4 0 002.8-2.8l.1-2.4-.1-2.3A4 4 0 0025 4L22.7 4l-2.3.1A4 4 0 0017.5 7v2.3zm5.3 2.7a34 34 0 01-1.7 0c-.4-.2-.8-.5-.9-1v-.3-1.4V8v-.3c.1-.5.5-.9 1-1H24.3c.4.1.8.5 1 1v1.6a35.8 35.8 0 010 1.7c-.2.5-.6.8-1 1H22.7z"/>
  <path d="M4.1 20.3A4 4 0 017 17.5c.5-.2 1.2-.2 2.4-.2s1.8 0 2.3.2a4 4 0 012.9 2.8V25a4 4 0 01-2.9 2.9l-2.3.1-2.4-.1A4 4 0 014.1 25L4 22.7l.1-2.4zm3.9 5h3c.4-.1.8-.5.9-1V24v-1.3a35.8 35.8 0 000-1.7c-.1-.5-.5-.8-1-1H7.7c-.4.2-.8.5-1 1s0 0 0 .3v1.4a32.9 32.9 0 000 1.6c.2.5.6.9 1 1H8z"/>
  <path d="M17.4 22.7l.1 2.3a4 4 0 002.9 2.9l2.3.1 2.4-.1a4 4 0 002.8-2.9l.1-2.3-.1-2.4a4 4 0 00-2.8-2.8c-.5-.2-1.2-.2-2.4-.2s-1.8 0-2.3.2a4 4 0 00-2.9 2.8v2.4zm5.3 2.6H21c-.4-.1-.8-.5-.9-1V24v-1.3-1.4-.3c.1-.5.5-.8 1-1H24.3c.4.2.8.5 1 1v1.7a32.9 32.9 0 010 1.6c-.2.5-.6.9-1 1H22.7z"/>
</svg>
