<svg height="32" viewBox="0 0 32 32" width="32" xmlns="http://www.w3.org/2000/svg"><path d="m14.137 12.646c2.36.195 5.377.986 7.844 2.77 1.895 1.37 3.511 3.355 4.252 6.227-.58-.389-1.233-.758-1.959-1.097-2.391-1.117-5.633-1.942-9.818-2.099-.724-.027-1.428.242-1.95.744s-.817 1.196-.817 1.921v.977l-6.317-6.471c-.02-.02-.039-.054-.039-.11s.019-.089.039-.11l6.317-6.471v1.06c0 1.388 1.064 2.543 2.447 2.658zm.22-2.658v-2.559c0-1.864-2.2-2.797-3.486-1.479l-7.406 7.586c-1.063 1.089-1.063 2.855 0 3.945l7.406 7.586c1.241 1.272 3.333.447 3.478-1.286.005-.063.008-.127.008-.193v-2.475c.948.035 1.836.108 2.667.21 2.578.318 4.598.928 6.123 1.64 2.166 1.012 3.242 2.182 3.608 2.933.282.579.916.882 1.531.734s1.049-.711 1.049-1.357c0-5.82-2.524-9.655-5.79-12.017-2.966-2.145-6.49-3.044-9.187-3.267z"/></svg>