<svg height="32" viewBox="0 0 32 32" width="32" xmlns="http://www.w3.org/2000/svg"><path d="m29.198 7.863c1.236-3.148-1.763-6.147-4.911-4.911l-19.036 7.472c-3.194 1.254-3.504 5.658-.501 7.117l5.488 2.667c.745.362 1.343.96 1.705 1.705l2.667 5.488c1.459 3.003 5.863 2.694 7.117-.501l7.472-19.036zm-2.482-.975-7.472 19.036c-.221.564-.689.854-1.186.889-.486.034-.851-.171-1.05-.579l-2.667-5.488c-.113-.233-.24-.458-.379-.673l5.939-5.939c.521-.521.521-1.365 0-1.886s-1.365-.521-1.886 0l-5.939 5.939c-.216-.139-.44-.266-.673-.379l-5.488-2.667c-.409-.198-.613-.564-.579-1.05.035-.497.325-.965.889-1.186l19.036-7.472c.981-.385 1.84.474 1.455 1.455z"/></svg>