<svg height="32" viewBox="0 0 32 32" width="32" xmlns="http://www.w3.org/2000/svg"><path d="m6.667 5.333h18.667c2.209 0 4 1.791 4 4v.66l-10.329 7.746c-1.811 1.236-4.199 1.236-6.01-.001l-10.328-7.746v-.66c0-2.209 1.791-4 4-4zm18.666 2.667h-18.667c-.532 0-.992.312-1.205.763l8.939 6.704c.948.711 2.252.711 3.2 0l8.939-6.704c-.214-.451-.673-.763-1.205-.763z"/><path d="m29.333 11.66-2.667 2v9.007c0 .736-.597 1.333-1.333 1.333h-18.667c-.736 0-1.333-.597-1.333-1.333v-9.007l-2.667-2v11.007c0 2.209 1.791 4 4 4h18.667c2.209 0 4-1.791 4-4z"/></svg>