<svg height="32" viewBox="0 0 32 32" width="32" xmlns="http://www.w3.org/2000/svg"><path d="m9.333 20c0 3.682 2.985 6.667 6.667 6.667s6.667-2.985 6.667-6.667v-10.667c0-.736.597-1.333 1.333-1.333s1.333.597 1.333 1.333v10.667c0 5.155-4.179 9.333-9.333 9.333s-9.333-4.179-9.333-9.333v-10.667c0-3.682 2.985-6.667 6.667-6.667s6.667 2.985 6.667 6.667v10.667c0 2.209-1.791 4-4 4s-4-1.791-4-4v-10.667c0-.736.597-1.333 1.333-1.333s1.333.597 1.333 1.333v10.667c0 .736.597 1.333 1.333 1.333s1.333-.597 1.333-1.333v-10.667c0-2.209-1.791-4-4-4s-4 1.791-4 4z"/></svg>