<svg height="32" viewBox="0 0 32 32" width="32" xmlns="http://www.w3.org/2000/svg"><path d="m6.667 21.333c0-.736.597-1.333 1.333-1.333h2.667c.736 0 1.333.597 1.333 1.333s-.597 1.333-1.333 1.333h-2.667c-.736 0-1.333-.597-1.333-1.333z"/><path d="m18.667 4c0-.736.597-1.333 1.333-1.333h4c.736 0 1.333.597 1.333 1.333v1.333c0 .736-.597 1.333-1.333 1.333h-2.667v6.667c0 .736-.597 1.333-1.333 1.333s-1.333-.597-1.333-1.333v-2.667h-3.999c.837 1.114 1.333 2.499 1.333 4v9.333h10.667v-9.333c0-2.209-1.791-4-4-4v-2.667c3.682 0 6.667 2.985 6.667 6.667v9.333c0 1.473-1.194 2.667-2.667 2.667h-21.333c-.092 0-.183-.005-.273-.014-1.345-.137-2.394-1.272-2.394-2.653v-9.333c0-3.682 2.985-6.667 6.667-6.667h9.333v-4zm-9.334 6.667c-2.209 0-4 1.791-4 4v9.333h8v-9.333c0-2.209-1.791-4-4-4z"/></svg>