<svg height="32" viewBox="0 0 32 32" width="32" xmlns="http://www.w3.org/2000/svg"><path d="m21.333 13.333c0-2.946-2.388-5.333-5.333-5.333s-5.333 2.388-5.333 5.333 2.388 5.333 5.333 5.333 5.333-2.388 5.333-5.333zm-2.666 0c0 1.473-1.194 2.667-2.667 2.667s-2.667-1.194-2.667-2.667 1.194-2.667 2.667-2.667 2.667 1.194 2.667 2.667z"/><path d="m5.333 13.333c0 6.602 5.337 12.35 8.461 15.149 1.274 1.141 3.138 1.141 4.412 0 3.124-2.799 8.461-8.547 8.461-15.149 0-5.891-4.776-10.667-10.667-10.667s-10.667 4.776-10.667 10.667zm2.667 0c0-4.418 3.582-8 8-8s8 3.582 8 8c0 2.588-1.054 5.163-2.618 7.531-1.554 2.354-3.491 4.319-4.956 5.631-.146.131-.296.176-.426.176s-.28-.045-.426-.176c-1.465-1.312-3.402-3.277-4.956-5.631-1.564-2.369-2.618-4.944-2.618-7.531z"/></svg>