<svg height="32" viewBox="0 0 32 32" width="32" xmlns="http://www.w3.org/2000/svg"><path d="m21.333 16c0-2.946-2.388-5.333-5.333-5.333s-5.333 2.388-5.333 5.333 2.388 5.333 5.333 5.333 5.333-2.388 5.333-5.333zm-2.666 0c0 1.473-1.194 2.667-2.667 2.667s-2.667-1.194-2.667-2.667 1.194-2.667 2.667-2.667 2.667 1.194 2.667 2.667z"/><path d="m14.667 2.667c0-.736.597-1.333 1.333-1.333s1.333.597 1.333 1.333v1.407c5.562.615 9.979 5.031 10.593 10.593h1.407c.736 0 1.333.597 1.333 1.333s-.597 1.333-1.333 1.333h-1.407c-.615 5.562-5.031 9.979-10.593 10.593v1.407c0 .736-.597 1.333-1.333 1.333s-1.333-.597-1.333-1.333v-1.407c-5.562-.615-9.979-5.031-10.593-10.593h-1.407c-.736 0-1.333-.597-1.333-1.333s.597-1.333 1.333-1.333h1.407c.615-5.562 5.031-9.979 10.593-10.593zm-8 13.333c0 5.155 4.179 9.333 9.333 9.333s9.333-4.179 9.333-9.333c0-5.155-4.179-9.333-9.333-9.333s-9.333 4.179-9.333 9.333z"/></svg>