<svg height="32" viewBox="0 0 32 32" width="32" xmlns="http://www.w3.org/2000/svg"><path d="m14.667 13.333c0-.736.597-1.333 1.333-1.333s1.333.597 1.333 1.333v5.333c0 .736-.597 1.333-1.333 1.333s-1.333-.597-1.333-1.333z"/><path d="m16 24c.736 0 1.333-.597 1.333-1.333s-.597-1.333-1.333-1.333-1.333.597-1.333 1.333.597 1.333 1.333 1.333z"/><path d="m12.437 4.897c1.52-2.969 5.53-2.975 7.058-.011l9.339 18.127c1.466 2.846-.472 6.32-3.526 6.32h-18.616c-3.049 0-4.988-3.464-3.532-6.309l9.276-18.127zm3.53.436c-.404.001-.861.202-1.156.779l-9.276 18.126c-.294.574-.249 1.206.03 1.704.276.492.692.724 1.128.724h18.616c.437 0 .854-.232 1.129-.726.279-.499.322-1.133.026-1.707l-9.339-18.127c-.297-.576-.753-.775-1.157-.775z"/></svg>