<svg height="32" viewBox="0 0 32 32" width="32" xmlns="http://www.w3.org/2000/svg"><path d="m14.667 10.667c0-.736.597-1.333 1.333-1.333s1.333.597 1.333 1.333v6.667c0 .736-.597 1.333-1.333 1.333s-1.333-.597-1.333-1.333z"/><path d="m16 22.667c.736 0 1.333-.597 1.333-1.333s-.597-1.333-1.333-1.333-1.333.597-1.333 1.333.597 1.333 1.333 1.333z"/><path d="m8.943 3.838c.75-.75 1.768-1.172 2.828-1.172h8.458c1.061 0 2.078.421 2.828 1.172l5.105 5.105c.75.75 1.172 1.768 1.172 2.828v8.458c0 1.061-.421 2.078-1.172 2.828l-5.105 5.105c-.75.75-1.768 1.172-2.828 1.172h-8.458c-1.061 0-2.078-.421-2.828-1.172l-5.105-5.105c-.75-.75-1.172-1.768-1.172-2.828v-8.458c0-1.061.421-2.078 1.172-2.828zm2.828 1.495c-.354 0-.693.14-.943.391l-5.105 5.105c-.25.25-.391.589-.391.943v8.458c0 .354.14.693.391.943l5.105 5.105c.25.25.589.391.943.391h8.458c.354 0 .693-.141.943-.391l5.105-5.105c.25-.25.391-.589.391-.943v-8.458c0-.354-.141-.693-.391-.943l-5.105-5.105c-.25-.25-.589-.391-.943-.391z"/></svg>