<svg height="32" viewBox="0 0 32 32" width="32" xmlns="http://www.w3.org/2000/svg"><path d="m16 10.667c-1.711 0-2.667 1.113-2.667 2 0 .736-.597 1.333-1.333 1.333s-1.333-.597-1.333-1.333c0-2.795 2.626-4.667 5.333-4.667s5.333 1.872 5.333 4.667c0 1.566-.867 2.881-2.065 3.693-.576.39-1.087.794-1.446 1.219-.353.418-.488.77-.488 1.088v.667c0 .736-.597 1.333-1.333 1.333s-1.333-.597-1.333-1.333v-.667c0-1.155.515-2.095 1.117-2.809.596-.705 1.345-1.271 1.989-1.707.607-.411.894-.961.894-1.484 0-.887-.956-2-2.667-2z"/><path d="m17.333 22.667c0 .736-.597 1.333-1.333 1.333s-1.333-.597-1.333-1.333.597-1.333 1.333-1.333 1.333.597 1.333 1.333z"/><path d="m29.333 16c0-7.364-5.97-13.333-13.333-13.333s-13.333 5.97-13.333 13.333c0 7.364 5.97 13.333 13.333 13.333s13.333-5.97 13.333-13.333zm-2.666 0c0 5.891-4.776 10.667-10.667 10.667s-10.667-4.776-10.667-10.667 4.776-10.667 10.667-10.667 10.667 4.776 10.667 10.667z"/></svg>