<svg height="32" viewBox="0 0 32 32" width="32" xmlns="http://www.w3.org/2000/svg"><path d="m2.667 20c0-.736.597-1.333 1.333-1.333h6.667c.736 0 1.333.597 1.333 1.333s-.597 1.333-1.333 1.333h-6.667c-.736 0-1.333-.597-1.333-1.333z"/><path d="m2.667 13.333c0-.736.597-1.333 1.333-1.333h17.333c.736 0 1.333.597 1.333 1.333s-.597 1.333-1.333 1.333h-17.333c-.736 0-1.333-.597-1.333-1.333z"/><path d="m2.667 6.667c0-.736.597-1.333 1.333-1.333h17.333c.736 0 1.333.597 1.333 1.333s-.597 1.333-1.333 1.333h-17.333c-.736 0-1.333-.597-1.333-1.333z"/><path d="m28.943 18.276c.521-.521.521-1.365 0-1.886s-1.365-.521-1.886 0l-7.057 7.057-3.057-3.057c-.521-.521-1.365-.521-1.886 0s-.521 1.365 0 1.886l4 4c.065.065.135.122.209.171.517.342 1.221.285 1.676-.171z"/></svg>