<svg height="32" viewBox="0 0 32 32" width="32" xmlns="http://www.w3.org/2000/svg"><path d="m2.667 8c0-.736.597-1.333 1.333-1.333h24c.736 0 1.333.597 1.333 1.333s-.597 1.333-1.333 1.333h-24c-.736 0-1.333-.597-1.333-1.333z"/><path d="m6.667 16c0-.736.597-1.333 1.333-1.333h16c.736 0 1.333.597 1.333 1.333s-.597 1.333-1.333 1.333h-16c-.736 0-1.333-.597-1.333-1.333z"/><path d="m12 22.667c-.736 0-1.333.597-1.333 1.333s.597 1.333 1.333 1.333h8c.736 0 1.333-.597 1.333-1.333s-.597-1.333-1.333-1.333z"/></svg>