<svg height="32" viewBox="0 0 32 32" width="32" xmlns="http://www.w3.org/2000/svg"><path d="m6.667 10.667c1.473 0 2.667-1.194 2.667-2.667s-1.194-2.667-2.667-2.667-2.667 1.194-2.667 2.667 1.194 2.667 2.667 2.667z"/><path d="m12 8c0-.736.597-1.333 1.333-1.333h13.333c.736 0 1.333.597 1.333 1.333s-.597 1.333-1.333 1.333h-13.333c-.736 0-1.333-.597-1.333-1.333z"/><path d="m6.667 18.667c1.473 0 2.667-1.194 2.667-2.667s-1.194-2.667-2.667-2.667-2.667 1.194-2.667 2.667 1.194 2.667 2.667 2.667z"/><path d="m12 16c0-.736.597-1.333 1.333-1.333h13.333c.736 0 1.333.597 1.333 1.333s-.597 1.333-1.333 1.333h-13.333c-.736 0-1.333-.597-1.333-1.333z"/><path d="m6.667 26.667c1.473 0 2.667-1.194 2.667-2.667s-1.194-2.667-2.667-2.667-2.667 1.194-2.667 2.667 1.194 2.667 2.667 2.667z"/><path d="m13.333 22.667c-.736 0-1.333.597-1.333 1.333s.597 1.333 1.333 1.333h13.333c.736 0 1.333-.597 1.333-1.333s-.597-1.333-1.333-1.333z"/></svg>