<svg height="32" viewBox="0 0 32 32" width="32" xmlns="http://www.w3.org/2000/svg"><path d="m7.24 6.32v6.36h1.107c.547 0 .987.44.987 1 0 .533-.44.987-.987.987h-4.573c-.539-.008-.973-.446-.973-.987 0-.56.44-1 .973-1h1.507v-4.56l-1.107.707c-.148.096-.33.154-.525.154-.353 0-.662-.188-.833-.469l-.002-.004c-.094-.149-.149-.331-.149-.526 0-.356.186-.668.465-.845l.004-.002 2.6-1.653c.146-.093.325-.148.516-.148.173 0 .335.045.476.124l-.005-.003c.32.173.507.507.507.867zm-3.893 12.373c.581-.826 1.53-1.358 2.603-1.358.736 0 1.413.25 1.951.67l-.007-.005c.714.554 1.169 1.412 1.169 2.376 0 .807-.318 1.539-.836 2.078l-2.092 2.159h2.133c.587 0 1.053.453 1.053 1.027s-.467 1.027-1.053 1.027h-4.533c-.001 0-.002 0-.003 0-.422 0-.786-.248-.954-.607l-.003-.006c-.058-.124-.092-.269-.092-.422 0-.271.106-.517.279-.698l3.733-3.867c.175-.176.284-.419.284-.687 0-.318-.152-.6-.388-.778l-.002-.002c-.171-.132-.389-.212-.625-.212-.347 0-.654.172-.84.436l-.002.003-.16.227c-.195.279-.515.458-.876.458-.22 0-.424-.067-.594-.181l.004.002c-.279-.184-.461-.495-.461-.849 0-.216.068-.416.183-.581l-.002.003.147-.213zm9.986-10.693c0-.736.597-1.333 1.333-1.333h13.333c.736 0 1.333.597 1.333 1.333s-.597 1.333-1.333 1.333h-13.333c-.736 0-1.333-.597-1.333-1.333zm0 8c0-.736.597-1.333 1.333-1.333h13.333c.736 0 1.333.597 1.333 1.333s-.597 1.333-1.333 1.333h-13.333c-.736 0-1.333-.597-1.333-1.333zm0 8c0-.736.597-1.333 1.333-1.333h13.333c.736 0 1.333.597 1.333 1.333s-.597 1.333-1.333 1.333h-13.333c-.736 0-1.333-.597-1.333-1.333z"/></svg>