<svg height="32" viewBox="0 0 32 32" width="32" xmlns="http://www.w3.org/2000/svg"><path d="m5.333 6.667c-.736 0-1.333.597-1.333 1.333s.597 1.333 1.333 1.333h21.333c.736 0 1.333-.597 1.333-1.333s-.597-1.333-1.333-1.333z"/><path d="m4 16c0-.736.597-1.333 1.333-1.333h21.333c.736 0 1.333.597 1.333 1.333s-.597 1.333-1.333 1.333h-21.333c-.736 0-1.333-.597-1.333-1.333z"/><path d="m4 24c0-.736.597-1.333 1.333-1.333h21.333c.736 0 1.333.597 1.333 1.333s-.597 1.333-1.333 1.333h-21.333c-.736 0-1.333-.597-1.333-1.333z"/></svg>