<svg height="32" viewBox="0 0 32 32" width="32" xmlns="http://www.w3.org/2000/svg"><path d="m14.949 4.711c1.687-1.108 3.975-.92 5.459.563l4.09 4.09c1.974.245 3.501 1.929 3.501 3.969v10.667c0 2.209-1.791 4-4 4h-16c-2.209 0-4-1.791-4-4v-10.667c0-1.695 1.055-3.144 2.544-3.727l.764-2.631c.622-2.141 3.006-3.412 5.326-2.838l2.316.573zm10.384 9.956v-1.333c0-.736-.597-1.333-1.333-1.333h-16c-.736 0-1.333.597-1.333 1.333v10.667c0 .736.597 1.333 1.333 1.333h16c.736 0 1.333-.597 1.333-1.333v-1.333h-2.667c-2.209 0-4-1.791-4-4s1.791-4 4-4h2.667zm0 5.333v-2.667h-2.667c-.736 0-1.333.597-1.333 1.333s.597 1.333 1.333 1.333h2.667zm-15.134-10.667 2.446-2.446-.652-.161c-1.092-.27-1.947.381-2.124.993l-.469 1.614zm10.498 0-2.174-2.174c-.657-.657-1.722-.657-2.378 0l-2.174 2.174z"/></svg>