<svg height="32" viewBox="0 0 32 32" width="32" xmlns="http://www.w3.org/2000/svg"><path d="m14.667 5.333c0-.736.597-1.333 1.333-1.333s1.333.597 1.333 1.333v1.333c0 .036-.001.071-.004.106 2.161.348 4.064 1.538 4.907 3.325.314.666.028 1.461-.638 1.774s-1.461.028-1.775-.638c-.452-.96-1.861-1.902-3.824-1.902-1.212 0-2.258.37-2.971.905s-1.029 1.171-1.029 1.762c0 .425.096.877.526 1.307.467.467 1.481 1.061 3.662 1.373 2.485.355 4.138 1.095 5.171 2.127 1.059 1.058 1.302 2.259 1.307 3.164v.029c0 1.618-.878 2.982-2.095 3.895-.9.675-2.019 1.138-3.242 1.333.003.035.004.07.004.105v1.333c0 .736-.597 1.333-1.333 1.333s-1.333-.597-1.333-1.333v-1.333c0-.036.001-.071.004-.106-2.161-.348-4.064-1.538-4.907-3.325-.314-.666-.028-1.461.638-1.775s1.461-.028 1.774.638c.452.96 1.861 1.902 3.824 1.902 1.212 0 2.258-.37 2.971-.905.705-.529 1.022-1.158 1.029-1.743v-.018c0-.425-.096-.877-.526-1.307-.467-.467-1.481-1.061-3.662-1.373-2.485-.355-4.138-1.095-5.171-2.127-1.07-1.07-1.307-2.285-1.307-3.193 0-1.618.878-2.982 2.095-3.895.9-.675 2.019-1.138 3.242-1.333-.003-.035-.004-.07-.004-.105v-1.333z"/></svg>