<svg height="32" viewBox="0 0 32 32" width="32" xmlns="http://www.w3.org/2000/svg"><path d="m25.333 26.667c2.209 0 4-1.791 4-4v-13.333c0-2.209-1.791-4-4-4h-18.667c-2.209 0-4 1.791-4 4v12h2.667v-6.667h21.333v8c0 .736-.597 1.333-1.333 1.333h-9.333c0 .682-.26 1.365-.781 1.886l-.781.781zm1.334-17.334v1.333h-21.333v-1.333c0-.736.597-1.333 1.333-1.333h18.667c.736 0 1.333.597 1.333 1.333z"/><path d="m14.276 24.943c.26-.26.391-.602.391-.943s-.13-.682-.391-.943l-4-4c-.521-.521-1.365-.521-1.886 0s-.521 1.365 0 1.886l1.724 1.724h-7.448c-.736 0-1.333.597-1.333 1.333s.597 1.333 1.333 1.333h7.448l-1.724 1.724c-.521.521-.521 1.365 0 1.886s1.365.521 1.886 0z"/><path d="m16 20c0-.736.597-1.333 1.333-1.333h5.333c.736 0 1.333.597 1.333 1.333s-.597 1.333-1.333 1.333h-5.333c-.736 0-1.333-.597-1.333-1.333z"/></svg>