<svg height="32" viewBox="0 0 32 32" width="32" xmlns="http://www.w3.org/2000/svg"><path d="m27.6 6.267c.166-.22.267-.498.267-.8 0-.736-.597-1.333-1.333-1.333-.302 0-.58.1-.803.269l.003-.002-21.333 21.333c-.325.246-.533.632-.533 1.067 0 .736.597 1.333 1.333 1.333.435 0 .821-.208 1.064-.53l.002-.003 4.933-4.933c.984.098 1.887.334 2.728.69l-.061-.023 3.467 1.333c1.303.528 2.815.835 4.398.835 1.14 0 2.242-.159 3.286-.456l-.085.021 3.467-1.067c.667-.133 1.067-.933.933-1.6v-12.667c.029-.103.045-.221.045-.343 0-.736-.597-1.333-1.333-1.333-.159 0-.312.028-.454.079l.009-.003-2.667.8zm-6.933 7.066 1.067-1.067c.813-.018 1.593-.114 2.346-.281l-.08.015c-.011.08-.018.173-.018.267 0 1.105.895 2 2 2h.019-.001l.667-.133v5.467c-.209-.081-.452-.128-.705-.128-1.105 0-2 .895-2 2 0 .394.114.761.31 1.07l-.005-.008c-.781.236-1.678.372-2.608.372-1.221 0-2.387-.234-3.455-.66l.063.022-.8-.267c2.267-.667 3.867-3.067 3.867-5.733 0-.008 0-.018 0-.027 0-1.057-.246-2.057-.684-2.945l.017.039zm-2 2 .133.8c0 2.133-1.467 3.333-2.667 3.333l-1.2-.4 3.733-3.733zm-.267-6.533 1.6.533-3.467 3.467h-.533c-1.2 0-2.667 1.067-2.667 3.067l-2.267 2.267c-.223-.591-.367-1.274-.399-1.986l-.001-.014c0-2.8 1.6-5.2 4-5.867l-.933-.267c-1.006-.404-2.172-.638-3.392-.638-.929 0-1.827.136-2.674.389l.066-.017.267.933c-.011 1.096-.902 1.981-2 1.981-.239 0-.468-.042-.681-.119l.014.004v5.467c.203-.076.438-.12.683-.12 1.105 0 2 .895 2 2 0 .089-.006.177-.017.264l.001-.01 1.067-.267-3.6 3.733-1.067.267c-.124.042-.267.066-.415.066-.736 0-1.333-.597-1.333-1.333 0-.07.005-.14.016-.207l-.001.008v-12.667c-.024-.095-.038-.204-.038-.317 0-.608.406-1.12.962-1.281l.009-.002 3.467-.933c1.018-.312 2.189-.492 3.401-.492 1.508 0 2.952.278 4.281.786l-.082-.028 3.6 1.333z"/></svg>