<svg height="32" viewBox="0 0 32 32" width="32" xmlns="http://www.w3.org/2000/svg"><path d="m13.667 25.333h-7c-.733 0-1.333-.6-1.333-1.333s.6-1.333 1.333-1.333h5.72c-.245-.79-.387-1.698-.387-2.639 0-.01 0-.019 0-.029v.002h-4c-.733 0-1.333-.6-1.333-1.333s.6-1.333 1.333-1.333h4.387c.293-.96.72-1.867 1.28-2.667h-4.333c-.733 0-1.333-.6-1.333-1.333s.6-1.333 1.333-1.333h7.187c1.1-.675 2.404-1.131 3.8-1.277l.04-.003c-.507-.587-1.2-1.027-1.973-1.24.18-.438.284-.947.284-1.48 0-2.209-1.791-4-4-4-.001 0-.003 0-.004 0h-8c-2.201.011-3.98 1.798-3.98 4 0 1.827 1.225 3.368 2.899 3.846l.028.007c-.18.436-.285.942-.285 1.473 0 .724.195 1.402.535 1.986l-.01-.019c-1.12.718-1.852 1.957-1.852 3.367 0 .723.192 1.401.529 1.986l-.01-.019c-1.12.722-1.85 1.962-1.85 3.373 0 2.208 1.789 3.998 3.997 4h8 .004c.516 0 1.01-.098 1.463-.276l-.027.009c-.96-.657-1.77-1.453-2.42-2.371l-.02-.029zm-8.334-17.333c0-.736.597-1.333 1.333-1.333h8c.733 0 1.333.6 1.333 1.333s-.6 1.333-1.333 1.333h-8c-.736 0-1.333-.597-1.333-1.333z"/><path d="m21.333 12c-4.419.004-8 3.587-8 8.007 0 4.422 3.585 8.007 8.007 8.007h.007c4.419-.004 8-3.587 8-8.007 0-4.422-3.585-8.007-8.007-8.007-.002 0-.005 0-.007 0zm0 13.333c-2.946 0-5.333-2.388-5.333-5.333s2.388-5.333 5.333-5.333c2.946 0 5.333 2.388 5.333 5.333s-2.388 5.333-5.333 5.333z"/></svg>