<svg height="32" viewBox="0 0 32 32" width="32" xmlns="http://www.w3.org/2000/svg"><path d="m17.333 18.667c-.736 0-1.333.597-1.333 1.333s.597 1.333 1.333 1.333h5.333c.736 0 1.333-.597 1.333-1.333s-.597-1.333-1.333-1.333z"/><path d="m29.333 9.333v13.333c0 2.209-1.791 4-4 4h-18.667c-2.209 0-4-1.791-4-4v-13.333c0-2.209 1.791-4 4-4h18.667c2.209 0 4 1.791 4 4zm-4 14.667c.736 0 1.333-.597 1.333-1.333v-8h-21.333v8c0 .736.597 1.333 1.333 1.333zm-20-14.667v1.333h21.333v-1.333c0-.736-.597-1.333-1.333-1.333h-18.667c-.736 0-1.333.597-1.333 1.333z"/></svg>