<svg height="32" viewBox="0 0 32 32" width="32" xmlns="http://www.w3.org/2000/svg"><path d="m10.584 5.032c.531-.109 1.037-.318 1.49-.617l1.583-1.045c1.421-.938 3.265-.938 4.686 0l-1.469 2.226c-.53-.35-1.217-.35-1.747 0l-1.583 1.045c-.736.486-1.559.827-2.424 1.004l-1.858.381c-.622.127-1.108.614-1.236 1.236l-.381 1.858c-.177.864-.518 1.687-1.004 2.424l-2.226-1.469c.299-.453.508-.958.617-1.49l.381-1.858c.342-1.668 1.645-2.972 3.313-3.313l1.858-.381z"/><path d="m19.926 27.585-1.583 1.045c-1.421.938-3.265.938-4.686 0l-1.583-1.045c-.453-.299-.958-.508-1.49-.617l-1.858-.381c-1.668-.341-2.972-1.645-3.313-3.313l-.381-1.858c-.109-.531-.318-1.037-.617-1.49l-1.045-1.583c-.938-1.421-.938-3.265 0-4.686l1.045-1.583 2.226 1.469-1.045 1.583c-.35.53-.35 1.217 0 1.747l1.045 1.583c.486.736.827 1.559 1.004 2.424l.381 1.858c.127.622.614 1.108 1.236 1.236l1.858.381c.864.177 1.687.518 2.424 1.004l1.583 1.045c.53.35 1.217.35 1.747 0l1.583-1.045 1.469 2.225z"/><path d="m21.416 26.968c-.531.109-1.037.318-1.49.617l-1.469-2.225c.736-.486 1.559-.827 2.424-1.004l.535 2.613z"/><path d="m27.585 19.926c-.299.453-.508.958-.617 1.49l-.381 1.858c-.341 1.668-1.645 2.972-3.313 3.313l-1.858.381-.535-2.613 1.858-.381c.622-.127 1.108-.614 1.236-1.236l.381-1.858c.177-.865.518-1.687 1.004-2.424l2.225 1.469z"/><path d="m26.968 10.584c.109.531.318 1.037.617 1.49l1.045 1.583c.938 1.421.938 3.265 0 4.686l-1.045 1.583-2.225-1.469 1.045-1.583c.35-.53.35-1.217 0-1.747l-1.045-1.583c-.486-.736-.827-1.559-1.004-2.424l2.613-.535z"/><path d="m26.968 10.584-.381-1.858c-.341-1.668-1.645-2.972-3.313-3.313l-1.858-.381c-.531-.109-1.037-.318-1.49-.617l-1.583-1.045-1.469 2.226 1.583 1.045c.736.486 1.559.827 2.424 1.004l1.858.381c.622.127 1.108.614 1.236 1.236l.381 1.858 2.613-.535z"/><path d="m12.667 14.667c1.105 0 2-.895 2-2s-.895-2-2-2-2 .895-2 2 .895 2 2 2z"/><path d="m21.333 19.333c0 1.105-.895 2-2 2s-2-.895-2-2 .895-2 2-2 2 .895 2 2z"/><path d="m20.943 12.943c.521-.521.521-1.365 0-1.886s-1.365-.521-1.886 0l-8 8c-.521.521-.521 1.365 0 1.886s1.365.521 1.886 0z"/></svg>