<svg height="32" viewBox="0 0 32 32" width="32" xmlns="http://www.w3.org/2000/svg"><path d="m13.333 12c.4-.533.8-1.2 1.333-1.6 1.453-1.478 3.473-2.394 5.707-2.394.72 0 1.418.095 2.082.274l-.056-.013c.667.133 1.333-.267 1.6-.933.133-.667-.267-1.467-.933-1.6-.81-.221-1.741-.348-2.701-.348-2.957 0-5.633 1.203-7.565 3.147l-.001.001c-1.067.933-1.867 2.133-2.4 3.467h-2.4c-.8 0-1.333.533-1.333 1.333s.533 1.333 1.333 1.333h1.733v2.667h-1.733c-.8 0-1.333.533-1.333 1.333s.533 1.333 1.333 1.333h2.4c.576 1.404 1.388 2.602 2.399 3.599l.001.001c2.8 2.8 6.8 3.733 10.267 2.8.667-.133 1.2-.933.933-1.6-.133-.667-.933-1.2-1.6-.933-.608.166-1.306.261-2.026.261-2.234 0-4.255-.916-5.706-2.393l-.001-.001-1.333-1.6h6.667c.8 0 1.333-.533 1.333-1.333s-.533-1.333-1.333-1.333h-7.6v-2.667h7.6c.8 0 1.333-.533 1.333-1.333s-.533-1.333-1.333-1.333h-6.667z"/></svg>