<svg height="32" viewBox="0 0 32 32" width="32" xmlns="http://www.w3.org/2000/svg"><path d="m19.6 9.333c3.333 2 7.067 6.4 7.067 10.667 0 5.867-4.8 9.333-10.667 9.333s-10.667-3.467-10.667-9.333c0-4.267 3.733-8.667 7.067-10.667-.667-.667-1.2-1.6-1.467-2.533l-.133-.4c-.533-2 .8-3.867 2.667-3.733l1.733.267h1.6l1.733-.267c1.867-.267 3.2 1.733 2.667 3.733l-.267.4c-.133.933-.667 1.867-1.333 2.533zm-.667-4-1.733.133c-.8.133-1.467.133-2.133 0l-1.6-.133v.667c.4 1.067 1.467 2 2.533 2 1.333 0 2.267-.933 2.533-2.133l.133-.533zm-2.933 5.334c-.267 0-.8.133-1.867.667-.933.533-2 1.333-2.933 2.267-1.867 2.133-3.2 4.4-3.2 6.4 0 2.133.8 3.733 2.133 4.8 1.333 1.2 3.467 1.867 5.867 1.867s4.533-.667 5.867-1.867c1.333-1.067 2.133-2.667 2.133-4.8 0-2-1.333-4.267-3.2-6.4-.933-.933-2-1.733-2.933-2.267-1.067-.533-1.6-.667-1.867-.667z"/></svg>