<svg height="32" viewBox="0 0 32 32" width="32" xmlns="http://www.w3.org/2000/svg"><path d="m19.287 10.667h.713c.736 0 1.333.597 1.333 1.333s-.597 1.333-1.333 1.333h-10.667c-.736 0-1.333-.597-1.333-1.333s.597-1.333 1.333-1.333h.713c-.113-.196-.214-.4-.303-.61-.265-.633-.411-1.328-.411-2.057 0-.184.009-.366.028-.545l.004-.039c.291-2.671 2.554-4.749 5.302-4.749s5.011 2.079 5.302 4.749c.021.192.032.387.032.584 0 .644-.114 1.262-.324 1.834-.027.075-.057.149-.087.223-.088.211-.189.414-.303.61zm-4.62-5.334c-1.24 0-2.282.846-2.581 1.992-.056.215-.086.441-.086.674 0 .736.298 1.403.781 1.886.037.037.075.073.114.108.471.419 1.092.673 1.771.673s1.3-.254 1.771-.673c.549-.488.895-1.2.895-1.993 0-.23-.029-.453-.084-.666-.296-1.15-1.34-2-2.583-2z"/><path d="m8.006 7.711c-3.858 1.146-6.673 4.72-6.673 8.952 0 3.174 1.584 5.977 4 7.663v1.007c0 2.21 1.791 4.001 4 4.001 1.982 0 3.627-1.442 3.945-3.335h2.777c.317 1.893 1.963 3.335 3.945 3.335 2.209 0 4-1.791 4-4.001v-.27c.704-.407 1.19-.932 1.575-1.528.241-.374.439-.771.614-1.124l.034-.069c.058-.116.114-.23.171-.344h.273c2.209 0 4-1.791 4-4.001v-1.334c0-2.059-1.555-3.755-3.553-3.977-.355-.754-.809-1.453-1.343-2.079l.575-2.874c.341-1.703-1.501-3.002-2.99-2.108l-2.113 1.268c.06.36.092.73.092 1.108 0 .744-.122 1.46-.347 2.129.078-.029.154-.065.226-.108l2.222-1.334-.412 2.061c-.087.437.049.888.364 1.204.694.696 1.235 1.544 1.568 2.487.188.533.692.889 1.257.889h.455c.736 0 1.333.597 1.333 1.334v1.334c0 .737-.597 1.334-1.333 1.334h-1.07c-.476 0-.916.254-1.154.666-.243.42-.439.818-.604 1.151l-.039.079c-.181.366-.317.633-.465.861-.248.384-.519.655-1.111.864-.533.188-.889.692-.889 1.258v1.122c0 .737-.597 1.334-1.333 1.334s-1.333-.597-1.333-1.334v-.667c0-.737-.597-1.334-1.333-1.334h-5.333c-.736 0-1.333.597-1.333 1.334v.667c0 .737-.597 1.334-1.333 1.334s-1.333-.597-1.333-1.334v-1.738c0-.476-.254-.916-.666-1.155-1.996-1.155-3.334-3.311-3.334-5.777 0-2.901 1.851-5.368 4.436-6.286-.282-.738-.436-1.539-.436-2.376 0-.097.002-.194.006-.289z"/></svg>