<svg height="32" viewBox="0 0 32 32" width="32" xmlns="http://www.w3.org/2000/svg"><path d="m21.165 5.333h4.168c.736 0 1.333.597 1.333 1.333s-.597 1.333-1.333 1.333h-18.667c-.736 0-1.333-.597-1.333-1.333s.597-1.333 1.333-1.333h4.168c.592-2.3 2.68-4 5.165-4s4.573 1.7 5.165 4zm-2.855 0c-.461-.797-1.323-1.333-2.31-1.333s-1.849.536-2.31 1.333z"/><path d="m6.667 9.333v16c0 2.209 1.791 4 4 4h10.667c2.209 0 4-1.791 4-4v-16h-2.667v16c0 .736-.597 1.333-1.333 1.333h-10.667c-.736 0-1.333-.597-1.333-1.333v-16z"/><path d="m12 13.333c0-.736.597-1.333 1.333-1.333s1.333.597 1.333 1.333v8c0 .736-.597 1.333-1.333 1.333s-1.333-.597-1.333-1.333z"/><path d="m18.667 12c-.736 0-1.333.597-1.333 1.333v8c0 .736.597 1.333 1.333 1.333s1.333-.597 1.333-1.333v-8c0-.736-.597-1.333-1.333-1.333z"/></svg>