<svg height="32" viewBox="0 0 32 32" width="32" xmlns="http://www.w3.org/2000/svg"><path d="m23.609 4.391c-.521-.521-1.365-.521-1.886 0s-.521 1.365 0 1.886l2.155 2.155c-.73.476-1.212 1.299-1.212 2.235 0 1.473 1.194 2.667 2.667 2.667v7.333c0 .368-.299.667-.667.667s-.667-.299-.667-.667v-2c0-2.209-1.791-4-4-4h-1.333v-6.667c0-2.209-1.791-4-4-4h-5.333c-2.209 0-4 1.791-4 4v16h2.667v-10.667h8v10.667h2.667v-6.667h1.333c.736 0 1.333.597 1.333 1.333v2c0 1.841 1.492 3.333 3.333 3.333s3.333-1.492 3.333-3.333v-9.676c0-.063-.001-.126-.003-.189.002-.045.003-.089.003-.135 0-.269-.04-.53-.114-.775-.211-1.005-.711-1.936-1.448-2.673l-2.828-2.828zm-14.276 2.276h5.333c.736 0 1.333.597 1.333 1.333v2.667h-8v-2.667c0-.736.597-1.333 1.333-1.333z"/><path d="m4 26.667c0-.736.597-1.333 1.333-1.333h13.333c.736 0 1.333.597 1.333 1.333s-.597 1.333-1.333 1.333h-13.333c-.736 0-1.333-.597-1.333-1.333z"/></svg>