<svg height="32" viewBox="0 0 32 32" width="32" xmlns="http://www.w3.org/2000/svg"><path d="m12.557 5.172 2.828 2.828c1.562 1.562 1.562 4.095 0 5.657l-1.587 1.587c.026.069.063.153.113.254.261.523.766 1.222 1.474 1.93s1.407 1.213 1.93 1.474c.101.051.186.087.254.113l1.587-1.587c1.562-1.562 4.095-1.562 5.657 0l2.828 2.828c1.562 1.562 1.562 4.095 0 5.657l-.943.943c-2.023 2.023-5.056 2.332-8.028 1.589-3.002-.75-6.198-2.615-8.943-5.361s-4.61-5.941-5.361-8.943c-.743-2.972-.434-6.004 1.589-8.028l.943-.943c1.562-1.562 4.095-1.562 5.657 0zm-.943 8.485 1.886-1.886c.521-.521.521-1.365 0-1.886l-2.828-2.828c-.521-.521-1.365-.521-1.886 0l-.943.943c-1.101 1.101-1.51 3.007-.888 5.495.615 2.458 2.197 5.242 4.659 7.704s5.246 4.045 7.704 4.659c2.488.622 4.395.213 5.495-.888l.943-.943c.521-.521.521-1.365 0-1.886l-2.828-2.828c-.521-.521-1.365-.521-1.886 0l-1.886 1.886c-.543.543-1.241.579-1.689.526-.467-.055-.931-.231-1.345-.438-.842-.421-1.769-1.119-2.623-1.974s-1.553-1.781-1.974-2.623c-.207-.414-.383-.878-.438-1.345-.053-.448-.017-1.146.526-1.689z"/></svg>