<svg height="32" viewBox="0 0 32 32" width="32" xmlns="http://www.w3.org/2000/svg"><path d="m10.667 8c0-2.209 1.791-4 4-4h2.667c2.209 0 4 1.791 4 4h4c2.209 0 4 1.791 4 4v12c0 2.209-1.791 4-4 4h-18.667c-2.209 0-4-1.791-4-4v-12c0-2.209 1.791-4 4-4zm4-1.333c-.736 0-1.333.597-1.333 1.333h5.333c0-.736-.597-1.333-1.333-1.333zm6.666 4h-10.667v14.667h10.667zm2.667 14.666h1.333c.736 0 1.333-.597 1.333-1.333v-12c0-.736-.597-1.333-1.333-1.333h-1.333v14.667zm-16 0v-14.667h-1.333c-.736 0-1.333.597-1.333 1.333v12c0 .736.597 1.333 1.333 1.333h1.333z"/></svg>