<svg height="32" viewBox="0 0 32 32" width="32" xmlns="http://www.w3.org/2000/svg"><path d="m17.333 10c0 1.105-.895 2-2 2s-2-.895-2-2 .895-2 2-2 2 .895 2 2z"/><path d="m12 14c0 1.105-.895 2-2 2s-2-.895-2-2 .895-2 2-2 2 .895 2 2z"/><path d="m13.333 20.667c0 1.105-.895 2-2 2s-2-.895-2-2 .895-2 2-2 2 .895 2 2z"/><path d="m24 12.667c0 1.105-.895 2-2 2s-2-.895-2-2 .895-2 2-2 2 .895 2 2z"/><path d="m16 2.667c-7.333 0-13.333 6-13.333 13.333s6 13.333 13.333 13.333c1.867 0 3.333-1.467 3.333-3.333 0-.267 0-.4-.133-.667 0-.267-.133-.533-.267-.8s-.267-.533-.533-.667c-.133-.133-.133-.267-.133-.4 0-.4.267-.667.667-.667h2.4c4.4 0 8-3.6 8-8 0-6.8-6-12.133-13.333-12.133zm5.333 17.333h-2.4c-1.867 0-3.333 1.467-3.333 3.333 0 .933.4 1.6.8 2.133.133.133.133.4.133.533 0 .4-.267.667-.667.667-5.867 0-10.667-4.8-10.667-10.667s4.8-10.667 10.667-10.667c6.133 0 10.667 4.4 10.667 9.333.133 2.933-2.267 5.333-5.2 5.333z"/></svg>