<svg height="32" viewBox="0 0 32 32" width="32" xmlns="http://www.w3.org/2000/svg"><path d="m16 24c-3.682 0-6.667-2.985-6.667-6.667s2.985-6.667 6.667-6.667 6.667 2.985 6.667 6.667-2.985 6.667-6.667 6.667zm0-2.667c2.209 0 4-1.791 4-4s-1.791-4-4-4-4 1.791-4 4 1.791 4 4 4z"/><path d="m8 13.333c.736 0 1.333-.597 1.333-1.333s-.597-1.333-1.333-1.333-1.333.597-1.333 1.333.597 1.333 1.333 1.333z"/><path d="m6.667 6.667h2.114c.354 0 .693-.14.943-.391l1.105-1.105c.75-.75 1.768-1.172 2.828-1.172h4.686c1.061 0 2.078.421 2.828 1.172l1.105 1.105c.25.25.589.391.943.391h2.114c2.209 0 4 1.791 4 4v13.333c0 2.209-1.791 4-4 4h-18.667c-2.209 0-4-1.791-4-4v-13.333c0-2.209 1.791-4 4-4zm20 4c0-.736-.597-1.333-1.333-1.333h-2.114c-1.061 0-2.078-.421-2.828-1.172l-1.105-1.105c-.25-.25-.589-.391-.943-.391h-4.686c-.354 0-.693.14-.943.391l-1.105 1.105c-.75.75-1.768 1.172-2.828 1.172h-2.114c-.736 0-1.333.597-1.333 1.333v13.333c0 .736.597 1.333 1.333 1.333h18.667c.736 0 1.333-.597 1.333-1.333v-13.333z"/></svg>