<svg height="32" viewBox="0 0 32 32" width="32" xmlns="http://www.w3.org/2000/svg"><path d="m15.027 5.333c-.736 0-1.333.597-1.333 1.333s.597 1.333 1.333 1.333h6.913c.631 0 1.176.443 1.305 1.061l.613 2.939h-9.206c-.896.01-1.768.117-2.607.312-.031-.068-.065-.134-.103-.2-.644-1.115-2.07-1.497-3.185-.853l-1.736 1.002c-1.115.644-1.497 2.07-.853 3.185.019.033.038.065.059.096-1.876 1.873-3.142 4.357-3.473 7.125h2.692c.694-4.49 4.548-7.943 9.23-8h9.759c.257.745 1.649 8 1.649 8h2.724l-2.95-14.15c-.387-1.855-2.021-3.184-3.916-3.184h-6.913z"/><path d="m2.667 25.333c0-.736.597-1.333 1.333-1.333h24c.736 0 1.333.597 1.333 1.333s-.597 1.333-1.333 1.333h-24c-.736 0-1.333-.597-1.333-1.333z"/></svg>