<svg height="32" viewBox="0 0 32 32" width="32" xmlns="http://www.w3.org/2000/svg"><path d="m22.657 5.333c1.086 0 1.718 1.234 1.078 2.117l-5.132 7.078c-.825 1.138-1.269 2.508-1.269 3.913v6.071l-2.667 1.333v-7.392c0-1.406-.444-2.775-1.269-3.913l-5.141-7.09c-.64-.883-.008-2.117 1.078-2.117zm0-2.666h-13.322c-3.265 0-5.154 3.704-3.237 6.349l5.141 7.09c.495.683.762 1.505.762 2.348v9.549c0 .991 1.043 1.636 1.93 1.193l5.333-2.667c.452-.226.737-.688.737-1.193v-6.895c0-.843.267-1.665.762-2.348l5.132-7.078c1.917-2.644.029-6.349-3.237-6.349z"/></svg>