<svg height="32" viewBox="0 0 32 32" width="32" xmlns="http://www.w3.org/2000/svg"><path d="m20.62 12h2.07c1.946 0 3.607 1.414 3.927 3.342l1.327 8c.405 2.438-1.467 4.658-3.927 4.658h-16.035c-2.46 0-4.332-2.219-3.927-4.658l1.327-8c.32-1.929 1.981-3.342 3.927-3.342h2.07c-.454-.784-.713-1.695-.713-2.667 0-2.946 2.388-5.333 5.333-5.333s5.333 2.388 5.333 5.333c0 .971-.26 1.882-.713 2.667zm-1.953-2.667c0-1.473-1.194-2.667-2.667-2.667s-2.667 1.194-2.667 2.667 1.194 2.667 2.667 2.667 2.667-1.194 2.667-2.667zm-9.357 5.334c-.633 0-1.189.461-1.297 1.112l-1.327 8c-.137.828.498 1.555 1.297 1.555h16.035c.799 0 1.434-.727 1.297-1.555l-1.327-8c-.108-.651-.664-1.112-1.297-1.112h-13.38z"/></svg>