<svg height="32" viewBox="0 0 32 32" width="32" xmlns="http://www.w3.org/2000/svg"><path d="m8 4c-.736 0-1.333.597-1.333 1.333v9.501c.426-.11.873-.168 1.333-.168s.907.058 1.333.168v-9.501c0-.736-.597-1.333-1.333-1.333z"/><path d="m6.667 26.667v-1.501c.426.11.873.168 1.333.168s.907-.058 1.333-.168v1.501c0 .736-.597 1.333-1.333 1.333s-1.333-.597-1.333-1.333z"/><path d="m14.667 5.333c0-.736.597-1.333 1.333-1.333s1.333.597 1.333 1.333v1.501c-.426-.11-.873-.168-1.333-.168s-.907.058-1.333.168z"/><path d="m14.667 26.667v-9.501c.426.11.873.168 1.333.168s.907-.058 1.333-.168v9.501c0 .736-.597 1.333-1.333 1.333s-1.333-.597-1.333-1.333z"/><path d="m22.667 23.832v2.835c0 .736.597 1.333 1.333 1.333s1.333-.597 1.333-1.333v-2.835c-.426.11-.873.168-1.333.168s-.907-.058-1.333-.168z"/><path d="m25.333 5.333v8.168c-.426-.11-.873-.168-1.333-.168s-.907.058-1.333.168v-8.168c0-.736.597-1.333 1.333-1.333s1.333.597 1.333 1.333z"/><path d="m16 16c-2.209 0-4-1.791-4-4s1.791-4 4-4 4 1.791 4 4-1.791 4-4 4zm0-2.667c.736 0 1.333-.597 1.333-1.333s-.597-1.333-1.333-1.333-1.333.597-1.333 1.333.597 1.333 1.333 1.333z"/><path d="m8 24c-2.209 0-4-1.791-4-4s1.791-4 4-4 4 1.791 4 4-1.791 4-4 4zm0-2.667c.736 0 1.333-.597 1.333-1.333s-.597-1.333-1.333-1.333-1.333.597-1.333 1.333.597 1.333 1.333 1.333z"/><path d="m24 22.667c-2.209 0-4-1.791-4-4s1.791-4 4-4 4 1.791 4 4-1.791 4-4 4zm0-2.667c.736 0 1.333-.597 1.333-1.333s-.597-1.333-1.333-1.333-1.333.597-1.333 1.333.597 1.333 1.333 1.333z"/></svg>