<svg height="32" viewBox="0 0 32 32" width="32" xmlns="http://www.w3.org/2000/svg"><path d="m8 2.667h16c.736 0 1.333.597 1.333 1.333s-.597 1.333-1.333 1.333v.238c.001 2.45.002 4.438-1.001 6.243-.665 1.197-1.725 2.244-3.29 3.373-.711-.479-1.49-.966-2.337-1.474l-.12-.072c1.978-1.311 2.917-2.224 3.416-3.122.631-1.136.666-2.412.666-5.186h-10.666c0 2.774.034 4.049.666 5.186.64 1.152 2.003 2.327 5.354 4.338 3.316 1.99 5.286 3.481 6.313 5.329 1.003 1.805 1.002 3.793 1.001 6.243v.238c.736 0 1.333.597 1.333 1.333s-.597 1.333-1.333 1.333h-16c-.736 0-1.333-.597-1.333-1.333s.597-1.333 1.333-1.333v-.238c-.001-2.45-.002-4.437 1.001-6.243.821-1.478 2.245-2.727 4.478-4.186-2.233-1.458-3.657-2.708-4.478-4.186-1.003-1.806-1.002-3.793-1.001-6.243v-.238c-.736 0-1.333-.597-1.333-1.333s.597-1.333 1.333-1.333zm8 14.893c-2.855 1.761-4.074 2.851-4.668 3.921-.631 1.137-.666 2.412-.666 5.186h10.667c0-2.774-.034-4.049-.666-5.186-.594-1.07-1.813-2.16-4.668-3.921z"/></svg>