<svg height="32" viewBox="0 0 32 32" width="32" xmlns="http://www.w3.org/2000/svg"><path d="m15.801 6.754c.483.193.871.573 1.076 1.051.306.716.167 1.576-.415 2.16l-11.307 11.336c-2.466 2.472-.719 6.699 2.767 6.699h16.157c3.487 0 5.233-4.227 2.767-6.699l-8.078-8.099-1.845 1.85 8.078 8.099c.822.824.24 2.233-.922 2.233h-16.157c-1.162 0-1.744-1.409-.922-2.233l11.307-11.336c.889-.891 1.334-2.058 1.337-3.225v-.012c0-.631-.127-1.231-.357-1.778-.223-.53-.549-1.027-.98-1.459-.851-.853-1.954-1.299-3.068-1.338-.109-.004-.219-.004-.328 0-.537.019-1.05.132-1.524.321-.56.223-1.085.562-1.538 1.017l-.01.01c-.82.828-1.327 1.968-1.327 3.227 0 .722.584 1.308 1.305 1.308s1.305-.586 1.305-1.308c0-.84.527-1.557 1.267-1.836.183-.069.375-.11.569-.122.04-.002.081-.004.121-.004.037 0 .073.001.109.003.209.012.417.057.614.135z"/></svg>