<svg height="32" viewBox="0 0 32 32" width="32" xmlns="http://www.w3.org/2000/svg"><path d="m8.047 8c-.031-.218-.047-.44-.047-.667 0-2.577 2.089-4.667 4.667-4.667 1.577 0 2.972.783 3.817 1.981.628-.41 1.378-.648 2.183-.648 2.209 0 4 1.791 4 4h1.333c2.209 0 4 1.791 4 4 0 1.185-.515 2.249-1.333 2.981v10.352c0 2.209-1.791 4-4 4h-13.333c-2.209 0-4-1.791-4-4v-10.352c-.818-.732-1.333-1.797-1.333-2.981 0-2.209 1.791-4 4-4h.047zm6.506 0c.074-.209.114-.433.114-.667 0-1.105-.895-2-2-2s-2 .895-2 2c0 .234.04.458.114.667zm-6.553 2.667c-.736 0-1.333.597-1.333 1.333s.597 1.333 1.333 1.333h6.667v-2.667h-6.667zm10.667-4c-.736 0-1.333.597-1.333 1.333h2.667c0-.736-.597-1.333-1.333-1.333zm6.666 5.333c0-.736-.597-1.333-1.333-1.333h-6.667v2.667h6.667c.736 0 1.333-.597 1.333-1.333zm-10.666 4h-6.667v9.333c0 .736.597 1.333 1.333 1.333h5.333v-10.667zm2.666 10.667h5.333c.736 0 1.333-.597 1.333-1.333v-9.333h-6.667v10.667z"/></svg>