<svg height="32" viewBox="0 0 32 32" width="32" xmlns="http://www.w3.org/2000/svg"><path d="m19.085 8.781c-.736 0-1.333.597-1.333 1.333s.597 1.333 1.333 1.333 1.333.597 1.333 1.333.597 1.333 1.333 1.333 1.333-.597 1.333-1.333c0-2.209-1.791-4-4-4z"/><path d="m8.714 23.152c-4.686-4.686-4.686-12.284 0-16.971s12.284-4.686 16.971 0c4.686 4.686 4.686 12.284 0 16.971s-12.284 4.686-16.971 0zm1.886-1.886c3.645 3.645 9.554 3.645 13.199 0s3.645-9.554 0-13.199-9.554-3.645-13.199 0-3.645 9.554 0 13.199z"/><path d="m8.761 24.991c-.341-.279-.671-.578-.989-.896s-.617-.648-.896-.989l-3.818 3.818c-.521.521-.521 1.365 0 1.886s1.365.521 1.886 0l3.818-3.818z"/></svg>