<svg height="32" viewBox="0 0 32 32" width="32" xmlns="http://www.w3.org/2000/svg"><path d="m10.438 27.085 6.292-6.292c3.289 1.171 7.103.439 9.736-2.193 2.166-2.166 3.045-5.131 2.637-7.946-.087-.6-.405-1.136-.833-1.564l-.86-.86c-.521-.521-1.365-.521-1.886 0l-3.771 3.771-1.886-1.886 3.771-3.771c.521-.521.521-1.365 0-1.886l-.86-.86c-.429-.429-.964-.746-1.564-.833-2.815-.408-5.78.471-7.946 2.637-2.633 2.633-3.364 6.447-2.193 9.736l-6.292 6.292c-1.562 1.562-1.562 4.095 0 5.657s4.095 1.562 5.657 0zm7.186-8.804-1.588-.565-7.484 7.484c-.521.521-1.365.521-1.886 0s-.521-1.365 0-1.886l7.484-7.484-.565-1.588c-.838-2.356-.311-5.078 1.567-6.956 1.535-1.535 3.63-2.167 5.636-1.889.004.003.009.006.015.01l-2.822 2.822c-1.041 1.041-1.041 2.73 0 3.771l1.886 1.886c1.041 1.041 2.73 1.041 3.771 0l2.822-2.822c.004.006.007.011.01.015.278 2.005-.354 4.101-1.889 5.635-1.878 1.878-4.6 2.405-6.956 1.567z"/><path d="m9.495 5.401 1.18 1.18c-1.472 2.492-1.842 5.454-1.114 8.181l-1.009 1.009-4.714-4.714c-1.562-1.562-1.562-4.095 0-5.657s4.095-1.562 5.657 0z"/><path d="m24.58 28.028-5.383-5.383c1.15.072 2.31-.042 3.43-.341l3.838 3.838c.521.521.521 1.365 0 1.886s-1.365.521-1.886 0z"/></svg>