<svg height="32" viewBox="0 0 32 32" width="32" xmlns="http://www.w3.org/2000/svg"><path d="m9.333 13.333c.736 0 1.333-.597 1.333-1.333s.597-1.333 1.333-1.333 1.333-.597 1.333-1.333-.597-1.333-1.333-1.333c-2.209 0-4 1.791-4 4 0 .736.597 1.333 1.333 1.333z"/><path d="m20.793 15.136 7.235 7.235c1.562 1.562 1.562 4.095 0 5.657l-.264.264c-1.416 1.416-3.712 1.416-5.129 0-.162-.162-.401-.218-.619-.146l-1.692.564c-.479.16-1.007.035-1.365-.322l-1.663-1.663c-.357-.357-.482-.885-.322-1.364l.552-1.656c.08-.239.018-.504-.161-.682l-2.229-2.229c-3.289 1.171-7.103.439-9.736-2.193-3.645-3.645-3.645-9.554 0-13.199s9.554-3.645 13.199 0c2.633 2.633 3.364 6.447 2.193 9.736zm-13.507 1.578c2.281 2.281 5.803 2.563 8.391.849l3.574 3.574c.893.893 1.204 2.213.805 3.411l-.291.874.498.498.911-.304c1.175-.392 2.471-.086 3.347.79.375.375.983.375 1.357 0l.264-.264c.521-.521.521-1.365 0-1.886l-8.58-8.58c1.715-2.588 1.432-6.11-.849-8.391-2.603-2.604-6.825-2.604-9.428 0s-2.604 6.825 0 9.428z"/></svg>