<svg height="32" viewBox="0 0 32 32" width="32" xmlns="http://www.w3.org/2000/svg"><path d="m16 19.333c1.841 0 3.333-1.492 3.333-3.333s-1.492-3.333-3.333-3.333-3.333 1.492-3.333 3.333 1.492 3.333 3.333 3.333z"/><path d="m6.1 24.957.943.943c1.499 1.499 3.893 1.56 5.464.181.48.167.974.3 1.477.397.672 1.979 2.774 3.123 4.822 2.574l1.288-.345c2.048-.549 3.297-2.591 2.889-4.641.387-.336.748-.698 1.081-1.083 2.05.409 4.093-.84 4.642-2.888l.345-1.288c.549-2.049-.596-4.152-2.577-4.823-.048-.248-.105-.497-.172-.745s-.141-.492-.224-.731c1.38-1.571 1.32-3.965-.18-5.465l-.943-.943c-1.499-1.499-3.893-1.56-5.464-.18-.48-.167-.974-.3-1.477-.397-.672-1.979-2.774-3.123-4.822-2.574l-1.288.345c-2.048.549-3.297 2.591-2.889 4.641-.387.336-.748.698-1.081 1.083-2.05-.409-4.093.84-4.642 2.888l-.345 1.288c-.549 2.049.596 4.152 2.577 4.823.048.248.105.497.172.745s.141.492.224.731c-1.38 1.571-1.32 3.965.18 5.465zm17.976-14.208-1.023 1.165.506 1.465c.062.18.118.364.169.551s.093.375.129.561l.295 1.522 1.468.497c.658.223 1.039.925.856 1.607l-.345 1.288c-.183.682-.864 1.099-1.545.963l-1.523-.304-1.016 1.175c-.25.289-.52.56-.81.812l-1.171 1.015.302 1.52c.135.681-.282 1.362-.963 1.544l-1.288.345c-.682.183-1.383-.198-1.607-.856l-.498-1.467-1.522-.294c-.377-.073-.747-.173-1.108-.298l-1.467-.51-1.167 1.025c-.522.458-1.32.437-1.82-.062l-.943-.943c-.499-.499-.52-1.298-.062-1.82l1.023-1.165-.506-1.465c-.062-.18-.118-.363-.169-.551s-.093-.375-.129-.561l-.294-1.522-1.468-.497c-.658-.223-1.039-.925-.856-1.607l.345-1.288c.183-.682.864-1.099 1.545-.963l1.523.304 1.016-1.175c.25-.289.52-.56.81-.812l1.171-1.015-.302-1.52c-.135-.681.282-1.362.963-1.544l1.288-.345c.682-.183 1.383.198 1.607.856l.498 1.468 1.522.294c.377.073.747.173 1.108.298l1.467.51 1.167-1.025c.522-.458 1.321-.437 1.82.062l.943.943c.499.499.52 1.298.062 1.82z"/></svg>