<svg height="32" viewBox="0 0 32 32" width="32" xmlns="http://www.w3.org/2000/svg"><path d="m5.333 14.894v-5.561c0-2.209 1.791-4 4-4h13.333c2.209 0 4 1.791 4 4v5.561c1.554.549 2.667 2.031 2.667 3.772v8c0 .736-.597 1.333-1.333 1.333s-1.333-.597-1.333-1.333v-1.333h-21.333v1.333c0 .736-.597 1.333-1.333 1.333s-1.333-.597-1.333-1.333v-8c0-1.742 1.113-3.223 2.667-3.772zm4-6.894c-.736 0-1.333.597-1.333 1.333v5.333c0-2.209 1.791-4 4-4h1.333c1.025 0 1.959.385 2.667 1.019.708-.633 1.642-1.019 2.667-1.019h1.333c2.209 0 4 1.791 4 4v-5.333c0-.736-.597-1.333-1.333-1.333h-13.333zm5.334 6.667c0-.736-.597-1.333-1.333-1.333h-1.333c-.736 0-1.333.597-1.333 1.333h4zm-8 2.666c-.736 0-1.333.597-1.333 1.333v4h21.333v-4c0-.736-.597-1.333-1.333-1.333zm14.666-2.666c0-.736-.597-1.333-1.333-1.333h-1.333c-.736 0-1.333.597-1.333 1.333h4z"/></svg>