<svg height="32" viewBox="0 0 32 32" width="32" xmlns="http://www.w3.org/2000/svg"><path d="m17.037 14.538c1.562 1.562 4.095 1.562 5.657 0s1.562-4.095 0-5.657-4.095-1.562-5.657 0-1.562 4.095 0 5.657zm1.886-3.771c.521-.521 1.365-.521 1.886 0s.521 1.365 0 1.886-1.365.521-1.886 0-.521-1.365 0-1.886z"/><path d="m14.44 3.936-10.602 10.602c-1.562 1.562-1.562 4.095 0 5.657l7.542 7.542c1.562 1.562 4.095 1.562 5.657 0l10.602-10.602c.731-.731 1.151-1.718 1.171-2.752l.097-5.097c.021-1.087-.402-2.136-1.171-2.905l-2.543-2.543c-.769-.769-1.818-1.192-2.905-1.171l-5.097.097c-1.034.02-2.021.439-2.752 1.171zm11.314 11.313-10.602 10.602c-.521.521-1.365.521-1.886 0l-7.542-7.542c-.521-.521-.521-1.365 0-1.886l10.602-10.602c.244-.244.573-.384.917-.39l5.097-.097c.362-.007.712.134.968.39l2.543 2.543c.256.256.397.606.39.968l-.097 5.097c-.007.345-.146.674-.39.917z"/></svg>