<svg height="32" viewBox="0 0 32 32" width="32" xmlns="http://www.w3.org/2000/svg"><path d="m19.772 28c-.549 1.554-2.031 2.667-3.772 2.667s-3.223-1.113-3.772-2.667h7.545z"/><path d="m12 12c0-.736.597-1.333 1.333-1.333s1.333.597 1.333 1.333v8c0 .736-.597 1.333-1.333 1.333s-1.333-.597-1.333-1.333z"/><path d="m25.333 26.667c.736 0 1.333-.597 1.333-1.333s-.597-1.333-1.333-1.333v-12c0-5.155-4.179-9.333-9.333-9.333s-9.333 4.179-9.333 9.333v12c-.736 0-1.333.597-1.333 1.333s.597 1.333 1.333 1.333h18.667zm-2.666-14.667v12h-13.333v-12c0-3.682 2.985-6.667 6.667-6.667s6.667 2.985 6.667 6.667z"/></svg>