<svg height="32" viewBox="0 0 32 32" width="32" xmlns="http://www.w3.org/2000/svg"><path d="m29.333 16c0 7.364-5.97 13.333-13.333 13.333s-13.333-5.97-13.333-13.333c0-7.364 5.97-13.333 13.333-13.333 3.202 0 6.14 1.128 8.438 3.009l1.952-1.952c.521-.521 1.365-.521 1.886 0 .508.508.52 1.322.039 1.846l-9.739 9.739c.059.221.091.453.091.692 0 .704-.273 1.344-.719 1.821l.005-.005c-.487.523-1.181.85-1.953.85-.023 0-.046 0-.069-.001-.028-.001-.055-.002-.083-.003-1.402-.078-2.515-1.24-2.515-2.662 0-1.473 1.194-2.667 2.667-2.667.036 0 .072.001.107.002.201.008.396.038.583.088l2.019-2.019c-.794-.469-1.72-.738-2.709-.738-2.945 0-5.333 2.388-5.333 5.333s2.388 5.333 5.333 5.333 5.333-2.388 5.333-5.333c0-.478-.063-.942-.181-1.383l2.067-2.067c.5 1.045.78 2.215.78 3.45 0 4.418-3.582 8-8 8s-8-3.582-8-8 3.582-8 8-8c1.728 0 3.328.548 4.635 1.479l1.905-1.905c-1.806-1.404-4.076-2.24-6.541-2.24-5.891 0-10.667 4.776-10.667 10.667s4.776 10.667 10.667 10.667 10.667-4.776 10.667-10.667c0-1.979-.539-3.831-1.477-5.42l1.934-1.934c1.397 2.108 2.21 4.636 2.21 7.354z"/></svg>