<svg height="32" viewBox="0 0 32 32" width="32" xmlns="http://www.w3.org/2000/svg"><path d="m26.667 13.333v-1.333c0-2.933-2.4-5.333-5.333-5.333h-1.333c-.267-2.267-2.267-4-4.667-4s-4.267 1.733-4.667 4h-1.333c-2.933 0-5.333 2.4-5.333 5.333v4h2c1.067 0 2 .933 2 2s-.933 2-2 2h-2v4c0 2.933 2.4 5.333 5.333 5.333h12c2.933 0 5.333-2.4 5.333-5.333v-1.333c2.267-.267 4-2.267 4-4.667s-1.733-4.267-4-4.667zm-.667 6.667h-2v4c0 1.467-1.2 2.667-2.667 2.667h-12c-1.467 0-2.667-1.2-2.667-2.667v-1.333c2.267-.267 4-2.267 4-4.667s-1.733-4.267-4-4.667v-1.333c0-1.467 1.2-2.667 2.667-2.667h4v-2c0-1.067.933-2 2-2s2 .933 2 2v2h4c1.467 0 2.667 1.2 2.667 2.667v4h2c1.067 0 2 .933 2 2s-.933 2-2 2z"/></svg>