<svg height="32" viewBox="0 0 32 32" width="32" xmlns="http://www.w3.org/2000/svg"><path d="m8 3.181c-.22.068-.438.142-.655.224l-1.146.43c-.572.215-.91.781-.861 1.361-.003.034-.004.069-.004.103v14.66c-.001.028-.001.055 0 .083v7.992c0 .718.597 1.299 1.333 1.299s1.333-.582 1.333-1.299v-6.701h-.001v-18.152zm1.333 17.316c2.031-.487 4.182-.248 6.071.696 2.882 1.441 6.234 1.617 9.252.485l1.114-.418c.103-.036.201-.084.291-.143.112-.073.211-.161.295-.261.178-.212.291-.48.309-.774.002-.032.003-.064.003-.096v-14.653c0-.042-.002-.084-.006-.126.019-.195-.006-.397-.079-.593-.259-.689-1.027-1.039-1.717-.78l-1.146.43c-2.323.871-4.904.736-7.123-.374-2.261-1.131-4.812-1.483-7.263-1.035v2.724c2.031-.487 4.182-.248 6.071.696 2.675 1.338 5.755 1.585 8.597.709v12.091l-.281.105c-2.323.871-4.904.736-7.123-.374-2.261-1.131-4.812-1.483-7.263-1.035v2.724z"/></svg>