<svg height="32" viewBox="0 0 32 32" width="32" xmlns="http://www.w3.org/2000/svg"><path d="m16 2.667c-.736 0-1.333.597-1.333 1.333v.168c.426-.11.873-.168 1.333-.168s.907.058 1.333.168v-.168c0-.736-.597-1.333-1.333-1.333z"/><path d="m9.176 20 3.322-6.644c.669.583 1.485 1.002 2.385 1.193l-2.725 5.451h2.509c0-.736.597-1.333 1.333-1.333s1.333.597 1.333 1.333h2.51l-2.725-5.451c.9-.192 1.716-.611 2.385-1.194l3.322 6.644h2.509c.736 0 1.333.597 1.333 1.333s-.597 1.333-1.333 1.333h-1.176l2.368 4.737c.329.659.062 1.459-.596 1.789s-1.459.062-1.789-.596l-2.965-5.93h-3.843c0 .736-.597 1.333-1.333 1.333s-1.333-.597-1.333-1.333h-3.842l-2.965 5.93c-.329.659-1.13.926-1.789.596s-.926-1.13-.596-1.789l2.369-4.737h-1.176c-.736 0-1.333-.597-1.333-1.333s.597-1.333 1.333-1.333h2.51z"/><path d="m20 9.333c0-2.209-1.791-4-4-4s-4 1.791-4 4 1.791 4 4 4 4-1.791 4-4zm-2.667 0c0 .736-.597 1.333-1.333 1.333s-1.333-.597-1.333-1.333.597-1.333 1.333-1.333 1.333.597 1.333 1.333z"/></svg>