<svg height="32" viewBox="0 0 32 32" width="32" xmlns="http://www.w3.org/2000/svg"><path d="m25.893 5.893.947-.947c.244-.242.394-.577.394-.947s-.151-.705-.394-.947c-.241-.24-.573-.388-.94-.388s-.699.148-.94.388l-.947.947c-.52.52-.52 1.373 0 1.893s1.36.533 1.88 0zm-9.893 2.027c-.733 0-1.333.6-1.333 1.333s.6 1.333 1.333 1.333c1.473 0 2.667 1.194 2.667 2.667v.014-.001c0 .733.6 1.333 1.333 1.333s1.333-.6 1.333-1.333c0-.004 0-.009 0-.013 0-2.946-2.388-5.333-5.333-5.333z"/><path d="m16 3.907c-.002 0-.005 0-.007 0-5.538 0-10.027 4.489-10.027 10.027 0 2.79 1.14 5.315 2.979 7.132l.001.001c.997.892 1.644 2.157 1.719 3.574l.001.013v.667.013c0 2.209 1.791 4 4 4h2.667c2.209 0 4-1.791 4-4 0-.005 0-.009 0-.014v.001-.667c0-1.373.747-2.613 1.72-3.587 1.841-1.819 2.98-4.343 2.98-7.133 0-5.538-4.489-10.027-10.027-10.027-.003 0-.005 0-.007 0zm2.667 20.746v.667c0 .736-.597 1.333-1.333 1.333h-2.667c-.736 0-1.333-.597-1.333-1.333v-.667c0-.227-.013-.453-.04-.667h5.4zm2.506-5.493c-.573.573-1.16 1.293-1.627 2.147h-7.093c-.458-.821-.998-1.527-1.626-2.146l-.001-.001c-1.334-1.328-2.16-3.166-2.16-5.198 0-4.05 3.283-7.333 7.333-7.333s7.333 3.283 7.333 7.333c0 2.031-.826 3.869-2.16 5.197zm-17.84-6.56h-1.333c-.736 0-1.333.597-1.333 1.333 0 .736.597 1.333 1.333 1.333h1.333c.736 0 1.333-.597 1.333-1.333 0-.736-.597-1.333-1.333-1.333zm26.667 0h-1.333c-.736 0-1.333.597-1.333 1.333 0 .736.597 1.333 1.333 1.333h1.333c.736 0 1.333-.597 1.333-1.333 0-.736-.597-1.333-1.333-1.333zm-23.893 9.387-.947.947c-.244.242-.394.577-.394.947s.151.705.394.947c.241.24.573.388.94.388s.699-.148.94-.388l.947-.947c.244-.242.394-.577.394-.947s-.151-.705-.394-.947c-.241-.24-.573-.388-.94-.388s-.699.148-.94.388zm19.786 0c-.241-.24-.573-.388-.94-.388s-.699.148-.94.388c-.244.242-.394.577-.394.947s.151.705.394.947l.947.947c.241.24.573.388.94.388s.699-.148.94-.388c.244-.242.394-.577.394-.947s-.151-.705-.394-.947zm-19.786-16.094c.241.24.573.388.94.388s.699-.148.94-.388c.244-.242.394-.577.394-.947s-.151-.705-.394-.947l-.947-.947c-.241-.24-.573-.388-.94-.388s-.699.148-.94.388c-.244.242-.394.577-.394.947s.151.705.394.947z"/></svg>