<svg height="32" viewBox="0 0 32 32" width="32" xmlns="http://www.w3.org/2000/svg"><path d="m6.184 20.159c-.303.303-.455.455-.578.625-.165.226-.293.477-.379.743-.065.199-.099.411-.167.834l-.545 3.407c-.098.613-.147.919-.073 1.147.099.305.338.544.643.643.229.074.535.025 1.148-.073l3.407-.545c.423-.068.635-.101.834-.167.266-.087.517-.215.743-.379.17-.123.321-.275.624-.578l13.587-13.587-1.886-1.886-13.587 13.587c-.163.163-.243.243-.303.299l-.005.004-.006.001c-.081.015-.193.034-.42.07l-1.817.291.291-1.817c.036-.227.054-.339.07-.42l.001-.006.004-.005c.057-.06.137-.141.299-.303l13.587-13.587-1.886-1.886-13.587 13.587z"/><path d="m21.653 4.69-.939.939 5.657 5.657.943-.943c1.562-1.562 1.562-4.095 0-5.657s-4.095-1.562-5.657 0z"/><path d="m16 25.333c-.736 0-1.333.597-1.333 1.333s.597 1.333 1.333 1.333h10.667c.736 0 1.333-.597 1.333-1.333s-.597-1.333-1.333-1.333z"/></svg>