<svg height="32" viewBox="0 0 32 32" width="32" xmlns="http://www.w3.org/2000/svg"><path d="m5.606 20.784c.123-.17.275-.321.578-.625l15.473-15.473c1.562-1.562 4.095-1.562 5.657 0s1.562 4.095 0 5.657l-.943.943-5.657-5.657-.943.943 1.886 1.886-13.587 13.587c-.163.163-.243.243-.299.303l-.004.005-.001.006c-.016.081-.034.193-.07.42l-.291 1.817 1.817-.291c.227-.036.339-.055.42-.07l.006-.001.005-.004c.06-.057.141-.137.303-.299l13.587-13.587 1.886 1.886-13.587 13.587c-.303.303-.455.455-.624.578-.226.165-.477.293-.743.379-.199.065-.411.099-.834.167l-3.407.545c-.613.098-.919.147-1.148.073-.305-.099-.544-.338-.643-.643-.074-.229-.025-.535.073-1.147l.545-3.407c.068-.423.101-.635.167-.834.087-.266.215-.517.379-.743z"/></svg>