<svg height="32" viewBox="0 0 32 32" width="32" xmlns="http://www.w3.org/2000/svg"><path d="m16.898 4.348 11.987 10.655c.55.489.6 1.332.111 1.882s-1.332.6-1.882.111l-11.114-9.879-11.114 9.879c-.55.489-1.393.44-1.882-.111s-.44-1.393.111-1.882l11.987-10.655c.098-.09.207-.162.322-.217.182-.087.38-.131.576-.131.324 0 .646.117.898.348z"/><path d="m6.667 17.198v6.802c0 2.209 1.791 4 4 4h10.667c2.209 0 4-1.791 4-4v-6.803l-2.667-2.37v9.173c0 .736-.597 1.333-1.333 1.333h-10.667c-.736 0-1.333-.597-1.333-1.333v-9.173l-2.667 2.37z"/></svg>