<svg height="32" viewBox="0 0 32 32" width="32" xmlns="http://www.w3.org/2000/svg"><path d="m26.667 25.333c.736 0 1.333.597 1.333 1.333s-.597 1.333-1.333 1.333h-21.333c-.736 0-1.333-.597-1.333-1.333s.597-1.333 1.333-1.333zm0-1.333v-9.333c0-2.209-1.791-4-4-4h-1.333v-2.667c0-2.209-1.791-4-4-4h-8c-2.209 0-4 1.791-4 4v16h2.667v-16c0-.8.533-1.333 1.333-1.333h8c.8 0 1.333.533 1.333 1.333v16h2.667v-10.667h1.333c.8 0 1.333.533 1.333 1.333v9.333h2.667z"/><path d="m9.333 10.667c0-.8.533-1.333 1.333-1.333h5.333c.736 0 1.333.597 1.333 1.333s-.597 1.333-1.333 1.333h-5.333c-.736 0-1.333-.597-1.333-1.333zm1.334 2.666c-.736 0-1.333.597-1.333 1.333s.597 1.333 1.333 1.333h5.333c.736 0 1.333-.597 1.333-1.333s-.597-1.333-1.333-1.333zm0 4c-.736 0-1.333.597-1.333 1.333s.597 1.333 1.333 1.333h5.333c.736 0 1.333-.597 1.333-1.333s-.597-1.333-1.333-1.333z"/></svg>