<svg height="32" viewBox="0 0 32 32" width="32" xmlns="http://www.w3.org/2000/svg"><path d="m27.928 15.141c.024-.008.048-.016.072-.025v3.55c0 .736.597 1.333 1.333 1.333s1.333-.597 1.333-1.333v-6.667c0-.079-.007-.157-.02-.232.169-1.709-.729-3.517-2.699-4.182l-9.375-3.164c-1.668-.563-3.476-.563-5.145 0l-9.375 3.164c-3.635 1.227-3.622 6.348.02 7.555l9.395 3.116c.724.24 1.473.375 2.226.403.957.037 1.919-.098 2.84-.403l9.395-3.116zm-10.208-8.192 9.375 3.164c1.209.408 1.205 2.096-.007 2.498l-9.395 3.116c-1.099.365-2.288.365-3.387 0l-9.395-3.116c-1.212-.402-1.216-2.09-.007-2.498l9.376-3.164c1.115-.376 2.324-.376 3.439 0z"/><path d="m5.333 21.787v-4.823l2.667.885v3.939c0 .536.326 1.018.824 1.217l2.449.98 2.952 1.042c1.149.405 2.401.405 3.55 0l2.952-1.042 2.449-.98c.497-.199.824-.681.824-1.217v-3.938l2.667-.885v4.823c0 1.626-.99 3.089-2.5 3.693l-2.5 1-3.004 1.06c-1.723.608-3.602.608-5.325 0l-3.004-1.06-2.5-1c-1.51-.604-2.5-2.066-2.5-3.693z"/></svg>