<svg height="32" viewBox="0 0 32 32" width="32" xmlns="http://www.w3.org/2000/svg"><path d="m17.333 6.667c2.946 0 5.611 1.193 7.542 3.124.521.521 1.365.521 1.886 0s.521-1.365 0-1.886c-2.411-2.411-5.746-3.905-9.428-3.905s-7.017 1.494-9.428 3.905-3.905 5.747-3.905 9.428v.781l-.39-.39c-.521-.521-1.365-.521-1.886 0s-.521 1.365 0 1.886l2.667 2.667c.521.521 1.365.521 1.886 0l2.667-2.667c.521-.521.521-1.365 0-1.886s-1.365-.521-1.886 0l-.391.391v-.781c0-2.946 1.192-5.611 3.124-7.542s4.597-3.124 7.543-3.124z"/><path d="m28 16v8c0 2.209-1.791 4-4 4h-8c-2.209 0-4-1.791-4-4v-8c0-2.209 1.791-4 4-4h8c2.209 0 4 1.791 4 4zm-4-1.333h-8c-.736 0-1.333.597-1.333 1.333v8c0 .736.597 1.333 1.333 1.333h8c.736 0 1.333-.597 1.333-1.333v-8c0-.736-.597-1.333-1.333-1.333z"/></svg>