<svg height="32" viewBox="0 0 32 32" width="32" xmlns="http://www.w3.org/2000/svg"><path d="m17.933 3.918c-.789-1.669-3.076-1.669-3.865 0l-2.281 4.824c-.417.883-1.226 1.495-2.162 1.637l-5.112.775c-1.764.268-2.47 2.521-1.195 3.818l3.711 3.776c.674.686.981 1.671.822 2.638l-.875 5.324c-.301 1.831 1.548 3.225 3.128 2.358l4.557-2.501c.839-.46 1.842-.46 2.68 0l4.557 2.501c1.579.867 3.429-.527 3.128-2.358l-.875-5.324c-.159-.966.149-1.952.822-2.638l3.711-3.776c1.274-1.297.569-3.55-1.195-3.818l-5.112-.775c-.936-.142-1.745-.754-2.162-1.637l-2.281-4.824z"/></svg>