<svg height="32" viewBox="0 0 32 32" width="32" xmlns="http://www.w3.org/2000/svg"><path d="m16 6.069 1.803 3.813c.783 1.655 2.327 2.854 4.173 3.134l4.257.646-3.162 3.218c-1.283 1.306-1.845 3.152-1.552 4.939l.722 4.397-3.618-1.986c-1.638-.899-3.608-.899-5.246 0l-3.618 1.986.722-4.397c.294-1.787-.268-3.634-1.552-4.939l-3.162-3.218 4.257-.646c1.846-.28 3.391-1.479 4.173-3.134zm1.933-2.151c-.789-1.669-3.076-1.669-3.865 0l-2.281 4.824c-.417.883-1.226 1.495-2.162 1.637l-5.112.775c-1.764.268-2.47 2.521-1.195 3.818l3.711 3.776c.674.686.981 1.671.822 2.638l-.875 5.324c-.301 1.831 1.548 3.225 3.128 2.358l4.557-2.501c.839-.46 1.842-.46 2.68 0l4.557 2.501c1.579.867 3.429-.527 3.128-2.358l-.875-5.324c-.159-.966.149-1.952.822-2.638l3.711-3.776c1.274-1.297.569-3.55-1.195-3.818l-5.112-.775c-.936-.142-1.745-.754-2.162-1.637l-2.281-4.824z"/></svg>