<svg height="32" viewBox="0 0 32 32" width="32" xmlns="http://www.w3.org/2000/svg"><path d="m8.6 11.027 4-6.453c2.12-3.427 7.4-1.907 7.4 2.107v2.653c0 .736.597 1.333 1.333 1.333h3.561c2.45.011 4.432 2.001 4.432 4.453 0 .616-.125 1.202-.34 1.707l-2.64 6.267-.02.052c-1.223 2.851-4.056 4.849-7.355 4.849-.347 0-.689-.022-.985-.061l-6.5-.815c-1.967-.252-3.487-1.932-3.487-3.967 0-.001 0-.003 0-.004v-10.013c0-.78.223-1.508.6-2.107zm6.267-5.067-4 6.467c-.126.2-.2.442-.2.702v.005 10.013.01c0 .68.509 1.241 1.167 1.323l.007.001 6.48.8c.199.026.429.041.662.041 2.195 0 4.08-1.326 4.898-3.22l.013-.035 2.64-6.267c.089-.205.14-.443.14-.693 0-.984-.796-1.783-1.78-1.787h-3.56c-2.209 0-4-1.791-4-4v-2.64c0-1.36-1.76-1.84-2.467-.707z"/><path d="m7.973 26.64c-.811-.93-1.306-2.154-1.307-3.493v-10c0-.4.04-.8.133-1.173h-1.467c-1.473 0-2.667 1.194-2.667 2.667v9.333c0 1.467 1.2 2.667 2.667 2.667h2.64z"/></svg>