<svg height="32" viewBox="0 0 32 32" width="32" xmlns="http://www.w3.org/2000/svg"><path d="m12 4c0-.736.597-1.333 1.333-1.333h5.333c.736 0 1.333.597 1.333 1.333s-.597 1.333-1.333 1.333h-5.333c-.736 0-1.333-.597-1.333-1.333z"/><path d="m16 12c-.736 0-1.333.597-1.333 1.333v4c0 .736.597 1.333 1.333 1.333s1.333-.597 1.333-1.333v-4c0-.736-.597-1.333-1.333-1.333z"/><path d="m26.667 17.333c0-5.891-4.776-10.667-10.667-10.667-2.122 0-4.099.62-5.76 1.688l-1.297-1.297c-.521-.521-1.365-.521-1.886 0s-.521 1.365 0 1.886l1.129 1.129c-1.77 1.904-2.853 4.456-2.853 7.261 0 5.891 4.776 10.667 10.667 10.667s10.667-4.776 10.667-10.667zm-2.667 0c0 4.418-3.582 8-8 8s-8-3.582-8-8 3.582-8 8-8 8 3.582 8 8z"/></svg>