<svg height="32" viewBox="0 0 32 32" width="32" xmlns="http://www.w3.org/2000/svg"><path d="m15.609 4.943c.521-.521.521-1.365 0-1.886s-1.365-.521-1.886 0l-2.667 2.667c-.128.128-.224.275-.289.432s-.101.33-.101.51.036.353.101.51.162.305.289.432l2.667 2.667c.521.521 1.365.521 1.886 0s.521-1.365 0-1.886l-.391-.391h.781c1.051 0 2.091.207 3.061.609.557.231 1.085.523 1.573.87l-11.155 11.155c-.348-.489-.64-1.017-.871-1.574-.402-.971-.609-2.011-.609-3.061s.207-2.091.609-3.061c.282-.68-.041-1.46-.722-1.742s-1.46.041-1.742.722c-.536 1.294-.812 2.681-.812 4.082s.276 2.788.812 4.082c.365.881.846 1.708 1.429 2.459l-3.183 3.183c-.521.521-.521 1.365 0 1.886s1.365.521 1.886 0l21.333-21.333c.521-.521.521-1.365 0-1.886s-1.365-.521-1.886 0l-3.183 3.183c-.751-.583-1.577-1.063-2.459-1.429-1.294-.536-2.681-.812-4.082-.812h-.781l.391-.391z"/><path d="m25.189 10.583-1.97 1.97c.061.127.118.256.172.386.402.971.609 2.011.609 3.061s-.207 2.091-.609 3.061c-.282.68.041 1.46.722 1.742s1.46-.041 1.742-.722c.536-1.294.812-2.681.812-4.082s-.276-2.788-.812-4.082c-.191-.461-.414-.907-.666-1.335z"/><path d="m12.552 23.219-1.97 1.97c.428.252.874.475 1.335.666 1.294.536 2.681.812 4.082.812h.781l-.391.391c-.521.521-.521 1.365 0 1.886s1.365.521 1.886 0l2.667-2.667c.155-.155.265-.34.327-.536.037-.116.059-.239.063-.366 0-.014.001-.028.001-.042v-.004c-.001-.375-.157-.713-.406-.955l-2.651-2.651c-.521-.521-1.365-.521-1.886 0s-.521 1.365 0 1.886l.39.39h-.781c-1.051 0-2.091-.207-3.061-.609-.13-.054-.259-.111-.386-.172z"/></svg>