<svg height="32" viewBox="0 0 32 32" width="32" xmlns="http://www.w3.org/2000/svg"><path d="m6.953 23.162-2.562 2.562c-.521.521-.521 1.365 0 1.886s1.365.521 1.886 0l21.333-21.333c.521-.521.521-1.365 0-1.886s-1.365-.521-1.886 0l-2.853 2.853c-2.007-1.158-4.357-1.91-6.869-1.911h-.001c-7.361.001-13.333 6.455-13.333 10.667 0 2.149 1.665 4.964 4.286 7.162zm5.437-5.437-3.543 3.543c-.156-.126-.308-.255-.457-.387-2.176-1.928-3.056-3.927-3.056-4.88 0-1.026.876-3.026 3.009-4.918 2.031-1.801 4.757-3.082 7.657-3.082h.001c1.733 0 3.404.458 4.902 1.211l-3.179 3.179c-.522-.25-1.107-.39-1.725-.39-2.209 0-4 1.791-4 4 0 .617.14 1.202.39 1.725z"/><path d="m26.075 9.696-1.885 1.885c1.748 1.736 2.477 3.482 2.477 4.418 0 .953-.88 2.952-3.057 4.88-2.065 1.83-4.794 3.12-7.61 3.12-1.22 0-2.423-.242-3.564-.665l-2.036 2.036c1.713.802 3.613 1.296 5.599 1.296 7.231 0 13.333-6.552 13.333-10.667 0-1.91-1.229-4.282-3.259-6.304z"/></svg>