<svg height="32" viewBox="0 0 32 32" width="32" xmlns="http://www.w3.org/2000/svg"><path d="m27.609 6.276c.521-.521.521-1.365 0-1.886s-1.365-.521-1.886 0l-1.343 1.343c-.747-.259-1.548-.4-2.381-.4-1.512 0-2.917.463-4.084 1.257-.748.508-1.398 1.152-1.916 1.897-.518-.745-1.168-1.389-1.916-1.897-1.167-.794-2.572-1.257-4.084-1.257-4.05 0-7.333 3.324-7.333 7.423 0 4.046 1.997 7.417 4.66 10.031l-2.936 2.936c-.521.521-.521 1.365 0 1.886s1.365.521 1.886 0zm-5.609 1.724c.038 0 .075 0 .113.001l-12.903 12.903c-2.289-2.247-3.877-5.013-3.877-8.148 0-2.658 2.12-4.757 4.667-4.757 1.562 0 2.956.781 3.811 2.01.499.717 1.316 1.144 2.189 1.144s1.691-.427 2.189-1.144c.855-1.229 2.249-2.01 3.811-2.01z"/><path d="m27.693 8.078-1.903 1.903c.55.777.876 1.734.876 2.776 0 5.26-4.472 9.485-9.229 11.955-.391.203-.776.39-1.151.56-.184.083-.39.083-.573 0-.375-.17-.76-.357-1.151-.56-.749-.389-1.49-.821-2.209-1.294l-1.919 1.919c.962.664 1.944 1.246 2.899 1.742.433.225.861.432 1.28.622.883.4 1.891.4 2.774 0 .419-.19.847-.397 1.28-.622 4.981-2.586 10.667-7.494 10.667-14.322 0-1.774-.615-3.402-1.64-4.679z"/></svg>