<svg height="32" viewBox="0 0 32 32" width="32" xmlns="http://www.w3.org/2000/svg"><path d="m10.667 12h-5.333c-.736 0-1.333-.597-1.333-1.333s.597-1.333 1.333-1.333h4v-4c0-.736.597-1.333 1.333-1.333s1.333.597 1.333 1.333v5.333c0 .736-.597 1.333-1.333 1.333z"/><path d="m21.333 12c-.736 0-1.333-.597-1.333-1.333v-5.333c0-.736.597-1.333 1.333-1.333s1.333.597 1.333 1.333v4h4c.736 0 1.333.597 1.333 1.333s-.597 1.333-1.333 1.333z"/><path d="m20 21.333c0-.736.597-1.333 1.333-1.333h5.333c.736 0 1.333.597 1.333 1.333s-.597 1.333-1.333 1.333h-4v4c0 .736-.597 1.333-1.333 1.333s-1.333-.597-1.333-1.333z"/><path d="m10.803 20.007c.672.068 1.197.636 1.197 1.326v5.333c0 .736-.597 1.333-1.333 1.333s-1.333-.597-1.333-1.333v-4h-4c-.736 0-1.333-.597-1.333-1.333s.597-1.333 1.333-1.333h5.333c.046 0 .091.002.136.007z"/></svg>