<svg height="32" viewBox="0 0 32 32" width="32" xmlns="http://www.w3.org/2000/svg"><path d="m5.333 4c-.736 0-1.333.597-1.333 1.333v5.333c0 .736.597 1.333 1.333 1.333s1.333-.597 1.333-1.333v-4h4c.736 0 1.333-.597 1.333-1.333s-.597-1.333-1.333-1.333z"/><path d="m26.667 4c.736 0 1.333.597 1.333 1.333v5.333c0 .736-.597 1.333-1.333 1.333s-1.333-.597-1.333-1.333v-4h-4c-.736 0-1.333-.597-1.333-1.333s.597-1.333 1.333-1.333z"/><path d="m28 26.667c0 .736-.597 1.333-1.333 1.333h-5.333c-.736 0-1.333-.597-1.333-1.333s.597-1.333 1.333-1.333h4v-4c0-.736.597-1.333 1.333-1.333s1.333.597 1.333 1.333z"/><path d="m5.197 27.993c-.672-.068-1.197-.636-1.197-1.326v-5.333c0-.736.597-1.333 1.333-1.333s1.333.597 1.333 1.333v4h4c.736 0 1.333.597 1.333 1.333s-.597 1.333-1.333 1.333h-5.333c-.046 0-.091-.002-.136-.007z"/></svg>