<svg height="32" viewBox="0 0 32 32" width="32" xmlns="http://www.w3.org/2000/svg"><path d="m12 4c0-.736.597-1.333 1.333-1.333h5.333c.736 0 1.333.597 1.333 1.333s-.597 1.333-1.333 1.333h-5.333c-.736 0-1.333-.597-1.333-1.333z"/><path d="m7.057 8.943 1.129 1.129c-1.77 1.904-2.853 4.456-2.853 7.261 0 2.465.836 4.735 2.24 6.541l-3.183 3.183c-.521.521-.521 1.365 0 1.886s1.365.521 1.886 0l21.333-21.333c.521-.521.521-1.365 0-1.886s-1.365-.521-1.886 0l-3.183 3.183c-1.806-1.404-4.076-2.24-6.541-2.24-2.122 0-4.099.62-5.76 1.687l-1.297-1.297c-.521-.521-1.365-.521-1.886 0s-.521 1.365 0 1.886zm13.578 1.869-3.302 3.302v-.781c0-.736-.597-1.333-1.333-1.333s-1.333.597-1.333 1.333v3.448l-5.188 5.188c-.931-1.308-1.479-2.908-1.479-4.635 0-4.418 3.582-8 8-8 1.728 0 3.328.548 4.635 1.479z"/><path d="m10.581 26.523c1.588.938 3.441 1.477 5.419 1.477 5.891 0 10.667-4.776 10.667-10.667 0-1.978-.539-3.831-1.477-5.419l-1.969 1.969c.5 1.044.78 2.214.78 3.449 0 4.418-3.582 8-8 8-1.235 0-2.405-.28-3.449-.78l-1.969 1.969z"/></svg>