<svg height="32" viewBox="0 0 32 32" width="32" xmlns="http://www.w3.org/2000/svg"><path d="m6.576 12.312c-2.549-1.159-3.145-4.506-1.171-6.481.975-.975 2.387-1.382 3.733-1.072l8.573 1.978-2.226 2.226-6.948-1.603c-.447-.103-.919.032-1.245.358-.662.662-.457 1.779.388 2.163l4.735 2.152-2.016 2.016-3.824-1.738z"/><path d="m10.733 15.604 11.764-11.764c1.564-1.564 4.099-1.564 5.663 0s1.564 4.099 0 5.663l-11.765 11.764.734 3.668c.131.656-.074 1.335-.548 1.808l-2.003 2.003c-.893.893-2.381.746-3.082-.305l-3.176-4.763-4.763-3.176c-1.051-.701-1.199-2.188-.305-3.082l2.003-2.003c.473-.473 1.152-.679 1.808-.548l3.668.734zm15.54-7.989c.521-.521.521-1.366 0-1.888s-1.366-.521-1.888 0l-12.017 12.017c-.473.473-1.152.679-1.808.548l-3.668-.734-1.175 1.175 4.197 2.798c.22.147.409.335.555.555l2.798 4.197 1.175-1.175-.734-3.668c-.131-.656.074-1.335.548-1.808z"/><path d="m23.036 16.514 2.226-2.226 1.979 8.573c.311 1.346-.096 2.758-1.072 3.733-1.974 1.974-5.322 1.378-6.481-1.171l-1.738-3.824 2.016-2.016 2.152 4.735c.384.845 1.501 1.05 2.163.388.326-.326.461-.798.358-1.245l-1.603-6.948z"/></svg>