<svg height="32" viewBox="0 0 32 32" width="32" xmlns="http://www.w3.org/2000/svg"><path d="m12 10.667c0-.736.597-1.333 1.333-1.333h4c2.209 0 4 1.791 4 4s-1.791 4-4 4h-2.667v4c0 .736-.597 1.333-1.333 1.333s-1.333-.597-1.333-1.333zm2.667 4h2.667c.736 0 1.333-.597 1.333-1.333s-.597-1.333-1.333-1.333h-2.667v2.667z"/><path d="m16 29.333c-7.364 0-13.333-5.97-13.333-13.333s5.97-13.333 13.333-13.333c7.364 0 13.333 5.97 13.333 13.333s-5.97 13.333-13.333 13.333zm0-2.666c5.891 0 10.667-4.776 10.667-10.667s-4.776-10.667-10.667-10.667-10.667 4.776-10.667 10.667 4.776 10.667 10.667 10.667z"/></svg>