<svg height="32" viewBox="0 0 32 32" width="32" xmlns="http://www.w3.org/2000/svg"><path d="m14 2.667c-1.473 0-2.667 1.194-2.667 2.667h-.503c-2.447 0-4.581 1.666-5.174 4.04l-.729 2.917c.545-.188 1.13-.29 1.739-.29h1.082l.495-1.98c.297-1.187 1.363-2.02 2.587-2.02h10.338c1.224 0 2.29.833 2.587 2.02l.495 1.98h1.082c.609 0 1.194.102 1.739.29l-.729-2.917c-.594-2.374-2.727-4.04-5.174-4.04h-.503c0-1.473-1.194-2.667-2.667-2.667h-4z"/><path d="m22 22.667c1.105 0 2-.895 2-2s-.895-2-2-2-2 .895-2 2 .895 2 2 2z"/><path d="m10 22.667c1.105 0 2-.895 2-2s-.895-2-2-2-2 .895-2 2 .895 2 2 2z"/><path d="m2.667 17.333v5.333c0 1.185.515 2.249 1.333 2.981v2.352c0 .736.597 1.333 1.333 1.333h1.333c.736 0 1.333-.597 1.333-1.333v-1.333h16v1.333c0 .736.597 1.333 1.333 1.333h1.333c.736 0 1.333-.597 1.333-1.333v-2.352c.818-.732 1.333-1.797 1.333-2.981v-5.333c0-1.414-.734-2.657-1.842-3.369-.623-.4-1.363-.631-2.158-.631h-18.667c-.795 0-1.535.232-2.158.631-1.108.711-1.842 1.954-1.842 3.369zm24 5.334c0 .736-.597 1.333-1.333 1.333h-18.667c-.736 0-1.333-.597-1.333-1.333v-5.333c0-.736.597-1.333 1.333-1.333h18.667c.736 0 1.333.597 1.333 1.333z"/></svg>