<svg height="32" viewBox="0 0 32 32" width="32" xmlns="http://www.w3.org/2000/svg"><path d="m27.613 7.613c.286-.246.466-.608.466-1.013 0-.736-.597-1.333-1.333-1.333-.404 0-.767.18-1.011.464l-.001.002-1.28 1.28c-2.287-1.899-5.253-3.051-8.488-3.051-7.364 0-13.333 5.97-13.333 13.333 0 3.7 1.507 7.048 3.941 9.463l.001.001c.246.286.608.466 1.013.466.736 0 1.333-.597 1.333-1.333 0-.404-.18-.767-.464-1.011l-.002-.001c-1.903-1.926-3.078-4.573-3.078-7.496 0-5.891 4.776-10.667 10.667-10.667 2.454 0 4.714.828 6.516 2.221l-.025-.018-4.813 4.813c-.501-.242-1.089-.384-1.71-.384-2.209 0-4 1.791-4 4s1.791 4 4 4 4-1.791 4-4c0-.631-.146-1.228-.407-1.759l.01.024 8-8zm-11.613 11.054c-.733 0-1.333-.6-1.333-1.333s.6-1.333 1.333-1.333 1.333.6 1.333 1.333-.6 1.333-1.333 1.333zm11.12-8.694-1.933 1.933c.927 1.549 1.475 3.417 1.475 5.413 0 2.948-1.196 5.616-3.129 7.547-.286.246-.466.608-.466 1.013 0 .736.597 1.333 1.333 1.333.404 0 .767-.18 1.011-.464l.001-.002c2.422-2.408 3.921-5.743 3.921-9.427 0-2.737-.827-5.28-2.244-7.394l.03.048z"/></svg>