<svg height="32" viewBox="0 0 32 32" width="32" xmlns="http://www.w3.org/2000/svg"><path d="m5.333 6.667v17.333h2.667v-8h8v8h2.667v-4.667l8.8-6.267c.533-.4.667-1.333.267-1.867-.246-.325-.632-.533-1.067-.533-.302 0-.58.1-.803.269l.003-.002-7.2 5.067v-9.333c.8 0 1.333-.667 1.333-1.333 0-.8-.667-1.333-1.333-1.333h-13.333c-.736 0-1.333.597-1.333 1.333 0 .667.667 1.333 1.333 1.333zm8 0h2.667v6.667h-2.667zm-5.333 0h2.667v6.667h-2.667zm18.667 18.666h-21.333c-.736 0-1.333.597-1.333 1.333 0 .8.667 1.333 1.333 1.333h21.333c.8 0 1.333-.667 1.333-1.333 0-.8-.533-1.333-1.333-1.333z"/></svg>