<svg height="32" viewBox="0 0 32 32" width="32" xmlns="http://www.w3.org/2000/svg"><path d="m15.806 2.76c.051-.062.123-.093.194-.093s.143.031.194.093c.067.082.149.176.241.281.588.676 1.565 1.798 1.565 2.908 0 1.133-.895 2.051-2 2.051s-2-.918-2-2.051c0-1.11.977-2.232 1.565-2.908.091-.105.173-.199.241-.281z"/><path d="m10 22c-1.105 0-2-.895-2-2s.895-2 2-2 2 .895 2 2-.895 2-2 2z"/><path d="m22 22c1.105 0 2-.895 2-2s-.895-2-2-2-2 .895-2 2 .895 2 2 2z"/><path d="m8 26.667h16v1.333c0 .736.597 1.333 1.333 1.333h1.333c.736 0 1.333-.597 1.333-1.333v-2.352c.818-.732 1.333-1.797 1.333-2.981v-5.333c0-1.414-.734-2.657-1.842-3.369l-1.148-4.592c-.216-.863-.635-1.633-1.199-2.263-.312.882-.984 1.594-1.84 1.958.208.277.364.599.452.951l.828 3.313h-17.169l.828-3.313c.088-.353.244-.674.452-.951-.856-.364-1.528-1.076-1.84-1.958-.564.63-.984 1.4-1.199 2.263l-1.148 4.592c-1.108.711-1.842 1.954-1.842 3.369v5.333c0 1.185.515 2.249 1.333 2.981v2.352c0 .736.597 1.333 1.333 1.333h1.333c.736 0 1.333-.597 1.333-1.333v-1.333zm-1.333-10.667h18.667c.736 0 1.333.597 1.333 1.333v5.333c0 .736-.597 1.333-1.333 1.333h-18.667c-.736 0-1.333-.597-1.333-1.333v-5.333c0-.736.597-1.333 1.333-1.333z"/><path d="m8 5.949c0 1.132.894 2.05 1.997 2.051h.004c1.104-.001 1.999-.919 1.999-2.051 0-1.11-.977-2.232-1.565-2.908-.091-.105-.173-.199-.241-.281-.103-.124-.285-.124-.388 0-.068.082-.149.176-.241.281-.588.676-1.565 1.798-1.565 2.908z"/><path d="m24 5.949c0 1.132-.894 2.05-1.997 2.051h-.004c-1.104-.001-1.999-.919-1.999-2.051 0-1.11.977-2.232 1.565-2.908.091-.105.173-.199.241-.281.103-.124.285-.124.388 0 .067.082.149.176.241.281.588.676 1.565 1.798 1.565 2.908z"/></svg>