<svg height="32" viewBox="0 0 32 32" width="32" xmlns="http://www.w3.org/2000/svg"><path d="m20.667 22.667c1.105 0 2-.895 2-2s-.895-2-2-2-2 .895-2 2 .895 2 2 2z"/><path d="m13.333 20.667c0 1.105-.895 2-2 2s-2-.895-2-2 .895-2 2-2 2 .895 2 2z"/><path d="m8 8v8c0 .736.597 1.333 1.333 1.333h13.333c.736 0 1.333-.597 1.333-1.333v-8c0-.736-.597-1.333-1.333-1.333h-13.333c-.736 0-1.333.597-1.333 1.333zm2.667 6.667v-5.333h10.667v5.333z"/><path d="m4 8c0-2.946 2.388-5.333 5.333-5.333h13.333c2.945 0 5.333 2.388 5.333 5.333.736 0 1.333.597 1.333 1.333v4c0 .736-.597 1.333-1.333 1.333v8c0 1.742-1.113 3.223-2.667 3.772v1.561c0 .736-.597 1.333-1.333 1.333h-1.333c-.736 0-1.333-.597-1.333-1.333v-1.333h-10.667v1.333c0 .736-.597 1.333-1.333 1.333h-1.333c-.736 0-1.333-.597-1.333-1.333v-1.561c-1.554-.549-2.667-2.031-2.667-3.772v-8c-.736 0-1.333-.597-1.333-1.333v-4c0-.736.597-1.333 1.333-1.333zm18.667-2.667h-13.333c-1.473 0-2.667 1.194-2.667 2.667v14.667c0 .736.597 1.333 1.333 1.333h16c.736 0 1.333-.597 1.333-1.333v-14.667c0-1.473-1.194-2.667-2.667-2.667z"/></svg>