<svg height="32" viewBox="0 0 32 32" width="32" xmlns="http://www.w3.org/2000/svg"><path d="m20.667 22.667c1.105 0 2-.895 2-2s-.895-2-2-2-2 .895-2 2 .895 2 2 2z"/><path d="m13.333 20.667c0 1.105-.895 2-2 2s-2-.895-2-2 .895-2 2-2 2 .895 2 2z"/><path d="m23.219 26.667 1.724 1.724c.521.521.521 1.365 0 1.886s-1.365.521-1.886 0l-3.609-3.609h-6.895l-3.609 3.609c-.521.521-1.365.521-1.886 0s-.521-1.365 0-1.886l1.724-1.724h-.781c-2.209 0-4-1.791-4-4v-14.667c0-2.946 2.388-5.333 5.333-5.333h13.333c2.945 0 5.333 2.388 5.333 5.333v14.667c0 2.209-1.791 4-4 4zm-13.886-21.334c-.987 0-1.849.536-2.31 1.333h17.953c-.461-.797-1.323-1.333-2.31-1.333zm5.334 4h-8v5.333h8zm-8 8v5.333c0 .736.597 1.333 1.333 1.333h16c.736 0 1.333-.597 1.333-1.333v-5.333h-18.667zm10.666-2.666h8v-5.333h-8z"/></svg>