<svg height="32" viewBox="0 0 32 32" width="32" xmlns="http://www.w3.org/2000/svg"><path d="m12 24c0 2.209-1.791 4-4 4s-4-1.791-4-4c0-.076.002-.151.006-.225-1.557-.547-2.673-2.031-2.673-3.775v-12c0-2.209 1.791-4 4-4h12c2.209 0 4 1.791 4 4v1.333h3.566c1.787 0 3.353 1.207 3.824 2.948l1.802 6.667c.688 2.545-1.21 5.053-3.824 5.053h-.034c0 2.209-1.791 4-4 4s-4-1.791-4-4h-6.667zm-5.333 0c0 .736.597 1.333 1.333 1.333s1.333-.597 1.333-1.333-.597-1.333-1.333-1.333-1.333.597-1.333 1.333zm4.314-2.667h7.685v-13.333c0-.736-.597-1.333-1.333-1.333h-12c-.736 0-1.333.597-1.333 1.333v12c0 .638.448 1.171 1.046 1.302.731-.8 1.784-1.302 2.954-1.302 1.185 0 2.249.515 2.981 1.333zm11.686-1.333c1.185 0 2.249.515 2.981 1.333h1.053c.825 0 1.487-.809 1.249-1.69l-.264-.977h-6.353v1.561c.417-.147.866-.228 1.333-.228zm0 5.333c.736 0 1.333-.597 1.333-1.333s-.597-1.333-1.333-1.333-1.333.597-1.333 1.333.597 1.333 1.333 1.333zm4.299-9.333-.817-3.023c-.16-.591-.682-.977-1.249-.977h-3.566v4h5.633z"/></svg>