<svg height="32" viewBox="0 0 32 32" width="32" xmlns="http://www.w3.org/2000/svg"><path d="m10.667 17.333c-1.473 0-2.667 1.194-2.667 2.667 0 .736.597 1.333 1.333 1.333h5.333c.736 0 1.333-.597 1.333-1.333 0-1.473-1.194-2.667-2.667-2.667h-2.667z"/><path d="m17.333 12c0-.736.597-1.333 1.333-1.333h4c.736 0 1.333.597 1.333 1.333s-.597 1.333-1.333 1.333h-4c-.736 0-1.333-.597-1.333-1.333z"/><path d="m18.667 14.667c-.736 0-1.333.597-1.333 1.333s.597 1.333 1.333 1.333h4c.736 0 1.333-.597 1.333-1.333s-.597-1.333-1.333-1.333z"/><path d="m17.333 20c0-.736.597-1.333 1.333-1.333h4c.736 0 1.333.597 1.333 1.333s-.597 1.333-1.333 1.333h-4c-.736 0-1.333-.597-1.333-1.333z"/><path d="m12 16c1.473 0 2.667-1.194 2.667-2.667s-1.194-2.667-2.667-2.667-2.667 1.194-2.667 2.667 1.194 2.667 2.667 2.667z"/><path d="m2.667 9.333v13.333c0 2.209 1.791 4 4 4h18.667c2.209 0 4-1.791 4-4v-13.333c0-2.209-1.791-4-4-4h-18.667c-2.209 0-4 1.791-4 4zm4-1.333h18.667c.736 0 1.333.597 1.333 1.333v13.333c0 .736-.597 1.333-1.333 1.333h-18.667c-.736 0-1.333-.597-1.333-1.333v-13.333c0-.736.597-1.333 1.333-1.333z"/></svg>