<svg height="32" viewBox="0 0 32 32" width="32" xmlns="http://www.w3.org/2000/svg"><path d="m22.667 9.333c0-3.682-2.985-6.667-6.667-6.667s-6.667 2.985-6.667 6.667 2.985 6.667 6.667 6.667 6.667-2.985 6.667-6.667zm-2.667 0c0 2.209-1.791 4-4 4s-4-1.791-4-4 1.791-4 4-4 4 1.791 4 4z"/><path d="m5.333 25.333c0 2.209 1.791 4 4 4h13.333c2.209 0 4-1.791 4-4 0-4.418-3.582-8-8-8h-5.333c-4.418 0-8 3.582-8 8zm2.667 0c0-2.945 2.388-5.333 5.333-5.333h5.333c2.945 0 5.333 2.388 5.333 5.333 0 .736-.597 1.333-1.333 1.333h-13.333c-.736 0-1.333-.597-1.333-1.333z"/></svg>