<svg height="32" viewBox="0 0 32 32" width="32" xmlns="http://www.w3.org/2000/svg"><path d="m20 10c0-3.314-2.686-6-6-6s-6 2.686-6 6 2.686 6 6 6 6-2.686 6-6zm-2.667 0c0 1.841-1.492 3.333-3.333 3.333s-3.333-1.492-3.333-3.333 1.492-3.333 3.333-3.333 3.333 1.492 3.333 3.333z"/><path d="m4 24.444c0 1.964 1.592 3.556 3.556 3.556h12.889c1.964 0 3.556-1.592 3.556-3.556 0-3.927-3.184-7.111-7.111-7.111h-5.778c-3.927 0-7.111 3.184-7.111 7.111zm2.667 0c0-2.455 1.99-4.444 4.444-4.444h5.778c2.455 0 4.444 1.99 4.444 4.444 0 .491-.398.889-.889.889h-12.889c-.491 0-.889-.398-.889-.889z"/><path d="m25.333 10.667c.736 0 1.333.597 1.333 1.333v1.333h1.333c.736 0 1.333.597 1.333 1.333s-.597 1.333-1.333 1.333h-1.333v1.333c0 .736-.597 1.333-1.333 1.333s-1.333-.597-1.333-1.333v-1.333h-1.333c-.736 0-1.333-.597-1.333-1.333s.597-1.333 1.333-1.333h1.333v-1.333c0-.736.597-1.333 1.333-1.333z"/></svg>