<svg height="32" viewBox="0 0 32 32" width="32" xmlns="http://www.w3.org/2000/svg"><path d="m15.333 16c-3.314 0-6-2.686-6-6s2.686-6 6-6 6 2.686 6 6-2.686 6-6 6zm0-2.667c1.841 0 3.333-1.492 3.333-3.333s-1.492-3.333-3.333-3.333-3.333 1.492-3.333 3.333 1.492 3.333 3.333 3.333z"/><path d="m12.444 17.333h5.778c3.927 0 7.111 3.184 7.111 7.111 0 1.964-1.592 3.556-3.556 3.556h-12.889c-1.964 0-3.556-1.592-3.556-3.556 0-3.927 3.184-7.111 7.111-7.111zm0 2.667c-2.455 0-4.444 1.99-4.444 4.444 0 .491.398.889.889.889h12.889c.491 0 .889-.398.889-.889 0-2.455-1.99-4.444-4.444-4.444h-5.778z"/><path d="m24 13.333c-.736 0-1.333.597-1.333 1.333s.597 1.333 1.333 1.333h4c.736 0 1.333-.597 1.333-1.333s-.597-1.333-1.333-1.333z"/></svg>