<svg height="32" viewBox="0 0 32 32" width="32" xmlns="http://www.w3.org/2000/svg"><path d="m14 16c3.32 0 6-2.68 6-6s-2.68-6-6-6-6 2.68-6 6 2.68 6 6 6zm0-9.333c1.841 0 3.333 1.492 3.333 3.333s-1.492 3.333-3.333 3.333c-1.841 0-3.333-1.492-3.333-3.333s1.492-3.333 3.333-3.333zm-6.44 18.666c-.493 0-.893-.4-.893-.893 0-2.453 1.987-4.44 4.44-4.44h3.787c.333-.933.987-1.693 1.84-2.173.027-.173.067-.333.107-.493h-5.733c-3.92 0-7.107 3.187-7.107 7.107 0 1.973 1.587 3.56 3.56 3.56h8.133c-.64-.707-1.027-1.64-1.027-2.667h-7.107z"/><path d="m26 18.747v-.08c0-2.213-1.787-4-4-4s-4 1.787-4 4v.08c-1.147.293-2 1.347-2 2.587v4c0 1.467 1.2 2.667 2.667 2.667h6.667c1.467 0 2.667-1.2 2.667-2.667v-4c0-1.24-.853-2.293-2-2.587zm-4-1.414c.733 0 1.333.6 1.333 1.333h-2.667c0-.733.6-1.333 1.333-1.333zm3.333 7.334c0 .373-.293.667-.667.667h-5.333c-.373 0-.667-.293-.667-.667v-2.667c0-.373.293-.667.667-.667h5.333c.373 0 .667.293.667.667z"/></svg>