<svg height="32" viewBox="0 0 32 32" width="32" xmlns="http://www.w3.org/2000/svg"><path d="m12.667 16c-3.314 0-6-2.686-6-6s2.686-6 6-6 6 2.686 6 6-2.686 6-6 6zm0-2.667c1.841 0 3.333-1.492 3.333-3.333s-1.492-3.333-3.333-3.333-3.333 1.492-3.333 3.333 1.492 3.333 3.333 3.333z"/><path d="m9.778 17.333h5.778c3.927 0 7.111 3.184 7.111 7.111 0 1.964-1.592 3.556-3.556 3.556h-12.889c-1.964 0-3.556-1.592-3.556-3.556 0-3.927 3.184-7.111 7.111-7.111zm0 2.667c-2.455 0-4.444 1.99-4.444 4.444 0 .491.398.889.889.889h12.889c.491 0 .889-.398.889-.889 0-2.455-1.99-4.444-4.444-4.444h-5.778z"/><path d="m20 10c0-1.412-.399-2.73-1.09-3.849.672-.513 1.512-.818 2.423-.818 2.209 0 4 1.791 4 4s-1.791 4-4 4c-.691 0-1.341-.175-1.908-.483.37-.876.574-1.839.574-2.85z"/><path d="m16.76 16.085c.533-.359 1.016-.787 1.437-1.27.437-.097.891-.149 1.358-.149h3.555c3.437 0 6.222 2.786 6.222 6.222 0 1.718-1.393 3.111-3.111 3.111h-2.234c-.21-4.053-3.279-7.351-7.228-7.915z"/></svg>