<svg height="32" viewBox="0 0 32 32" width="32" xmlns="http://www.w3.org/2000/svg"><path d="m17.333 2.667c0-.736-.597-1.333-1.333-1.333s-1.333.597-1.333 1.333v1.333c0 .736.597 1.333 1.333 1.333s1.333-.597 1.333-1.333z"/><path d="m25.333 16c0-5.155-4.179-9.333-9.333-9.333s-9.333 4.179-9.333 9.333c0 5.155 4.179 9.333 9.333 9.333s9.333-4.179 9.333-9.333zm-2.666 0c0 3.682-2.985 6.667-6.667 6.667s-6.667-2.985-6.667-6.667 2.985-6.667 6.667-6.667 6.667 2.985 6.667 6.667z"/><path d="m16 26.667c.736 0 1.333.597 1.333 1.333v1.333c0 .736-.597 1.333-1.333 1.333s-1.333-.597-1.333-1.333v-1.333c0-.736.597-1.333 1.333-1.333z"/><path d="m29.333 17.333c.736 0 1.333-.597 1.333-1.333s-.597-1.333-1.333-1.333h-1.333c-.736 0-1.333.597-1.333 1.333s.597 1.333 1.333 1.333z"/><path d="m5.333 16c0 .736-.597 1.333-1.333 1.333h-1.333c-.736 0-1.333-.597-1.333-1.333s.597-1.333 1.333-1.333h1.333c.736 0 1.333.597 1.333 1.333z"/><path d="m5.629 5.629c.521-.521 1.365-.521 1.886 0l.943.943c.521.521.521 1.365 0 1.886s-1.365.521-1.886 0l-.943-.943c-.521-.521-.521-1.365 0-1.886z"/><path d="m25.428 23.543c-.521-.521-1.365-.521-1.886 0s-.521 1.365 0 1.886l.943.943c.521.521 1.365.521 1.886 0s.521-1.365 0-1.886z"/><path d="m26.371 5.629c.521.521.521 1.365 0 1.886l-.943.943c-.521.521-1.365.521-1.886 0s-.521-1.365 0-1.886l.943-.943c.521-.521 1.365-.521 1.886 0z"/><path d="m8.458 25.428c.521-.521.521-1.365 0-1.886s-1.365-.521-1.886 0l-.943.943c-.521.521-.521 1.365 0 1.886s1.365.521 1.886 0z"/></svg>