<svg height="32" viewBox="0 0 32 32" width="32" xmlns="http://www.w3.org/2000/svg"><path d="m8.293 21.313c.05.006.099.012.148.021h1.25c-.408.707-.476 1.576-.154 2.354.045.109.097.213.154.313h-1.691v-.037c-3-.332-5.333-2.875-5.333-5.963 0-2.615 1.673-4.84 4.007-5.661.171-3.898 3.386-7.006 7.326-7.006 2.347 0 4.436 1.102 5.779 2.818.503-.099 1.023-.151 1.555-.151 4.418 0 8 3.582 8 8s-3.582 8-8 8h-.357c.408-.707.476-1.576.154-2.354-.045-.109-.097-.213-.154-.313h.357c2.945 0 5.333-2.388 5.333-5.333s-2.388-5.333-5.333-5.333c-.358 0-.705.035-1.039.101-.985.194-1.996-.182-2.615-.973-.859-1.097-2.186-1.794-3.678-1.794-2.507 0-4.553 1.978-4.662 4.456-.048 1.088-.752 2.037-1.779 2.398-1.3.458-2.226 1.697-2.226 3.146 0 1.714 1.296 3.129 2.96 3.313z"/><path d="m18.276 18.276c.521-.521.521-1.365 0-1.886s-1.365-.521-1.886 0l-5.333 5.333c-.381.381-.495.955-.289 1.453s.693.823 1.232.823h3.448l-3.057 3.057c-.521.521-.521 1.365 0 1.886s1.365.521 1.886 0l5.333-5.333c.381-.381.495-.955.289-1.453s-.693-.823-1.232-.823h-3.448z"/></svg>