<svg height="32" viewBox="0 0 32 32" width="32" xmlns="http://www.w3.org/2000/svg"><path d="m17.333 1.333c.736 0 1.333.597 1.333 1.333v1.333c0 .736-.597 1.333-1.333 1.333s-1.333-.597-1.333-1.333v-1.333c0-.736.597-1.333 1.333-1.333z"/><path d="m23.985 13.783c.01-.149.015-.299.015-.45 0-3.682-2.985-6.667-6.667-6.667-2.835 0-5.258 1.77-6.221 4.266.712-.174 1.456-.266 2.222-.266.329 0 .654.017.974.05.733-.847 1.817-1.384 3.026-1.384 2.209 0 4 1.791 4 4 .929 0 1.822.158 2.652.45z"/><path d="m23.757 15.121c-.751-.293-1.569-.454-2.424-.454-.077 0-.153.001-.229.004-.069.002-.137.006-.205.01-.477.031-.941.112-1.386.238-1.423-1.728-3.556-2.849-5.953-2.915-.075-.002-.151-.003-.226-.003-3.69 0-6.797 2.499-7.72 5.896-1.747.876-2.946 2.683-2.946 4.771 0 2.945 2.388 5.333 5.333 5.333h13.333c3.682 0 6.667-2.985 6.667-6.667 0-2.827-1.759-5.243-4.243-6.212zm-16.949 5.159c.678-.34 1.179-.952 1.378-1.684.616-2.266 2.691-3.929 5.147-3.929 1.658 0 3.138.753 4.12 1.947.673.818 1.767 1.159 2.786.871.345-.098.711-.151 1.094-.151 2.209 0 4 1.791 4 4s-1.791 4-4 4h-13.333c-1.473 0-2.667-1.194-2.667-2.667 0-1.04.595-1.946 1.475-2.387z"/><path d="m8.848 4.848c.521-.521 1.365-.521 1.886 0l.943.943c.521.521.521 1.365 0 1.886s-1.365.521-1.886 0l-.943-.943c-.521-.521-.521-1.365 0-1.886z"/><path d="m29.333 13.333c0 .736-.597 1.333-1.333 1.333h-1.333c-.736 0-1.333-.597-1.333-1.333s.597-1.333 1.333-1.333h1.333c.736 0 1.333.597 1.333 1.333z"/><path d="m25.818 6.734-.943.943c-.521.521-1.365.521-1.886 0s-.521-1.365 0-1.886l.943-.943c.521-.521 1.365-.521 1.886 0s.521 1.365 0 1.886z"/></svg>