<svg xmlns="http://www.w3.org/2000/svg">
<symbol id="bannerBackground" viewBox="0 0 72 128"> 
<path d="M-194.596 -36.7173C-183.699 -41.1912 -172.077 -44.9434 -160.309 -43.7889C-148.541 -42.6343 -136.628 -35.7071 -132.996 -24.5945C-131.398 -19.832 -131.398 -14.7809 -129.8 -10.1627C-125.005 3.69192 -107.717 9.32034 -93.1883 7.15556C-78.66 4.99079 -65.7298 -2.80241 -51.928 -7.85356C-16.9149 -20.6979 17.953 -29.2127 54.1284 5.7124C90.3038 40.6375 77.9547 111.498 -42.7752 170.813C-141.422 219.304 -213.047 223.489 -233.096 172.545C-237.454 161.576 -233.967 149.165 -234.403 137.475C-234.839 125.785 -239.633 112.508 -250.82 108.611C-258.52 105.869 -267.382 108.467 -275.227 106.014C-290.192 101.396 -294.405 81.7682 -290.773 66.7591C-277.697 12.0624 -247.769 -15.0695 -194.596 -36.7173Z"/>
</symbol>
<symbol id="comminapp-illu" viewBox="0 0 25 31"> 
    <path d="M9.21199 8.75516C9.21199 8.75516 5.61209 6.59805 3.66715 8.54299L0.229919 12.4329C-0.229793 12.9562 0.0389616 13.713 0.689631 13.6847C2.81138 13.5928 6.44665 12.1287 6.44665 12.1287C7.96723 12.0014 9.21199 8.75516 9.21199 8.75516Z" fill="#BACDE8"/>
    <path d="M15.245 14.788C15.245 14.788 17.4021 18.3879 15.4572 20.3328L11.5673 23.7701C11.0439 24.2298 10.2872 23.961 10.3155 23.3104C10.4074 21.1886 11.8714 17.5533 11.8714 17.5533C11.9987 16.0328 15.245 14.788 15.245 14.788Z" fill="#BACDE8"/>
    <path d="M10.6407 14.9932L10.6832 13.3099L8.99992 13.3523C6.27701 13.3948 4.04917 15.6721 3.95723 18.395L3.91479 20.0783L5.59805 20.0358C8.32096 19.9439 10.5912 17.7231 10.6407 14.9932Z" fill="#A6BDDD"/>
    <path d="M10.7326 17.8999C18.4982 16.6269 24.2198 9.95042 23.9935 1.68267L23.9511 0.0489203L22.3173 0.00648573C14.0496 -0.219834 7.37315 5.50182 6.1001 13.2674L10.7326 17.8999Z" fill="white"/>
    <path d="M23.2649 7.09312C23.7671 5.40987 24.0358 3.59931 23.9934 1.68973L23.951 0.0559853L22.3172 0.0135507C20.4076 -0.0288843 18.59 0.23987 16.9138 0.742018L23.2649 7.09312Z" fill="#BACDE8"/>
    <path d="M6.10014 13.2674C6.0082 13.7201 5.96577 14.2222 5.91626 14.6749L9.2757 18.0343C9.77784 17.9919 10.2305 17.9423 10.6831 17.8504L6.10014 13.2674Z" fill="#DDE8F8"/>
    <path d="M15.3366 12.1358C17.2662 12.1358 18.8304 10.5716 18.8304 8.64201C18.8304 6.71243 17.2662 5.14819 15.3366 5.14819C13.407 5.14819 11.8428 6.71243 11.8428 8.64201C11.8428 10.5716 13.407 12.1358 15.3366 12.1358Z" fill="#BACDE8"/>
    <path d="M15.3367 11.0962C16.6921 11.0962 17.7909 9.99742 17.7909 8.64202C17.7909 7.28663 16.6921 6.18787 15.3367 6.18787C13.9813 6.18787 12.8826 7.28663 12.8826 8.64202C12.8826 9.99742 13.9813 11.0962 15.3367 11.0962Z" fill="white"/>
</symbol>
</svg>
