<svg xmlns="http://www.w3.org/2000/svg">
<symbol id="bannerBackground" viewBox="0 0 72 128"> 
<path d="M-194.596 -36.7173C-183.699 -41.1912 -172.077 -44.9434 -160.309 -43.7889C-148.541 -42.6343 -136.628 -35.7071 -132.996 -24.5945C-131.398 -19.832 -131.398 -14.7809 -129.8 -10.1627C-125.005 3.69192 -107.717 9.32034 -93.1883 7.15556C-78.66 4.99079 -65.7298 -2.80241 -51.928 -7.85356C-16.9149 -20.6979 17.953 -29.2127 54.1284 5.7124C90.3038 40.6375 77.9547 111.498 -42.7752 170.813C-141.422 219.304 -213.047 223.489 -233.096 172.545C-237.454 161.576 -233.967 149.165 -234.403 137.475C-234.839 125.785 -239.633 112.508 -250.82 108.611C-258.52 105.869 -267.382 108.467 -275.227 106.014C-290.192 101.396 -294.405 81.7682 -290.773 66.7591C-277.697 12.0624 -247.769 -15.0695 -194.596 -36.7173Z"/>
</symbol>
<symbol id="illuTimmi" viewBox="0 0 25 31"> 
    <g clip-path="url(#clip0)">
    <path d="M13.4656 2.50651L7.73842 3.31141C6.84176 3.43742 6.21851 4.27701 6.34635 5.18667L9.49579 27.5961C9.62363 28.5058 10.4542 29.141 11.3508 29.015L17.078 28.2101C17.9746 28.0841 18.5979 27.2445 18.47 26.3348L15.3206 3.92542C15.1927 3.01576 14.3622 2.38049 13.4656 2.50651Z" fill="white"/>
    <path d="M13.6191 24.7822C11.8618 25.0292 10.0698 24.742 8.46945 23.9569C6.86914 23.1718 5.5325 21.9241 4.62855 20.3716C3.7246 18.8191 3.29395 17.0315 3.39104 15.2348C3.48813 13.4381 4.10862 11.7131 5.17402 10.2779C6.23943 8.84272 7.70192 7.76176 9.37653 7.17175C11.0511 6.58173 12.8627 6.50917 14.5821 6.96322C16.3014 7.41727 17.8514 8.37755 19.036 9.72263C20.2206 11.0677 20.9867 12.7372 21.2372 14.5199C21.5711 16.9101 20.9564 19.3333 19.5281 21.2573C18.0998 23.1814 15.9746 24.4491 13.6191 24.7822Z" fill="white"/>
    <path d="M11.1482 7.20073C12.8186 6.96598 14.522 7.23899 16.0432 7.98525C17.5643 8.73151 18.8349 9.9175 19.6941 11.3932C20.5534 12.869 20.9627 14.5682 20.8704 16.276C20.7781 17.9838 20.1883 19.6235 19.1756 20.9877C18.1629 22.3519 16.7728 23.3794 15.181 23.9403C13.5892 24.5011 11.8672 24.5701 10.2329 24.1385C8.59852 23.7069 7.12518 22.7941 5.99917 21.5155C4.87315 20.237 4.14502 18.6501 3.90687 16.9555C3.59162 14.6839 4.17672 12.3817 5.534 10.5533C6.89128 8.7249 8.91009 7.51935 11.1482 7.20073ZM11.0229 6.30919C9.17873 6.56837 7.45395 7.37652 6.06666 8.63143C4.67937 9.88634 3.69189 11.5317 3.22908 13.3593C2.76627 15.187 2.84892 17.1149 3.46658 18.8993C4.08425 20.6837 5.20918 22.2444 6.69913 23.384C8.18907 24.5237 9.97712 25.1911 11.8371 25.3019C13.6972 25.4127 15.5456 24.9619 17.1488 24.0065C18.752 23.0511 20.0378 21.634 20.8438 19.9344C21.6497 18.2348 21.9395 16.3291 21.6766 14.4582C21.503 13.2155 21.0895 12.0188 20.4599 10.9365C19.8303 9.85419 18.9969 8.90752 18.0074 8.15064C17.0179 7.39377 15.8917 6.84155 14.6932 6.52557C13.4947 6.2096 12.2475 6.13607 11.0229 6.30919Z" fill="#71E0CA"/>
    <g opacity="0.5">
    <path opacity="0.5" d="M13.8315 2.46277L12.7814 2.61035L16.3917 28.2988L17.4195 28.1544C17.5848 28.1312 17.7438 28.0751 17.8875 27.9895C18.0312 27.9039 18.1567 27.7903 18.2569 27.6553C18.3571 27.5203 18.43 27.3665 18.4715 27.2027C18.513 27.0389 18.5222 26.8683 18.4986 26.7006L15.2462 3.55833C15.1975 3.22515 15.0222 2.92401 14.7578 2.71929C14.4934 2.51456 14.161 2.4225 13.8315 2.46277Z" fill="#CCCACA"/>
    </g>
    <path d="M13.6818 25.228C18.8314 24.5043 22.4108 19.6824 21.6766 14.4582C20.9424 9.23387 16.1725 5.58545 11.0229 6.30919C5.87324 7.03292 2.29383 11.8547 3.02806 17.079C3.76228 22.3033 8.53211 25.9517 13.6818 25.228Z" fill="white" stroke="#B1B0B2" stroke-width="2" stroke-miterlimit="10"/>
    <path d="M11.819 12.8387L12.3085 16.3218L18.4216 16.3718" fill="#E0DFE0"/>
    <path d="M11.819 12.8387L12.3085 16.3218L18.4216 16.3718" stroke="#B1B0B2" stroke-width="2" stroke-miterlimit="10"/>
    </g>
    <defs>
    <clipPath id="clip0">
    <rect width="21.0579" height="27.4669" fill="white" transform="translate(0.0144958 3.63416) rotate(-8)"/>
    </clipPath>
    </defs>
</symbol>
</svg>
