<svg width="72" height="128" viewBox="0 0 72 128" fill="none" xmlns="http://www.w3.org/2000/svg">
<path d="M-194.596 -36.7173C-183.699 -41.1912 -172.077 -44.9434 -160.309 -43.7889C-148.541 -42.6343 -136.628 -35.7071 -132.996 -24.5945C-131.398 -19.832 -131.398 -14.7809 -129.8 -10.1627C-125.005 3.69192 -107.717 9.32034 -93.1883 7.15556C-78.66 4.99079 -65.7298 -2.80241 -51.928 -7.85356C-16.9149 -20.6979 17.953 -29.2127 54.1284 5.7124C90.3038 40.6375 77.9547 111.498 -42.7752 170.813C-141.422 219.304 -213.047 223.489 -233.096 172.545C-237.454 161.576 -233.967 149.165 -234.403 137.475C-234.839 125.785 -239.633 112.508 -250.82 108.611C-258.52 105.869 -267.382 108.467 -275.227 106.014C-290.192 101.396 -294.405 81.7682 -290.773 66.7591C-277.697 12.0624 -247.769 -15.0695 -194.596 -36.7173Z" fill="#7490B9"/>
</svg>
