<svg xmlns="http://www.w3.org/2000/svg" xmlns:xlink="http://www.w3.org/1999/xlink" viewBox="0 0 537.41 363.06"><defs><style>.t{fill:none}.i{fill:#fff}.j{fill:#e6e5e5}.l{fill:#d81d61}.n{fill:#026937}.o{fill:#e64a1a}.p{fill:#f8af3c}.q{fill:#2baae2;mix-blend-mode:multiply}.r{fill:#263239}.s{fill:#b3b3b2}.t{stroke:#b3b3b2;stroke-width:.88px;stroke-miterlimit:10}.u{fill:#dddede}.x{fill:#ffe082}.y{fill:#fec92a}.z{fill:#969a90}.aa{fill:#5f6357}.ab{fill:#a4a79c}.ac{fill:#4e4d4d}.ad{fill:#392560}.ae{fill:#3dbcd3}.af{fill:#439f46}.ai{fill:#f8e82f}.am{fill:#f2f2f1}.au{fill:#eceff1}.bc{fill:#37474f}.bg{fill:#22a69a}.bh{fill:#02897b}.bi{fill:#006a5d}.bj{fill:#b3ddda}</style><linearGradient id="a" data-name="Dégradé sans nom 16" x1="42.97" y1="52.61" x2="462.66" y2="331.85" gradientTransform="scale(-1 1) rotate(-50.3 6.115 721.168)" gradientUnits="userSpaceOnUse"><stop offset="0" stop-color="#eb661b"/><stop offset="1" stop-color="#fab70f"/></linearGradient><linearGradient id="b" data-name="Dégradé sans nom 8" x1="153.9" y1="37.09" x2="163" y2="45.23" gradientTransform="matrix(1 0 0 -1 0 85.83)" gradientUnits="userSpaceOnUse"><stop offset="0" stop-color="#fff"/><stop offset="1" stop-color="#dddede"/></linearGradient><linearGradient id="c" x1="195.3" y1="-52.8" x2="204.4" y2="-44.66" xlink:href="#b"/><linearGradient id="d" x1="165.7" y1="31" x2="184.2" y2="6.02" xlink:href="#b"/><linearGradient id="e" x1="162.2" y1="-25.78" x2="214.41" y2="5.09" xlink:href="#b"/><linearGradient id="f" x1="270.49" y1="-42.95" x2="278.67" y2="-35.63" xlink:href="#b"/><linearGradient id="g" x1="346.38" y1="-96.54" x2="354.56" y2="-89.23" xlink:href="#b"/><linearGradient id="h" data-name="Dégradé sans nom 9" x1="444" y1="-133.91" x2="439.43" y2="3.94" gradientTransform="matrix(1 0 0 -1 0 85.83)" gradientUnits="userSpaceOnUse"><stop offset="0" stop-color="#fff" stop-opacity=".4"/><stop offset="1" stop-color="#f1f1f1" stop-opacity="0"/></linearGradient><radialGradient id="i" data-name="Dégradé sans nom 10" cx="-42.48" cy="143.51" r=".89" gradientTransform="matrix(0 37.52 57.72 0 -8048.03 1817.16)" gradientUnits="userSpaceOnUse"><stop offset="0" stop-color="#989898"/><stop offset="1" stop-color="#989898" stop-opacity="0"/></radialGradient><linearGradient id="j" data-name="Dégradé sans nom 30" x1="235.3" y1="277.19" x2="235.3" y2="195.22" gradientUnits="userSpaceOnUse"><stop offset="0" stop-opacity=".05"/><stop offset="1" stop-opacity="0"/></linearGradient><clipPath id="k"><path d="M326.77 98.71C309.66 86 301.08 56.17 248.4 28.27 191.53-1.85 104.2-1.27 49.39 66.13-.4 127.37 2.82 239.67 81.45 304.75c72.29 59.84 162.58 35.42 218 16.56 19.72-6.71 48.47-6.05 67 1.38s78.92 20.47 118-43.46c40.2-65.83 28.18-163.79-60.75-183.16-34.5-7.5-69.64 22.93-96.93 2.64z" fill="none"/></clipPath></defs><g style="isolation:isolate"><path d="M331.41 117.45c13.5 12.32 29.64.87 64.57 29.44s57.9 90.28 17.55 154.74c-36.65 58.57-112 83.76-186.12 37.39-68.11-42.63-84.41-99.69-83.8-150.82.21-18.2-8-41.75-19-54.91s-33.94-51 4.34-104.09C173-31.93 291.15 13.89 303.24 66.46c4.48 19.45 13.86 37.94 28.17 50.99z" fill="#f0f0f0"/><path d="M326.77 98.71C309.66 86 301.08 56.17 248.4 28.27 191.53-1.85 104.2-1.27 49.39 66.13-.4 127.37 2.82 239.67 81.45 304.75c72.29 59.84 162.58 35.42 218 16.56 19.72-6.71 48.47-6.05 67 1.38s78.92 20.47 118-43.46c40.2-65.83 28.18-163.79-60.75-183.16-34.5-7.5-69.64 22.93-96.93 2.64z" fill="url(#a)"/><path d="M164.45 42.22l-9.1 8.12-2.88-3.23 9.11-8.11z" style="isolation:isolate" fill="url(#b)" opacity=".4"/><path d="M205.85 132.11l-9.11 8.12-2.87-3.23 9.1-8.12z" style="isolation:isolate" fill="url(#c)" opacity=".4"/><path d="M158.46 43l-6.11 29.37 34.14-25z" fill="url(#d)"/><path d="M146.16 122.93l2.64 3.58 37.62 5.76-35.8-48.77z" fill="url(#e)"/><path class="i" d="M212.87 55l-3-4-23.38-3.58-34.14 25-1.73 11.08 35.8 48.77 14.23 2.21z"/><path class="j" d="M146.16 122.93l2.64 3.58.28-3z"/><path d="M191.31 84.33a4.19 4.19 0 0 0-.15-1.31l-.46-.8v.92a5.61 5.61 0 0 1-.31 1.57c0 .19-.11.37-.16.58 0 .55-.07.8-.08.92a14.87 14.87 0 0 1-1.24 4 15 15 0 0 0-.7 1.89 9.73 9.73 0 0 0-.41 1 5 5 0 0 1-.26.58l-.23.31a.45.45 0 0 1-.31.01c-.15 0-.28 0-3.84 3.42l-.11.11c-1.46.49-4.18 1.41-5.2 1.2l-.49-.06a3.19 3.19 0 0 1-.54-.07 3.05 3.05 0 0 0-.85-.23 1.62 1.62 0 0 1-.78-.27l-.07-.08H175a1.88 1.88 0 0 1-1.31-.3l-.51-.27-.17-.08-.12.14s-.06.06-.09.06a.46.46 0 0 1-.22-.15l-.08-.07a11.26 11.26 0 0 0-2-1.09 10.73 10.73 0 0 1-1.41-1c-.12-.13-.34-.32-.7-.64s-.86-.76-1-.91a9.88 9.88 0 0 0-1-.69l-.18-.12c-.39-1.29-2.22-6-3.24-8.17a33.83 33.83 0 0 1-.39-4.68 19.85 19.85 0 0 1 .46-2.41v.5l.48-1.94c.08-.34.36-1.19.41-1.37 1.52-3 2.94-5.85 6.53-7.84.86-.29 1.65-.61 2.41-.92a14 14 0 0 1 5.55-1.4 7.52 7.52 0 0 1 2.52.36c.15.09.34.18.53.28a5.08 5.08 0 0 1 1.12.67l.41.41-.06.19a11.48 11.48 0 0 1 1 .76c.11.09.21.17.29.25a3.7 3.7 0 0 1 .29.29 19.55 19.55 0 0 1 1.31 1.84l.17.2a9.07 9.07 0 0 1 1.72 3.66 48.52 48.52 0 0 0 1.79 5.5 11.11 11.11 0 0 0 .53 1.76c.7 1.41.7 1.41.93 1.31s.23-.11-.17-1.11c-.2-.5-.5-1.23-.82-2.09a15 15 0 0 1-.27-4.69v-.06a8.58 8.58 0 0 0-.65-1.44 5.32 5.32 0 0 1-.72-1.16c0-.78-2.09-5.57-5.74-7.4a7 7 0 0 0-3.19-.87 12.67 12.67 0 0 0-6.46.81c-.28.14-.58.27-.9.4a14.48 14.48 0 0 0-2.59 1.35l.2-.31-1 .92-.25.2-1.71 1.47.37-.19c-1.75 1.72-4.37 4.68-4.65 7.06a29.1 29.1 0 0 0-.35 5 12.87 12.87 0 0 0 0 3.91v.06s.17.37.44 1c.64 4 2 7.86 4.33 10.54a9.37 9.37 0 0 0 7.35 3.59 15 15 0 0 1 2.53.37l-.8.18h1.65a1.46 1.46 0 0 0 .29 0h.63v-.2a9.78 9.78 0 0 0 1.64-.15 8.91 8.91 0 0 1 1-.13 4.37 4.37 0 0 0 2.52-1l.49-.31a1.06 1.06 0 0 0 .2-.12l.63-.46a32.58 32.58 0 0 0 2.65-3.06 1.64 1.64 0 0 0 .31-.41 11.91 11.91 0 0 0 .88-1.38 3.81 3.81 0 0 1 .64-1.18 5.22 5.22 0 0 0 .61-1l-.16-.09c0-.11.06-.32.17-.72h.05c.25 0 .33-.31.36-.42V89a11.58 11.58 0 0 1 .59-3.65 5.77 5.77 0 0 0 .24-1.02z" fill="#47ad4c"/><path class="l" d="M168.83 84.92c.8-4.83 2.64-5.35 10.37-4.57-.36-.09.47-.17.08 0 1 0 3.18.08 3.86.08a11.81 11.81 0 0 1 1.5.19c1.8 0-1.59 8.85-.51 9.39 1.06.27-.63 2.76-1.62 2.76-.42 0-.92-.24-1.42-.24-2.3-.52-3-.36-5.28-1.38.23.11.1.07-.4-.12-.82 0-2.76-.83-3.31-.83s-.74-.26-1.3-.55q.45.19-.63.12c-1.09.47-5.1-1.55-2.17-.08h.52c.83-.08 2.74.71 3.58.71a5.08 5.08 0 0 0 1 0c.07 0 .35 0 .35.27a3.85 3.85 0 0 0 .91.16 8.4 8.4 0 0 1 2 .75c1.85.74 3.13.91 4.77 1.62.17 0 .88.1.47 0a4.69 4.69 0 0 1 1.15.08c-.06 0 1.07.36 1.5.08-1.13.56.28-.28.59-1.19 0 .24.1-1.83.19-1.26v-.75s0-.2-.12-.08c1.15-1.15.87-6.56 1-5.79 0-1.11.89-3.66.12-4.62.51.78-.47-.31-.67-.31.77 0-1.09-.12-.83-.12-2.16-.39-3.72.2-6.27-.43-.89-.45-4.22.15-5.12.15a11 11 0 0 0-1.54.28c-.4-.08-2.46.47-1.58-.2-.06 0-.78.39-.67.24-.73 0-3.31 8-1.81 8.75.68 2.34 1-.12 1-2a3.43 3.43 0 0 0 .23-1.57c.02.22.06.46.06.46zm.67-4.53h-.08.08zm-.75-.6a.16.16 0 0 1 .16 0c-.12.08-.17.09-.16 0z"/><path class="l" d="M172.06 79c0 .09.2.16.2.47.58 0-.92.93-.39 1.46.74.75-.74 2.15-.48 2.28s-.17 2.29-.43 2.29c.2 0-.58 1.8-.24 2-.15 0-.15.08-.08.16a7.44 7.44 0 0 1-.15.87c0 .12-.08.23 0 .35s.38.12 0 .12c-.16 0-.08.16-.08.2 0 .55 0 .71-.16.94.05-.11-.33 1.11-.2 1.11-1.25.16.47.43.28.43h-.08c-.22-.05.43-.18.16-.55a.43.43 0 0 0 .31.08s-.1-1.13.24-.79c-.16-.18-.16-.21 0-.08-.19-.19-.54.37-.59.47.14 0 .16 0 0 0 .18 0 .16.08-.08.12.12.06-.36.63-.36.52.58.41.14 0 .52 0 0 .07 0 .07.11 0-.09 0 0-.67.2-.83.38-.37.1-.75.36-.75s.08-.08.12 0c-.23-.23.07-.47.15-.51-.21 0 0-.3 0-.12 0-.38 0-.59-.27-.59.16 0 .21-.3.27-.4s-.18-.08.08-.08c-.17 0 0-.51 0-.51s-.11-.09 0-.08c.38 0 .32-2.12.55-1.89a15.09 15.09 0 0 0 1.07-4.34s.16-.15-.08-.19c.16 0 0-.12 0-.16.12.09-.27-.36.08-.36 0 0-.21-.32.28-.08-.08 0-.23-.35 0-.35h-.2c.39-2.62-.1-2-.63-2.09a.2.2 0 0 1 0 .39c.3.1.32.15 0 .16.33-.06-.38.33-.48.33zm.12 1.49zm0 .12c0-.06 0-.06.08 0s-.08-.03-.12.01zm.83-.16zM177 77.94a1.11 1.11 0 0 1 .08.51c.29 0 .2.08.12.08s0 0-.16.08c.12-.24-1.14 2.41-.75 2.8l-.08-.08s0 .41-.12.32.06 2.89-.78 3c.1 0 .1 0 0 0 .17 0-.57 2-.24 2.09-.16 0-.16.08-.08.16q-.24 0 0 .12a3.73 3.73 0 0 0-.24 1.1c0 .17.38.24.08.24-.12 0 0 .23 0 .24 0 .58.17.67-.07 1a8.47 8.47 0 0 0-.2 1.85c-.36.09.92.37.31-.23a.34.34 0 0 0 .32.12c-.41-.41.45-1.9-.36-.52.15 0 .16 0 0 0 .64.64-.64.28.08.28 0 .08 0 .07.12 0-.22 0 .11-.72 0-.79s0-.15 0-.08c.33-.32-.1-.83.24-.83s.08-.11.11-.08a.08.08 0 0 0-.11 0s-.12-.66.19-.35c-.12-.13.39-.15.08-.2s0-.29 0-.12c0-.39 0-.59-.23-.59.2 0 .17-.24.27-.39-.05 0-.18-.08.08-.08-.17 0 0-.51 0-.51s-.11-.09 0-.08c.34 0 .25-2.2.51-1.93a36.46 36.46 0 0 0 1.27-4.73c.05 0-.13-1.07.47-.68-.29-.28.14-.47-.32-.47.25 0 .89-2.25.83-2.28-.24-.45-.53-.41-.71-.16.15.14 0 .18 0 .35-.2-.12 0 .12-.24 0 .16.08 0 .16.12.28 0 0 .26.2-.23.08.11 0 .07.11.19.11h-.19c.47.26-.44.37-.36.37zm-.12 1.58zm0 .12c0-.07 0-.07.08 0a.06.06 0 0 0-.09 0zm.79 0zM182.16 77.74a2.13 2.13 0 0 1 .15.52c.16 0 .27.08.16.08.21-.29-.7 1.39-.43 1.65a27.25 27.25 0 0 1-1 5.28c.14 0-.49 2.18-.19 2.25-.16 0-.32 1.42-.32 1.5v.47c0 .62.17.72-.08 1 0 .12-.39 1.85-.24 1.85s-.27.47 0 .67c-.48-.36.64.44.36.16s-.16-.21 0-.08c-.17-.18-.32 0-.47.16s.48.47.47.47c-.41-.2-.29-.58.16-1.18.14 0-.48-.55.08-.55-.19 0 0-.87.07-1s.12-.08 0-.16c.13.06.1-.79.24-.79-.08 0-.06 0 .08-.08a.09.09 0 0 0-.12 0s-.11-.66.2-.35c.09.09.12-.66.12-.32v-.23c-.15 0-.2 0-.16-.16.15-.28.18-.28-.12-.28.21 0 .16-.27.28-.39-.05 0-.19-.08.08-.08-.18 0 0-.51 0-.51-.14-.06-.17-.09-.08-.08-.07 0 .64-2.41.43-2-.1-.07 1.18-4.64 1.18-5 0-.22-.29-.83 0-.83-.07 0 .54-.59.16-.59.05.23-.06 0-.2 0a6.89 6.89 0 0 0 .67-2.52c-.54-.82-1.19.15-.78.55 0 0 0 .28-.2.28.79.16-1.23.22-.5.29zm0 1.7zm0 .12c0-.06 0-.06.08 0s-.04 0-.08 0zm.82-.16z"/><path d="M173.29 100.14c.07 0-.24.5-.24.47 0 .22-.16.68-.16.59-.66.32-1.6 2-1.93 3.83a4.39 4.39 0 0 0 1 4q.22.09 0 .12s11 3.54 9.42.43c.12.16.31-.08.31-.24 0-.79.95-1.55.95-1.89 0-1.24-.08-1-.08-1.73s-.53-1.54-.43-1.54c-.12 0-.12-.24-.28-.28.2 0 0-.19 0-.15-.25-1.25-.14.4-.39-1.11 0 0-.57-1-.56-1.06.22-.79-.47-.79-.63-.95s.13-.92-.63-1c.15 0 .23-.07.24-.2-1.06 0-2-2.6.08 1.18.19 0 .69.62.43.87.18-.17 1.38 3.92 1.38 3.35 0 0 .33 1 0 .75 0 0 .13.87 0 .51v.44c0 .47-.05.83.28.67-.34.16-.81 1.45-1 1.69 0 0 0 .12.08.12-.36-.09-1.43.71-1.73.75-.15.6-1.73.2-1.5.31-.36.53-1.94-.28-2.13-.47.17.21.07.19-.28 0a9.94 9.94 0 0 1-1.22-.39c-.44 0-1.7-.78-1.81-1.54 0-.56-.63-1.87-.63-2.52 0-.08.15-.36-.08-.36 0 0 .16-.71 0-.55.14-.14 0-1.55.43-.75-.16-.48.29-2.43 1.34-2.6a15.82 15.82 0 0 1 1.85-1.78c.59-1.28-.51-.53-.51-.51 0 .53-.82.34-.94 1-.1.18-.05.32-.36.12.25.08-.14.35-.27.42zm-1.62 2.86v-.08.08zm-.12.23c0-.12 0-.15.08-.08s0 .06-.08.06zm.95-.15c0 .09 0 0 0 0z" fill="#f29222"/><path class="n" d="M206 82.77a.43.43 0 0 0-.38.28 1.55 1.55 0 0 0-.42.36l-.13.14.09.19H205l-.16-.84-.2 1.18a6.62 6.62 0 0 1-1.18.56c-.53.22-.74.31-.79.51v.06a15.47 15.47 0 0 1-1.58 1c-1.09.63-1.49.88-1.6 1.07a3.93 3.93 0 0 0-1.75 1.54c-.74.06-1.81 1.26-1.82 1.27h-.05a1 1 0 0 0-.6.38.45.45 0 0 1-.17.13 6.34 6.34 0 0 0-1.84 1.23c-.19.15-.4.33-.46.36l.07.22-.17-.17c-.09.07-.84.54-1.64 1-4.75 3-6.45 4.12-6.72 4.6a1.4 1.4 0 0 0-.44.38 1.71 1.71 0 0 0-.26.21l-.16.13a.94.94 0 0 0-.48.44l.06-.2-.16-.11a.3.3 0 0 0-.39.08l-.07.08v.35h.2a.2.2 0 0 0 .13 0l-.09.11a5.49 5.49 0 0 1-.72.73 1.58 1.58 0 0 0-.76.39 1.42 1.42 0 0 1-.42.06 2.79 2.79 0 0 0-2.54 1.41.5.5 0 0 0 .14.6c.37.29 1.2 0 2.45-.79l.1-.06V103l.48-2a1.19 1.19 0 0 1 .08-.2 2.53 2.53 0 0 0 .69-.37h.29a2.53 2.53 0 0 0 2.06-1.32c1.13-1.87 4.51-3.7 7.5-5.31 1.45-.78 2.81-1.52 3.87-2.22h.09v-.13l.21-.16a1.14 1.14 0 0 0 .37-.32 1.43 1.43 0 0 0 .44-.23c.42 0 .94-.54 1.61-1.19l1.25.31-1-.52.21-.18a.2.2 0 0 1-.17 0l.11-.18h.26a.15.15 0 0 1 0 .08 1 1 0 0 1 .24-.19.37.37 0 0 0 .1-.07c.45-.45.92-.91 1.39-1.33l.52-.13h-.36c1.2-1.07 2.34-1.89 2.85-1.89a1.94 1.94 0 0 0 .9-.64h.17l.27.07v-.27a3.24 3.24 0 0 1 .56-.56c.39-.34.51-.46.51-.63-.02-.61-.32-.65-.43-.65zm-23.51 16a.21.21 0 0 1 .18-.09v.16zm-1.58 2.69l-.08-.12h.07zm15.78-10.88h.09l-.05.12a.25.25 0 0 1-.02-.07z"/><path class="n" d="M201 85.2c0 .13-.14-.29-.27-.32-.07 0 0-.3 0-.51a4.86 4.86 0 0 0 0-1.46c0-.1.06-.71.15-.71-.07 0 .12-.08 0-.08s-.19-.39-.31-.39a12.51 12.51 0 0 0-.12-2.33c-.11 0-.26-.36-.2-.36s.12-.82-.55-.82c.24 0 0-.08.32-.12 0 0-.2-.08 0-.08-.07 0-.46-.51-.24-.51-.07 0-.38-.84-.47-.79.26-.19 0-.39-.28-.28.58 0-.07-.08.08-.08-.24 0 .43-.36-.2-.23.18 0 .19-.16.32-.16h-.08c-.39 0 .13-.43-.16-.43l.08.11c-.17-.07-.28 0-.16 0-.37 0-.39.27-.39.48.17 0-.33.47.32.47h-.12c.05 0-.27.08-.2.08s0 .08 0 .08c.32 0 .2.44.2.43s-.08.08 0 .08c-.32 0 .48.43 0 .43.07 0 .06 0 0 .08.26 0 .25.13 0 .32h.08c.21 0 0 .16.23.16-.09 0-.26.28.16.07-.13.09-.32.32 0 .32h-.16c.24 0 .19.13.32.28a.25.25 0 0 0 .16 0c-.21.1-.09.66-.08.67.18 0 .2.51.15.51.13.15.18.48-.27.71.29-.15 0 .27.27.27-.14 0-.07.24-.07.24s0 .06 0 0 .23 1.28.11 1.3.39.87.44.87.05.15-.08.12c.23.05.23.27.12.27.12 0 .11.18-.28.08.22.09.27.13.16.12-.1.2 0 .16.16.16a9.65 9.65 0 0 1-.04 1.75c-.07.42.29.2.63.2.11 0-.15-.28.11-.28-.23-.07-.2-.12.08-.15-.41-.08-.16-.2 0-.2-.74 0 .42-.32-.19-.12h.15c-.4-.06.05-.23.12-.25zm-.35-1zm0-.08h-.08s.04-.03.08-.03z"/><path class="n" d="M201.32 86a1.11 1.11 0 0 1-.24-.47c.33.22 1.53-1.9 1.62-1.81s.05-.07 0-.08c.46 0 .08-.4.28-.32-.26-.25.09 0 .11.08-.28-.29 1.82-2.46 1.54-2.6a.63.63 0 0 0 .2 0c-.16-.16.18-.22 0-.39s.52.06.16-.12c.5.2.2-1.12.55-.83 0-.09.16-.91.31-.75-.08-.08 0-.08-.08-.2.22.21.52-.76.56-.75.39.1.09-.35.27-.35-.17 0-.11-.19.2-.12-.11 0-.16-.07-.16-.24a.47.47 0 0 0 .28.16c-.08-.08.08 0 0-.12.12.12-.11-.69.08-.51s.31-.07-.08-.12c.18.18 0 .08-.08.08s-.12-.08-.08-.08-.25.21 0 .32c-.62-.21-.37 1.12-.79.71.25.24-.36.54-.35.55-.16-.16-.33.35-.36.35h-.08c-.08 0 0 .08-.11.08.14 0 .17.21-.12 0 0 .08-.12 0-.12.08 0 .31-.12.07-.12.24 0 .44-.21.27.12.43-.33-.11-.44.4-.55.4s0 .11 0 .07l.08.08c.09.09-.41.54-.44.52.29.43-.47.12-.12.47.06-.09-.15.37-.15-.08v.12a4.59 4.59 0 0 1-.71.63 1.52 1.52 0 0 1-.24.39 11.35 11.35 0 0 0-.87 1.42 1.47 1.47 0 0 0-.27.55c0 .15-.05.16-.12 0 .14.2.17.25.08.15s-.33.36-.36.36 0 .95-.39.9c.48 0-.41 1.76.55.79.33-.32-.22.19 0 0l.08-.08c-.14.07-.16.06 0 0h.08-.2.16c-.38-.1-.37-.11 0 0-.29-.09-.32-.11-.08 0-.16-.08-.16-.1 0-.08a3.06 3.06 0 0 0-.04.17zm.31-1.1zm-.75-.28zM172.58 100.06c.08.09-.46-.12-.4-.12s-.68-.08-.47-.08c-.5-.59-3.43-3.07-4.5-4.49.19.36-.29-.21-.19-.28-1.24-1-2.91-3.52-4.46-3.9h.08s-.34-.47-.31-.36c-1.31 0-2.2-2.32-2.53-2.32-.77 0-1-1.15-1.46-1 .14 0-1.85-2.2-1.85-2.32 0 0-.39-.67-.71-.67a.28.28 0 0 0 .24-.24c-1.12 0-1-2.22-1-.47 0 0 .66.56.51.67.13-.07.62 1 .56 1a3.09 3.09 0 0 1 1.35 1.52c.5 1 .91 1 1.3 2 .4 0 .85.93 1 .59-.1.42 1 1.11 1.11 1.14s.08 0 .11-.07c-.17.6.48.48.48.67-.06-.25 7.4 6.54 7.33 6.66s.88.27.67.59c.11-.11.22.63.59.63-.36-.27 1.39.89 1.42 1.22 0-.07 1.39 1.38 1.46 1.34.95.24.69-.55.51-.55-.52 0-.18-.67-.78-.67-.15 0-.32 0-.08-.31.01-.01-.89-.16.02-.18zm-2.05-1.38s.04 0 0 0zm-.16-.16q.15.09 0 .12v-.12zm-.2.87z"/><path class="n" d="M157.87 84.8c0-.11-.19-.06-.2-.31-.34 0-.19-.12-.12 0a18.9 18.9 0 0 0 .52-2c.06-.05.05-.06 0 0 .48 0-.58-.57.16-.2-.12-.06 0-.47-.2-.47.33 0 0-.26.08-.16s.19-.77.31-.79 0-.95 0-.95.15-.51.08-.51c.41-.07-.2-.83 0-.83a2.31 2.31 0 0 1 0-.67c0 .09.06-.49 0-.51.12.2-.09-.24.12-.24h-.12c.5-.06-.32-.35 0-.35-.29 0 .32-.2-.08-.39.38.18-.4.07-.23.07-.28 0-.11 0 0 .08a.44.44 0 0 0 .24-.31c-.28.23-.67.83-.47.83q0-.12-.12 0c.16 0 .16 0 0 0h.12a.57.57 0 0 1-.12.44s-.12 0 0 .08c-.15-.08-.06.43-.16.43.07 0 .06 0 0 0-.08 0-.23.49-.23.28.07.3.11.43.31.43-.39 0-.07.28-.31.28a.12.12 0 0 1 0 .23s.07.08 0 .08h.08.12c-.6 0 .07 1.7-.75 1.7.15 0 .16 0 0 .11s-.15 1.27-.16 1.27-.27 1-.27.86a.55.55 0 0 1 .12.24h-.12c.35.12.3.47-.16.36q.28.16.12.15c-.06.17.1.19.31.2-.78 0 .26.52-.19.63 0 1.17.24 1.06.71.59l.08-.08c-.19.19-.1 0-.2 0 .17-.09.15-.1 0 0 .2 0 0 0 .24-.07-.08 0-.34 0 0 0a2.26 2.26 0 0 1-.28 0h.32c-.3-.07-.32-.1-.08-.08-.49-.22.76-.45.53-.42zm-.2-1h-.08zM157.24 88.27c-.1 0 0 .13-.24.16 0 .34-.11.19 0 .12a.1.1 0 0 1 0-.16c.06-.31-.27-.08-.23-.12s-.69-.46-.75-.08v-.2.12c0-.22-.12-.29-.36-.08v-.11c-.05.22-.05.21 0 0-.06.07-.06 0 0-.08-.05.11-.35 0-.35.19 0-.28-.08-.1-.12 0-.11-.14-.28-.21-.31-.11 0-.32-.12 0-.12-.2a.43.43 0 0 1-.32 0c-.1.2-.3 0-.31-.08s0 0 0 .08-.13 0-.16.08v-.08c0-.16 0-.16 0 0a1.88 1.88 0 0 0-.51 0c0 .12-.08.24-.08.31v-.35a1.19 1.19 0 0 1-.4.12s-.11.38-.11.16-.08-.09-.12-.12v.12s-.28-.24-.28-.08c0 0-.2 0-.2.08s-.56.63 0 .23a.3.3 0 0 0-.08.16c0-.37.1.35.31-.08-.18.74.32 0 .32.08 0 .3.08-.35.08.16 0-.21 0-.21 0 0 0-.21 0-.25-.2-.32v-.12c0-.38-.12.76-.12-.08 0 .18 0 .16 0 0v.12a.57.57 0 0 0-.12-.31c-.06.1-.05.1 0 0-.34.34-.12.21 0 .11-.25.32-.08.11-.08.28v.12c0-.15 0-.16 0 0 0-.11.24-.13.24 0s.2.23.2 0c.13 0 .15-.06.15.08 0 .19.16 0 .16-.16a1.7 1.7 0 0 0 0 .39c0 .07 0-.16 0 0 0-.49.15.15.12 0a1.66 1.66 0 0 0 .12-.31.09.09 0 0 0 0 .12c0 .27 0 .18.08 0v.08c0-.47.19.27.19 0v0c0 .06.12 0 .12 0v-.08-.12c0 .34.4.17.4.24v-.2c0 .33.13.23.12.23 0-.36.31.56.4 0a3.27 3.27 0 0 0 0 .44v-.08c0-.14 0-.16 0 0s.2 0 .27 0 .48.49.48.08c0 0 .11.39.11 0 0 .18.25.49.32 0 0 .12.08.37.12.2 0 .15 0 0 .08 0v.12c0-.12.08-.16.08-.2 0-.07.23-.08 0 .27.18-.36.38-.22.35-.19s.32-.11.32 0c.14.21.25.22.31 0 0 .1.16.08.16.08.22-.18.32-.48.24-.56-.09.09-.23.11-.12-.15-.29.57 0-.6-.24.27q.17-.57 0-.12v-.15c-.01.19-.03-.1.08-.32zm-.71.16zm-.12.79s.04-.04 0 0z"/><path class="o" d="M173.13 107.35a2.51 2.51 0 0 1 .23.63c.21 0-.6 5.26-.47 5.33.92.45-1 6.12-.12 6.3-.19 0-.15.16-.08.24s-.11 1.42-.11 1.78.08.24.08.59c0 .8.19.72.07 1.26a2.21 2.21 0 0 1 0 .91s-.15.8 0 .74c-.75.48.39.79-.11.79.3 0 .14.35-.08.48 0 0 .6.18.31 0s1.07-2-.12-.83c0 0-.49 1.68.4.43a3.55 3.55 0 0 1 .12-1.89c.27-.55.11-1.17.19-1.26s-.11-.83.2-.52c0-.23 0-.3.12-.19-.26-.26 0 0 0-.44s-.09-.55-.28-.55c.24-.06.16-.42.24-.55a2.72 2.72 0 0 0-.12-.87s0-.08-.12 0c1-.47 1-7.24 1-9.14 0-.08.12-.28-.12-.24.07 0-.2-.79 0-.79-.23 0 .11-.16 0-.16.54 0-.71-1.52 0-2.05 0 0 .09-1.67 0-1.69-.77-1.16-.46.35-.79.35.24.1.21.18-.08.24.2.31.24.4.12.28 0 .28.28.23-.16.23.55 0 .08.5-.32.59zm.27 2.13zM180.07 107.35c0-.15.26.36.39.36 0-.24.12 3.82.24 3.94s.05.07-.08 0c.08 0-.12.12 0 .12.21 1.07.49 3 .59 4.18.12 0 .35.55.28.55s.12 1.3.35 1.3c-.1 0 .88 0 0 .16 0 0 .22.12 0 .12.12 0 .56.82.32.82.12 0 .08.12.19.12-.16 0 .16.4.16.67s.31 1.23.47 1.07-.06.4.28.47a.42.42 0 0 0-.28.16c.12 0 0 .08.12.08.48 0 .29 1.44.55.55a4.68 4.68 0 0 0-.11-.47c-.2 0-.08-1.07-.48-1.07 0 0 .16-.31.12-.31-.36 0-.26-.79-.23-.79.28 0-.33-.71-.24-.71s-.11-.63 0-.63c-.28 0 0 0 0-.24-.11.08-.18.07-.2 0q0 .11-.12 0c.37 0-.09-.71-.08-.71.17 0 0-.43-.11-.51s-.08 0-.16 0c.47-.24-.26-1.7-.24-1.7s0-1 .28-1.3c-.15.14-.17.1-.08-.12.17.1.12 0-.16-.19.14 0 0-.39.12-.48s-.28-.94 0-1.26c-.18.18 0-.75-.2-.75a3 3 0 0 0-.08-.86c-.12-.14-.11-.2 0-.16-.23-.06-.23-.44-.11-.44-.08 0-.2-.38.23-.23-.15-.08-1-1-.63-1.42-1-2.45-.79-.76-1.06-.71.15 0 .44.24.11.35.29 0 .32 0 .08.08.2 0 .21.06 0 .16a1.69 1.69 0 0 0-.23-.2zm.63 1.38zm0 .12s0-.06.08 0-.04-.04-.08 0z"/><path class="p" d="M157.08 78c.08 0 .12-.19.36-.2 0-.34.11-.19 0-.12a20.47 20.47 0 0 0 2.4.56c.05.06.06 0 0 0 0 .35.71-.39.43.16.06-.13.56 0 .56-.2 0 .16 1.18.09 1.18.35 0-.23 1.47.23 1.54-.12 0-.07.19.43.19.08 0 .19.72-.08.56.08 0 0 .31 0 .31-.08 0-.12.08-.23.08-.31v.23c.07.07.09 0 0 .12.09-.14.13-.17.12-.08.48 0 .37-.23.67 0v-.17c0 .29 1.34-.09 1.34.07 0-.29.61-.59 0-.59a.24.24 0 0 0 .27-.12c-.12 0 0-.07-.11-.07-.37 0-.78-.86-.56-.28 0 0 .28.24.16.35.1-.08.34-.07.12 0 .22-.11 0 0-.08.08s.27.18 0 .24c.11.08.2 0 .28-.12s-.27-.07-.32.08v-.08q.11 0 0-.12c0 .39-.08-.27-.08.12a.78.78 0 0 1-.51-.08c-.16-.16-.77-.1-.63-.08s-.39.24-.39-.23c0 .09 0 .1 0 0 0 .19-.5.07-.56 0s-.05.09 0 .19c0-.12-.27-.15-.31-.19s0 .17 0-.08c0 .17-.28.21-.28.08s-.08.11-.08 0v.19c-.07-.38-2.48-.2-2.21-.59.08-.14 0-.12-.16.08 0-.08-2.3-.43-2.29-.43s-.11-.12-.16.08c0-.16-.07 0-.11 0v-.11c-.08.22-.32.23-.32.11 0 .07-.29.15-.08-.27-.17.33-.34-.1-.39.39 0-.81-.67.32-.79-.23-.17 0-.92-.1-.91-.12-.36.36-.08.69-.08.55 0 .12.08 0 0 .16q.14-.28.12.12c.13-.32.24-.15.24 0 .14-.38.16-.37 0 0 0-.12.08-.12.08-.24v.16c.18-.24.42.73.4.68zm1.22-.16v-.08.06zm-.08-.79V77zM158.78 69.86c-.05 0 .43-.23.47-.24-.2.3 1 1 1 .91-.09.27-.06.31.08.12l-.08.12.08-.08c0 .18.13.15 0 .23s.42.26.28.16c-.1.2 1.25.26 1 .83-.07-.05.76.46.83.31v.16c.13-.13.16.2.28 0-.08.16 0 .16 0 .08-.12.15-.11.16 0 0-.08.19.39.32.67 0-.16.2 0 .08-.16.32 0 0 .21-.14.08 0s.63-.12.47 0c.08-.08.08 0 .16-.08-.07.07.17.45.31.31a.37.37 0 0 0 .56.12.3.3 0 0 0-.08.16v-.08c0-.48.17 0 .15-.51 0 .1-.06.14-.23.11 0 0 .26-.33.12-.23.22-.22-.59.19-.32-.08.07-.07 0-.12.12-.12-.2.07-.21.06 0 0-.14 0-.16.11-.2.28l.12-.08s-.11.16-.16.16.28-.1 0 .19c.12-.08.22-.06 0 .12s.77-.23.55-.23-.23.23-.23-.08v-.12c-.05 0-.15 0-.28-.12-.21.21-.12-.27-.2-.2.09-.08-.48-.42-.31-.31 0-.18-.38-.32-.24-.32-.21.13-.32-.07-.39 0h.08l-.12.08q.17 0 0 .12c.06-.18-.18-.39-.24-.28 0-.06 0-.18-.23-.07l-.07.11c.09-.28-.42-.28-.24-.47-.13.12-.25 0-.32-.12-.13.14-.54-.49-.51-.51-.15.15-.91-.21-.91-.51 0 .1-.09 0-.19.08.14-.33-.72-.4-.67-.48-.15 0-.16 0 0-.07-.17.17-.21.21-.12.11 0-.3-.95-.22-.91-.55-.07-.28-.68-.29-.63-.39-.24 0-.27.35-.47.55s.28 0 .12.2c.16-.15.17-.1 0 .15.23-.31.18 0 .11.08.27-.28.27-.26 0 .08.08-.12.12-.08.16-.16a.57.57 0 0 1-.08.16c.12-.16 0 0 .12-.12.29.06.38.16.67.2zm.83.16zM160.67 61.62c0 .05.54.2.51.2a6.44 6.44 0 0 0 .67 2c.07 0 .15.15.08.15s0 .11.08 0c-.28.29.42.29.16.4.17-.11.15-.11 0 0-.06 0 1.3 1.23 1 1.65.06-.06.06 0 0 0s.54.79.75.83c-.06 0 0 .2 0 .2s.25.2.36.12c-.08 0 .56.78.75.78 0 0 1.1.59 1.1.91.11 0 0 0 0 .08 0 .8 1.07.34.51-.28-.21 0 .5-.27-.15-.27a.5.5 0 0 0 .27-.08c-.12 0 .08-.08-.08-.08.18 0-.62-.39-.31-.39 0 0 .08-.25-.2.19s-.12 0-.08 0c-.17.18.91.09 0 .24.13-.06.15-.06.08 0s.21.86.24.87-.28.08-.2.08c.23 0 .36-.17.51-.32h-.12c-.12 0-.5-.48-.39-.51s-.46-.26-.28-.44c.07-.14.06-.15 0 0v-.15c0 .18-.15-.09 0-.32-.06 0-.39.07-.39 0 0-.26 0-.28-.24 0 .08-.11 0-.26 0-.35s-.12 0 0-.12c-.11.11-.32 0-.19-.12s-.33.06-.16 0c0 0-.08 0-.12.08-.22.27-1.67-4.38-2.36-4.38h.07s0-.19-.15-.08c-.16-.06-.16-.1 0-.11-.52.12-.1-.48-.36-.48a.19.19 0 0 0-.23 0c.93-.62-1.23-1.61-1.27-1.61s.14.15.08.15 0 .1.12.16c-.2 0 0 .08-.2.16.48-.1.06.53.36.24a.55.55 0 0 1-.16.11c.06.01-.01.35-.06.49zm.79 1s0-.07.08-.08zM165.12 55.43c0-.09.35.16.2.16 0 0 .49.15.28.15-.06-.3.68 3.36.67 3.36.36.81.94 2.33 1.26 3.31.18 0 .12.33.32.23-.16.08-.08.16 0 .16-.17.08-.16.11 0 .08-.06.06.21 1.1.75.83-.45.15.21.84.28.9.24 0 .26 0 .08.08.34.74.86 2.13.67.4h.2c-.5 0 .37-.3-.28-.44a.55.55 0 0 0 .28-.07c-.12 0 .07-.08-.08-.08-.8 0 .38-1.19-.52-.28.05-.05.29.32.12.32q.26 0 0 .15h.12c-.19 0-.2.42-.2.56-.15 0 .64.47 0 .47a.78.78 0 0 0 .52-.12c-.26-.51-.6-1.34-.44-1.34q-.13.12-.12-.12c0 .17-.48-.15 0-.15-.05-.12 0-.18 0-.16s-.19 0-.08 0c-.17 0 0-.16-.35-.16.05 0 .17-.64 0-.2h-.12c.28-.18-.16-.31 0-.47 0 0 0-.08-.16 0 .05-.13 0-.24-.15-.32a.15.15 0 0 0-.12 0c.13-.1-.08-.77-.08-.78-.24 0-.29-.6-.28-.6 0-.16-.12-1.18-.31-1.14.25 0-.06-.34 0-.32-.33 0-.62-2.48-.87-2.4.07 0-.64-.63 0-.63a.38.38 0 0 1-.32-.2c.24 0-.72-.7-.43-.94 0-.17-.28-1-.28-1 0-.54-.29 0-.59 0-.09 0 .29.12 0 .12.15 0 .24.35 0 .39.55 0 0 .55.36.36a.59.59 0 0 1-.16.08c.2 0 .21 0 0 .12-.09-.31-.17-.31-.17-.31zm.67 1.14zM170.8 54.72c0-.22.24.27.44.27h.08a27.8 27.8 0 0 1 .55 3.15c.11 0 .9 1.57.47 1.89a3 3 0 0 1 .28 1.34c.2 0 0 .33.23.28s-.32.37 0 .24a2 2 0 0 0 .24 1h.28c-.24 0 0 .08-.36.08 0 0 .21.12 0 .12.24 0 .26.9.28.83a6.28 6.28 0 0 0 .27 1c-.57.33 1.6 2.06-.12.51.44-.1.39-.12.56-.12h-.08c-.16 0 .4-.23 0-.43.67.33 0-1 .43-.59-.16-.14-.16-.16 0 0 0-.11-.11-.17-.2-.16a3.43 3.43 0 0 1-.35.51c.5.26-.82.52.2.52-.16 0-.05-.16 0-.16-.25 0-.29-1.77 0-1.77-.11 0-.36-.87-.16-.87 0 0 0-.08-.16 0 .05-.08.05-.17-.16-.28s0 0-.15 0c.21-.1.07-.79.07-.79-.17 0-.2-.63-.15-.63 0-.17.17-1.14-.08-1.14.23 0 0-.33 0-.32s-.11-.05 0 0c-.2 0-.37-2.51-.67-2.41 0 0-.71-.63 0-.63-.24 0-.31-.16-.28-.16a.22.22 0 0 0-.27 0c.64-.42-.59-.52-.2-.91-.24-1-.6-1.29-1.15-.74.17 0 .25 0 .12.15a.18.18 0 0 1 0 .36c.15 0 .51.14.12.27h.24c-.08.08 0 0-.16.08.04-.16.39.29-.16-.49zM176.83 55.15s.2.14.24.32c.38 0 .17.05.12 0s-.51 1-.28 1.22 0 1.53 0 1.66h-.11c-.03 0-.12.07 0 .07a2.58 2.58 0 0 1 0 1.74c.18 0 0 1.25 0 1.22.19 0 0 .28.2.28-.4 0 .11 1-.12.75 0 0 .05.31.08.31-.14 0-.05 0 .28.08-.47-.08-.23 1-.24.95h.12c-1 0 1.64.54.32-.12.52.26.11-.84.19-.71s-.41.45-.35.47c-.09 0-.19.86-.12.91h-.12q0-.11-.12 0c.41 0-.32.12.08.12.32.15.27-.12.44-.28s-.19-1.18.19-1.18c-.32 0 0-.13 0-.24s-.12-.35-.27-.27c.11 0 .15-.28.19-.32s-.12-.35 0-.35-.12-.08 0-.08c-.13 0-.16-.05-.08 0s0 0-.15 0c.89-.3-.61-2.13.63-2.13-.3 0 0-.1-.12-.16.16.09.12 0-.12-.16.3 0-.09-.31.12-.31a14.55 14.55 0 0 0 0-2.29c.07 0-.2-.43 0-.43-.12 0-.06-.21.32-.12-1.13-.56.42-2.29-1-2.29-.11 0 .14.28-.12.28.24.07.21.12-.08.16.41.08.16.19 0 .19.74 0-.41.32.2.12h-.16c.22.04.01.35-.16.59zm1.07 1zM183 55.55c0 .08.14.13.16.35.35 0 .19.11.12 0a2.36 2.36 0 0 0-.63 1.58c.2.1-.11.08-.08.12s.11.15 0 .08.18.61-.08.35c.07.06.05.06-.08 0 .14.07-.13.47.12.47-.33 0 0 .26-.08.16s-.18.64-.31.67 0 .91-.08.91-.25.3 0 .35c0 0-.44.16-.08.16-.24 0 .08.75 0 .75a3 3 0 0 1 0 .67 1.66 1.66 0 0 0-.12.51c-.18-.17.13.2-.12.2h.12c-.12 0 .72.54.16.16h.12c-.3 0 .32-.2-.08-.4.52.26.08-.68.2-.55s0 .06-.16.08c-.27.3-.66.79 0 .79h.12c-.16 0-.16 0 0 0h-.12a.46.46 0 0 1 .12-.39s.12 0 0-.08c.16.08.07-.36.23-.36.39 0-.23-.12.08-.12-.46 0 .46-.18.16-.12-.4-.2 0-.08 0 0a1.13 1.13 0 0 1-.2-.44c.08.1.05.11-.07 0 .38 0 .06-.27.31-.27-.14 0-.11-.2 0-.2s-.08-.08 0-.08h-.08-.12c.7 0-.09-1.54.91-1.54h-.08c-.14 0-.16 0 0-.08s.21-1.14.2-1.14.39-.11 0-.12c.27 0 .31-.7.31-.59s.12-.08-.07-.12-.06-.15.07-.08c-.21-.08-.27-.12-.15-.11s-.19-.16 0-.16c-.07 0-.13-.16.23 0-.3-.15-.26-.93-.12-1 .28-.81.12-1-.47-1-.14 0 0 .08 0 .08s0 .26-.23.15c.15.06.35.34 0 .24.11 0 .11.08.19.08h-.15c-.12-.09-.17-.02-.17.04zm.16.9zm0 0a.06.06 0 0 1 .08 0zM188 56.65s.22.44.24.47c.19-.1-.83.79-.67 1 .37.56-.65 1.2-.67 1.18s-.08.65-.12.44c.2.1-1.38 2.37-1.7 2.76.45.45-1.26 1.12-.35 1.57-.2-.15-.08 0-.32-.15 0 .09-.16.9-.31.74.08.08 0 .08.08.2-.22-.22-.58.78-.63.75-.24-.06-.48.56.11.55-.11 0-.15-.08-.11-.27a.36.36 0 0 0 .27.19c-.08-.07.08 0 0-.11s.4-.7.4-.44c0-.19-.16-.18-.32-.16s-.5.32-.55.28c.29.29.27.07.35.16-.24-.25.37-.55.36-.55s.53-.44.43-.44c.08 0 0-.08.12-.08-.13 0-.2-.27.12-.08 0-.07.12 0 .12-.07 0-.27.19-.62 0-.71.41.1.36-.48.55-.48s0-.12 0-.08l-.08-.08c-.22-.22 1.08-1.65 1.3-1.65-.21-.06 0-.07 0-.08-.46-.46 1.42-2.54 1.07-2.68 0-.16 0-.2.07-.12-.17-.17-.21-.21-.11-.12-.09 0 .6-.63.31-.63 0 .42.08-.8.28-.83s.16-.94.31-.86c-.31-.35-.61-.4-.71-.2.09.08 0 .37-.19.27.15.08 0 .16.11.24s.25.16-.23 0c.12 0 .08.12.19.12h-.15c.22.09-.04.48.43-.05zm-.12 1.3h.12s-.13-.04-.13.05zM190.91 60.51c-.28.29.09.64-.67 1.19a5.94 5.94 0 0 1-.63.75 1.24 1.24 0 0 0-.32.67c0-.1-.21 0-.27-.08-.06.09-.16.35-.08.43s-1.54 1.17-1.54 1.5c0 0-.4.23-.2.43.05 0-.5-.09-.15.08-.19-.07-.63.52-.28.87-.16-.16-.08 0-.28-.2 0 .12-.29.91-.31.91s-.6.55-.51.59c-.43-.16.1.69-.52.32.11 0 .15.06.12.23s-.43-.37-.23-.08c0 0 .65.58.31.24 0 0 .3-.26-.16 0h-.08c.04 0 0 .19.16.24l-.12-.08.24.16c-.1-.08 0-.21.08-.12s.19-.88.51-.55c-.21-.22.27 0 0-.16 0-.09.22-.4.36-.4s.12 0 0-.07.42-.28.35-.28c.15 0-.07-.39.36-.08 0-.29.21-.49.07-.63.09.06.35-.08.36-.08s-.1-.18.08 0c-.11-.11-.06-.37.08-.24.06-.06.05-.11 0-.15s0-.08-.08-.12a.21.21 0 0 0 .31-.12c-.13 0 .27-.16.24-.2s.29-.54.35-.47c0-.2.28-.51.75-.28-.22-.11 0-.17 0-.15.15-.23.67-1.06.79-1.27.29 0 .38-.06.28-.23.2 0 .29-.3.27-.32 0 .13.07.11 0-.08s0-.15.12 0c-.14-.2-.17-.25-.08-.15s0-.33.16-.12c-.06-.13-.06-.15 0-.08s0-.28.24.12c-.18-.37.73-1.43.63-1.54l.08.08c0-.19.15-.22.12-.28.26-.31-.19-.27-.36-.43s-.12 0 0 .12c-.41-.41.19.31-.16 0v.12c-.08 0 0 .07-.16 0 .15.15-.32.27-.11.27a.15.15 0 0 1-.12 0c.23.31.21.32-.08 0 .08.08 0 .12.16.2a.57.57 0 0 1-.16-.08c.17-.12.17.16.08-.4zm-.39 1zm0 0zm.71.35zM188.43 69.74c-.22 0 .17-.12.11-.35v-.08c.09 0 0 0 .12.11.14.23.28 0 .28 0a2.08 2.08 0 0 0 .39 0c0-.28.63-.45.56-.44v.12c0-.09.07-.08.15 0s.29-.35.28-.2c-.06-.17-.05-.15 0 0s0 0 0 .12c-.29-.56 1.77-.34 1.77-.9 0 0 .07.06.12.08s.08 0 0-.12c.09 0 .11-.07.08-.16.08.16.12.12.12 0 .07.16.1.16.08 0 0 0 .51-.24.51-.32a.84.84 0 0 0-.08-.31c.26.77.16 0 .16.27 0-.3.42-.44.39-.55a.4.4 0 0 0 0 .12c-.14.06.61-.27.55-.39.29.34.2-.23.2-.28s.08.12.08.16-.09-.22 0-.12c0-.24.34.4.2-.16.06.26.23.21.23.28 0-.38.28-.55.28-.24 0-.21 0-.21 0 0 0-.2 0-.2-.2-.28.11.31-.08 0-.08-.07 0-.27.11.65-.19 0 .06.12.06.15 0 .07.07.15 0 .16-.08 0 .13.27-.06 0-.08 0s-.44.18-.44.24-.29-.23-.15 0a.14.14 0 0 1 0-.08c0 .17-.06.22-.16.16 0 .24-.14 0-.16 0a1.25 1.25 0 0 1-.35 0c.17.35-.3-.06-.08.16s-.12 0-.12-.08c0 .26-.1.27-.32 0v.08c0 .39 0 .22 0 0 0 0-.14 0 0 .16s-.17-.31-.12.08c0-.12.06-.11.08 0s-.37-.16-.24 0 0 .11-.08 0c.07.06 0 .27-.16.15 0 0-.08.15 0 .12s0 0 0 .12c-.34-.43-.9.47-.9.2a.52.52 0 0 1-.67-.08c.11.09.1.1 0 0v-.08s-.08 0 0 .23c0-.25-.23 0-.2 0s-.33.41-.59.24c0 0-.39.38-.43.51 0-.18-.11-.21-.24-.07-.05-.13-.07-.11-.08.07s-.11.11-.12 0c.08.31-.13.37-.31.32.15 0 .13-.06 0-.24v.32c-.11-.22-.4.41-.52.27-.11.1-.3.24-.35.12 0 .22-.17.17-.16.2-.2.11-.06.41.16.63a.12.12 0 0 1 0 .08v-.16c.18.37-.2-.16.12.12v-.12c.24.49 0-.55.27.16v-.24c.05.1.25.34 0-.15.08.11 0 .15.12.31v-.24a.59.59 0 0 1 .08.16c-.26-.45.05-.14.17-.03zm.59-.63H189zm0 0a.12.12 0 0 1 0-.08s-.02.04.04.08zm-.44-.67zM190.52 74.23c-.13 0 .06-.25 0-.23V73.84 74c0-.17.06-.16.08 0s.18 0 .24-.08.78-.09.79-.08.4 0 .39 0 .2-.42.2-.08c0 .13 0 .16.08.08s.16-.19.12-.27c.18.37.15-.17.15 0s.45-.18.56 0c0 0 .51-.18.55-.35 0 .05.07.08.12.12s0-.15.07-.12.08 0 0-.12c.05.16.08.12.08 0 0 .16.06.16 0 0 0 0 .44-.11.44-.2a.67.67 0 0 0-.08-.27c.25.75.16 0 .16.31 0 0 .1-.47.19-.12 0-.31.14-.29.12-.35a.4.4 0 0 0 0 .12c-.1-.23.34 0 .24-.16.05 0 .21 0 .16-.12.19.34.15-.26.15-.27v.08c0 .08 0-.1.16.11-.08-.06-.09-.15 0-.27 0 .09.28.3.28.23a.46.46 0 0 0-.44-.47c0-.31-.15.33-.15-.08 0 .57 0 0 .19.24 0 0 0-.08-.08-.12s.08.19.08.12c.11 0 .11 0 0 0h.08c-.18-.09-.31-.09-.31-.16V72s-.29-.24-.16 0a.14.14 0 0 1 0-.08c0 .13 0 .19-.12.2 0 .15-.05.15-.08 0 0 .08-.1 0-.08 0s-.18 0-.23-.08c.16.33-.24 0 0 .15s0 .1 0 0-.15-.27-.08-.07c0 0-.16.39-.16 0-.06 0-.09 0-.08-.08v.08c.14.22.14.28 0 .19-.31-.32.12 0-.12 0 0 0-.17-.31-.11.08 0-.07.07 0 .07.08-.14-.22-.34-.16-.31 0s0 .05-.08 0-.12.18 0 .12 0 0 0 .12c-.15-.3-.48.14-.51 0 .12.5-.07-.06 0 0 0-.12-.08.2-.08.23v-.15.07c-.06.1-.27.24-.51-.23.09.19-.09.17-.08.16v-.09c0 .19-.12.18-.2.15s-.51.24-.55.27c-.05-.12-.42-.3-.32.12q0-.24-.15-.12c0-.12 0-.1 0 0s-.2 0-.08.16c-.09-.09-.32-.35-.32.2-.06-.24-.8.07-.9.11s.11.58.11.63.07.11 0-.11c0 .51 0-.27 0 0V74.07c0 .08 0 0 .08.11v-.15c0 .19 0 0 .08.23v-.19a.12.12 0 0 0 0 .11.59.59 0 0 1 0-.27 2.7 2.7 0 0 0 .08.31v-.23a.59.59 0 0 1 .08.16c-.04-.27.13 0 .19.08zm.59-.47a.12.12 0 0 1 0-.08.14.14 0 0 1 0 .08zm-.28-.75zM189.21 79.71c-.05 0 .16-.12.2-.27 0-.12.08-.31.08-.12v.12c0 .25.2 0 .2 0a8.35 8.35 0 0 1 .86.27l.08-.07c.08-.07 0 .07 0 0 .09.14.12 0 .12-.15v.27c0-.08 0 .12 0 0 .22-.08.21-.06.32-.19v.08c0 .06.19-.09.19.11.11-.12.19-.1.24.08 0-.1.59 0 .59-.15v.11c0-.18.16 0 .16-.19 0 .19 0 .15 0 0 0 .15 0 .15 0 0 0 .1.39 0 .39 0v-.28.36-.12c.09.26 0-.17 0 .12v-.08c.08-.18.12-.16.12.08 0-.16.12-.52.12-.16v-.16s.24.18.24 0c0 0 .16 0 .16-.08.05.18.23.12.16-.12v.12c0-.15 0-.11 0 0 0-.12.05-.1 0 0-.07-.12.16.35.16-.16a.62.62 0 0 0 0 .36v-.08c0 .36.2-.64.2-.16v.2c0-.21.05-.21 0 0a.45.45 0 0 0 0-.2c-.05.13-.08 0-.12-.12v.12a.41.41 0 0 0 0-.23v.2-.27c0 .15 0 .15-.08 0v-.08c0-.08.4.13.4.13a.17.17 0 0 1-.08-.15c0 .21-.05.21 0 0V79c-.11-.29 0 .2 0 .31v-.42.11c0-.15-.06-.15 0 0 0 .18-.09.19-.16.11s0 0 0 .12a.82.82 0 0 0-.12-.16c0-.26-.27.22-.27 0v-.12c0 .11-.16.44-.16 0a.15.15 0 0 1 0-.12v.31c0-.4-.11-.1-.08-.23 0 .06-.08.41-.08.23 0 .12 0-.11 0 0v-.15s-.14.22 0 .08v.11c.06-.07.07 0 0 .08 0-.09-.16-.33-.16-.08v-.15V79.11c0-.17 0 .11 0 0v.24c0-.2-.35-.23-.36-.24-.07.26-.1.27-.08 0v.2c0-.35-.21-.2-.15-.24 0 .65-.08-.27-.08 0 0 .69-.28-.72-.28.08 0-.36-.13-.42-.2-.39s-.08 0-.08.2c0-.16-.09-.1-.11-.08s-.06.05 0 0c0 .31-.44-.33-.44 0 0 0-.15-.45-.08 0 0-.32-.11.12-.11-.16v.12a1.12 1.12 0 0 0-.08-.24c-.13.56-.23-.1-.28.2 0-.09-.27.21-.27 0 0 .25-.08-.09-.08 0a.78.78 0 0 1 0-.28c-.1.19-.16.08-.16.32s-.15-.27-.24.08c0-.07-.16-.32-.16-.12-.14-.18-.22-.18-.23 0 0-.12-.16 0-.16-.08s-.12.94-.12.59c0 .12 0 .1 0 0v.16c.05-.2.07-.16 0 .12.11-.58.12 0 .12 0 .09-.38.11-.37 0 0v-.24.16c-.26-.13-.26-.07-.05.2zm.56-.27zm0-.79z"/><path class="q" d="M164.73 68.79a8.79 8.79 0 0 0-1 1.19 14 14 0 0 1-.59 1.53c-1.07 1.47-.75 5.49 3.95 7.85.15-.1.25-.06.27.12 3.57.51 9.13-2.4 8.08-5.48-.37-1.61-.18-2.31-1.93-3.51.23.22-.4-.2-.16-.08-1.2-.4-3.5-2.29-5.24-1.42a6 6 0 0 0-3.11 3.79c-1.28 9 13 1.38 7.53-2.25.08 0 .12 0 .19.08-3.46-5.2-8.7 1.5-7.53 3.86a3.07 3.07 0 0 0 2.09 1.26 7.77 7.77 0 0 0 2.64-.27c1.59-.8 1.26-2.24 1-3.16 0 .08.12.16.16.24a3.1 3.1 0 0 0-.32-.63c.18.54-1.11-1.54-2-1 .28-.14-.95.17-.55 0-1.56.31-2 1.17-1.81 2.88.16-.23 0 .49.31.75-.7-.25-.24.11 1.38 1.06 1.9-.05 3.59-1 3.23-2.44.24-.12.28-.17.12-.16.21-1-1.2-1.64-1.65-1.73.28 0-.92.41-1 .63.4-.79-.35.23-.35-.08-.87 3.47 1.91 1.1 2.72 1.1.08 0-2.46.43-.59 0 .28-.07.82.08.35.08h-.12c.06 0-.53.45-.43.4-1.39.83-2.75-.72.71-.63.64 0-.41 2.31-.24 2-.07.07-.44.28-.24.08a2.21 2.21 0 0 1-3.58-2c.75-2 3.28-1.51 3.58-.27a2.21 2.21 0 0 1-.39 1.65c-.16.33-.74.4-.79.4s-.8.16-.63.16c-1.87-.32-1.38.47-3-1.19a1.44 1.44 0 0 0 .39.48c-.61-.41-.16 0-.16.19-.16-.66-.66-1.31-.27-2.2 0-.12 1.38-1.7 1.26-1.58a11.5 11.5 0 0 1 1.14-.75 21.17 21.17 0 0 1 2.92.59c3.72 2.61.75 4.22.2 4.77-1 .72-5.77 1.69-5.33-1-.29.87 0-.67 0-.71v.19a4.06 4.06 0 0 1 .32-1.34c1.28-2.87 6.13-4.44 7.84.12a5 5 0 0 1-3.1 6.49c-2.85 1-6.31-1-6.55-2.45 0 0 .63.67.44.48-1.54-1-1.91-5.37 0-6.55a.5.5 0 0 0-.12.08c3.56-3.56 4-.87 6.43-.87-1.7 0 3.06 3.26.67-.31-1.69-2.53-5.75-1.23-7.14-.44zm-.24 8.84c-.07 0-.11-.12-.15-.12a.65.65 0 0 0 .15.12zm.63.51c-.32-.16-.38-.22-.15-.2-.04-.04.08.12.15.2zM184.05 71a8.77 8.77 0 0 0-.47 4.14c0 2.82 4.2 3.9 8.28 1.85 0-.18.08-.24.23-.19 3.88-4.66-6.56-7-7.57-5-.85 1.49-1.49 2.61-.27 4.34-.18-.35.57.42.27.19 1.33.89 3.43 2.47 5.68 1.19 4-1.63.63-.78 1.73-1 .76-.75 2-1.81 1.27-3-1.85-2.56-9.94-7-9.94-.24a4 4 0 0 0 1.62 3.72c-.23-.11 1.53.71 1.65.71.87-.17 3.35-.43 3.87-1.45 4-12-8.12-3.65-4.06-1 1.89 1.5-.58-.72.78.24.59.29 1.73.77 2.25 0-.12.24.48-.38.55-.44s0 0-.07.12c1.52-1.29-.08-4.32-1.7-3.35-1.79.89-.93 1.14-1.77 2.4-1.14 2.65 2.53.49 2.6.4.78-1.09.55-3.73-1.46-2 .66-.67-.42.08-.28-.2-1.43 1.72-.76 4.56.36 2.88 1.75-3.52.82.38-.71 0-4.23-.71 6.62.28.47.28-1.77 0 .72-5.27 2.21-2.88 1.64 2.18-1.93 2.8-2.68 2-.89-1-1.09-1.88-.55-2.49a1.46 1.46 0 0 1 .27-.63 2.23 2.23 0 0 1 1.38-1c.08 0 1.39.54 2.25.86a6.26 6.26 0 0 0-.67-.27 2.38 2.38 0 0 1 1.22 3.55c-.2.2-.82 1.15-.94 1.18-6.57.82-5.85-2.81-4.5-4.42 2.68-2.68 5.8.68 7 1.86l-.16-.12a2 2 0 0 1 .47 1.18c-.45 3.15-8 3.73-7.61-.43 1.22-3.67 4.44-1.42 6.87-.2.83.42 1 1.54.43 1.89-.28.2-.08.28-.43.52 0 0 0-.12.07-.16a4 4 0 0 1-2.6 1.14q1.15.15.63-.39c.22-.15-1.26.61-1.1.39-1.05 0-2.12.73-3.51-.63-1-.69-1.2-3.07-.67-4.06 1.84-3.62 10.55 3.82 6.35-.36-1.09-1.08-2.17-2.32-3.87-2.32-1.28.06-1.97-.1-3.17 1.2zm4.73 6.94a1.73 1.73 0 0 0-.2 0h.2zm.87-.16c-.36.15-.45.15-.28 0z"/><g><path class="r" d="M407.54 328.88v-32.25H387V328a100.9 100.9 0 0 0 20.54.88zM131.89 333.19v-36.56H111.4v27.86a158.26 158.26 0 0 0 20.49 8.7z"/></g><g><path class="i" d="M348.8 122.57l-75.08 2.09 1.55 56 75.09-2.09z"/><path class="s" d="M346.34 129.22l-68 1.88.17 6 68-1.88z"/><path class="i" d="M286.89 133.68l-6.73.19v1.77l6.73-.19zM300 133.33l-6.73.18.05 1.77 6.73-.18zM313.11 133l-6.73.19.05 1.77 6.73-.19zM326.22 132.58l-6.73.19.05 1.77 6.73-.19zM344.29 132.08l-14.88.41v1.77l14.87-.41z"/><path class="t" d="M346.66 141.25l-68 1.88"/><path class="u" d="M287.07 139.7l-6.73.19.05 1.77 6.73-.19zM300.18 139.35l-6.73.18.05 1.78 6.73-.19zM313.29 139l-6.73.19.05 1.77 6.72-.18zM326.4 138.6l-6.73.19v1.77l6.73-.19zM344.46 138.1l-14.87.41.05 1.77 14.87-.41z"/><path class="t" d="M346.83 147.27l-68 1.88"/><path class="u" d="M287.24 145.73l-6.73.18.05 1.77 6.73-.18zM300.35 145.37l-6.73.19.05 1.77 6.73-.19zM313.46 145l-6.73.19v1.77l6.73-.19zM326.54 144.63l-6.73.18.05 1.78 6.73-.19zM344.61 144.13l-14.88.41v1.77l14.87-.41z"/><path class="t" d="M347 153.3l-68 1.88"/><path class="u" d="M287.42 151.75l-6.73.19.05 1.77 6.73-.19zM300.49 151.4l-6.72.18v1.77l6.73-.18zM313.6 151l-6.73.18.05 1.77 6.73-.18zM326.71 150.65l-6.73.19v1.77l6.73-.19zM344.78 150.15l-14.87.41v1.77l14.87-.41z"/><path class="t" d="M347.15 159.32l-68 1.88"/><path class="u" d="M287.56 157.77l-6.73.19.05 1.77 6.73-.19zM300.67 157.42l-6.73.19.05 1.77 6.73-.19zM313.78 157l-6.73.19.05 1.77 6.73-.19zM326.89 156.67l-6.73.19v1.77l6.73-.19zM345 156.17l-14.88.41.05 1.77 14.88-.41z"/><path class="t" d="M347.33 165.34l-68 1.88"/><path class="u" d="M287.74 163.8l-6.74.2.05 1.77 6.73-.18zM300.85 163.44l-6.73.19.05 1.77 6.73-.19zM314 163.05l-6.73.19v1.77l6.73-.19zM327.07 162.7l-6.73.18.05 1.77 6.73-.18zM345.1 162.19l-14.87.42v1.77l14.88-.41z"/><path class="t" d="M347.51 171.33l-68 1.91"/><path class="u" d="M287.92 169.82l-6.73.19.05 1.77 6.73-.19zM301 169.43l-6.73.19.05 1.77 6.73-.19zM314.1 169.08l-6.73.18.05 1.77 6.73-.18zM327.21 168.72l-6.73.19v1.77l6.73-.19zM345.28 168.22l-14.88.41.05 1.77 14.88-.41z"/><path class="s" d="M291.11 176.62l-12 .33v1.42l12-.33zM347.94 175.23l-2.48.07v1.41l2.48-.06zM289.94 127.58l-12 .34v1.41l12-.33z"/><path d="M280 122.92l-8.18 7.29-2.59-2.9 8.19-7.3z" style="isolation:isolate" fill="url(#f)" opacity=".4"/><path d="M355.87 176.5l-8.18 7.3-2.59-2.9 8.18-7.3z" style="isolation:isolate" fill="url(#g)" opacity=".4"/></g><g><path class="x" d="M415.72 169.18l17.61 3.39L438 148.7l-23.87-4.64-3.42 17.6z"/><path class="y" d="M414.42 162.41l1.3 6.77-5.05-7.52z"/></g><g><path class="x" d="M418.49 197.42l-3.42-17.59-23.86 4.63 4.63 23.87 17.61-3.39z"/><path class="y" d="M418.49 197.42l-5 7.52 1.3-6.77z"/></g><g><path class="z" d="M387.85 236.77l-1.47-.13L384.3 260l1.48.14z"/><path class="aa" d="M385.75 260.1h.59l2.08-23.33h-.59z"/><path class="ab" d="M383.69 259.91h.59l2.08-23.32-.59-.06z"/><path class="ac" d="M388.68 234.17l-2.66-.23-.18 2.06 2.66.24zM388.2 236.22l-2.07-.19-.05.59 2.07.19z"/><path class="j" d="M386.3 234l2.08.18.05-.5s0-.09-.05-.09l-1.93-.18s-.09 0-.09.06z"/><path class="i" d="M386.34 237l-.88-.07-.9 10 .89.08zM367.92 238.79l1.31-5.67h.29l1.66 5.58z"/><path class="l" d="M371.18 238.68l-3.26.11 1.48 43 3.26-.11zM369.52 233.09h-.29l-.39 1.61 1.22.2z"/><path class="i" d="M371.86 238.67l1.87-5.55h.3l1.1 5.73z"/><path class="ad" d="M371.88 238.67l-2.82 42.88 3.25.22 2.82-42.89zM374 233.15h-.3l-.53 1.61 1.18.29z"/><path class="i" d="M363.54 240.21l1.48-5.63h.29l1.49 5.63z"/><path class="ae" d="M366.8 240.21h-3.26v43h3.26zM365.31 234.58H365l-.42 1.6 1.19.23z"/><path class="i" d="M374.06 240.15l1.81-5.54h.29l1.16 5.69z"/><path class="af" d="M374.06 240.15l-2.4 42.91 3.26.19 2.4-42.92zM376.16 234.64h-.29l-.54 1.57 1.22.32z"/><path d="M386 284.52h-25.52l-3.61-36.34h32.75z" fill="#9cc766"/><path d="M365.79 248.18h-8.92l3.61 36.34H386s-20.75-.85-22.46-6.09 2.25-30.25 2.25-30.25z" style="isolation:isolate" fill="#346a2d" opacity=".4"/></g><path class="z" d="M327.16 242.64l1.76-.24-3.78-27.73-1.76.23z"/><path class="aa" d="M323.35 214.87l-.7.1 3.78 27.73.7-.1z"/><path class="ab" d="M325.83 214.51l-.7.1 3.78 27.73.7-.09z"/><path class="ac" d="M322.59 214.3l3.17-.43-.34-2.46-3.16.43z"/><path class="ac" d="M323 214.94l2.46-.34-.1-.7-2.45.34z"/><path class="j" d="M325 211.44l-2.44.32-.07-.61s0-.1.07-.1l2.27-.32s.1 0 .1.07z"/><path class="ai" d="M326.8 226.94l1.05-.15-1.63-11.93-1.05.14z"/><g><path class="l" d="M349.22 214.35l-4.72-.51a3 3 0 0 0-3.26 2.64s.6 13.78.66 16.19.86 4 2.43 4.15l2.87.32c.74.09 1.42-.65 1.51-1.63l2.11-19.15a1.85 1.85 0 0 0-1.6-2.01zm-1.63 14.91c-.06.56-.45 1-.86 1l-1.6-.18c-.89-.09-1.34-1-1.37-2.37s-.32-9.31-.32-9.31a1.65 1.65 0 0 1 1.84-1.51l2.63.29a1 1 0 0 1 .89 1.13z"/><path class="i" d="M347.32 237.11s3.59 3.68 3.14 7.65-5.21 5.84-5.21 5.84 1.18-10.91-1.16-13.84z"/><path class="l" d="M351.2 216.36l-2.1 19.15a1.6 1.6 0 0 0 1.13 1.93l2.87.32c1.57.18 2.7-1.18 3.29-3.52s4.12-15.65 4.12-15.65a3 3 0 0 0-2.64-3.27l-4.71-.5a1.71 1.71 0 0 0-1.96 1.54zm1.55 2.29a1 1 0 0 1 1.09-.92l2.64.29a1.7 1.7 0 0 1 1.48 1.87s-2 7.68-2.34 9-.95 2.14-1.84 2l-1.6-.18c-.41-.06-.68-.53-.62-1.1z"/><path class="i" d="M350.08 237.41s-4.3 2.81-4.72 6.79 3.83 6.81 3.83 6.81 1.18-10.9 4.12-13.25z"/><path class="z" d="M361.17 228.22l-1.47-.13-2.08 23.32 1.48.14z"/><path class="aa" d="M359.07 251.55h.59l2.08-23.33-.59-.05z"/><path class="ab" d="M357 251.36h.6l2.07-23.33-.59-.05z"/><path class="ac" d="M362 225.62l-2.66-.24-.18 2.07 2.66.24zM361.52 227.67l-2.06-.19-.06.59 2.07.19z"/><path class="j" d="M359.62 225.4l2.08.18.06-.5s0-.09-.06-.09l-1.93-.18s-.09 0-.09.06z"/><path d="M359.66 228.4l-.88-.08-.9 10 .89.08z" fill="#b8a7cb"/><path class="i" d="M334.43 237.85l.89-5.75h.29l2.05 5.46z"/><path class="af" d="M337.64 237.53l-3.25.32 4.28 42.77 3.25-.33zM335.61 232.07h-.29l-.24 1.63 1.21.12z"/><path class="i" d="M330.34 237.74l1.12-5.73h.3l1.84 5.55z"/><path class="ae" d="M333.6 237.53l-3.26.21 2.73 42.89 3.26-.2zM331.76 232h-.3l-.32 1.63 1.21.15z"/><path class="i" d="M341.3 236.7l1.49-5.63h.29l1.48 5.63z"/><path class="ad" d="M344.56 236.7h-3.26v43h3.26zM343.08 231.07h-.29l-.42 1.6 1.19.23z"/><path d="M358.17 284.87H327.7l-4.33-43.43h39.13z" fill="#6e4b91"/><path d="M331.74 241.46s-1.34 23.17 2.65 29.45c4.79 7.52 24.32 8.22 24.32 8.22l-.54 5.74H327.7l-4.33-43.43z" fill="#533478"/></g><g><path class="i" d="M473.36 283.53H394.7l.71-1.42s-3.19-1.41-3.19-8.14 3.19-8.15 3.19-8.15l-.71-1.42h78.66"/><path class="am" d="M473.36 266.29H394a1.07 1.07 0 0 0-.38 0v.45a1.07 1.07 0 0 0 .38 0h79.35zM473.36 267.61H394a1.07 1.07 0 0 0-.38 0v.45a1.07 1.07 0 0 0 .38 0h79.35zM473.36 268.93H394a1.07 1.07 0 0 0-.38 0v.45a1.07 1.07 0 0 0 .38 0h79.35zM473.36 270.13h-79.92a1 1 0 0 0-.38 0v.45a1 1 0 0 0 .38 0h79.92zM473.36 271.45h-79.92a1 1 0 0 0-.38 0v.45a1 1 0 0 0 .38 0h79.92zM473.36 272.77h-79.92a1 1 0 0 0-.38 0v.45a1 1 0 0 0 .38 0h79.92z"/><g><path class="am" d="M473.36 274h-79.92a1.75 1.75 0 0 0-.38 0v.46a1 1 0 0 0 .38 0h79.92zM473.36 275.29h-79.92a1 1 0 0 0-.38 0v.45a1 1 0 0 0 .38 0h79.92zM473.36 276.61h-79.92a1 1 0 0 0-.38 0v.45a1 1 0 0 0 .38 0h79.92z"/></g><g><path class="am" d="M473.36 278H394a1.07 1.07 0 0 0-.38 0v.45a1.07 1.07 0 0 0 .38 0h79.35zM473.36 279.27H394a1.07 1.07 0 0 0-.38 0v.45a1.07 1.07 0 0 0 .38 0h79.35zM473.36 280.59H394a1.07 1.07 0 0 0-.38 0v.45a1.07 1.07 0 0 0 .38 0h79.35z"/></g><path d="M473.36 284.77H394.7a1.25 1.25 0 0 1-1.06-.6 1.3 1.3 0 0 1-.07-1.2l.25-.46C392.65 281.44 391 279 391 274s1.67-7.48 2.84-8.54l-.25-.46a1.22 1.22 0 0 1 .07-1.21 1.29 1.29 0 0 1 1.06-.6h78.66a1.24 1.24 0 1 1 0 2.48h-76.73a1.13 1.13 0 0 1-.07.6 1.17 1.17 0 0 1-.67.71s-2.45 1.31-2.45 7 2.45 7 2.48 7a1.13 1.13 0 0 1 .64.71 1.2 1.2 0 0 1 0 .6h76.74a1.24 1.24 0 1 1 0 2.48z" fill="#016065"/><path d="M407.11 274H417l-2.13 5.31z" fill="#81c9c3"/></g><g><path class="i" d="M455.51 248.47a16.41 16.41 0 0 1-3.71-.42l.81-4.54c.05 0 4 2.83 7.28.22 1.28-1 1.92-2.74 1.89-5.15 0-2.67-.73-4.43-2-5.34-2.3-1.63-6.53 0-6.7 1.55l-1.51-4.79c.25-.1 6-2.43 10.12.28 2.36 1.56 3.57 4.33 3.61 8.24 0 3.57-1.05 6.25-3.24 8a10.61 10.61 0 0 1-6.55 1.95z"/><path class="s" d="M461.69 230.3a4 4 0 0 0-.35-.2 10.77 10.77 0 0 1 2.47 9.35c-1.17 6.54-4.26 8.45-12 8.37v.23a16.41 16.41 0 0 0 3.71.42 10.61 10.61 0 0 0 6.55-2c2.19-1.72 3.28-4.4 3.24-8-.05-3.84-1.26-6.61-3.62-8.17z" opacity=".2"/><path class="s" d="M460.08 232.05c-3.11-2-6.51-.39-7.77.37l.74 2.37c.17-1.59 4.4-3.18 6.7-1.55 1.3.91 2 2.67 2 5.34 0 2.41-.61 4.14-1.89 5.15a5 5 0 0 1-1.34.77c5.1-.32 5.14-10.12 1.56-12.45z" opacity=".3"/><path d="M436.45 227.3c-4.51-5.5-4.13-14.31-2-21.47s5.76-13.79 6.84-21.26c1.94-13.28-4.27-26.07-9.12-38.36s-8.45-25.15-9.36-38.49 1.11-27.18 6.91-38.78c2.31-4.59 5.33-8.94 9.46-11.29s9.52-2.3 13 1.19c2.95 3 4 7.78 4.32 12.29a61.7 61.7 0 0 1-1.85 20.56c-1.8 6.78-4.78 13.09-6.91 19.76a85.34 85.34 0 0 0-3.67 33.3c1.05 11.92 4.6 23.46 5.4 35.42 1 15.75-2.72 31.33-6.43 46.52" fill="url(#h)"/><path class="i" d="M453.48 222.09h-28.7l.78 34.92h26.75z"/><path d="M449.44 222.09c-1.59 24.12-16 28.93-24 29.85l.11 5.07h26.75l1.17-34.92z" style="isolation:isolate" opacity=".3" fill="#b3b3b2"/></g><g><path class="i" d="M148.77 217.82h3.3a2 2 0 0 0 2.05-2v-19.76a2 2 0 0 0-2-2H70.71a2 2 0 0 0-2 2v19.74a2 2 0 0 0 2 2H74l5.74 66.61H143z"/><path class="au" d="M78.26 206.48a3.83 3.83 0 0 1-2.48-1.07c-3.15-3.82-2.87-7.75-1.35-11.33h26.22c-6.13 6.55-13.42 12.4-22.39 12.4zM152.07 194.08h-6.35a5.83 5.83 0 0 1 3.05 2.83c2.48 6.38 1.77 17-12.05 19.49-4.25.78-11.83 1.2-20.3 1.42H74l.11 1.06h62.6s.71 61.65-21.61 61.65H79.43l.32 3.9H143l5.74-66.61h3.3a2 2 0 0 0 2-2v-19.76a2 2 0 0 0-1.97-1.98z"/></g><g><path d="M148.52 164.35h173.55a5.18 5.18 0 0 1 5.17 5.17v112.71H143.35V169.52a5.18 5.18 0 0 1 5.17-5.17z" fill="#e52145"/><path d="M148.52 166.12a3.41 3.41 0 0 0-3.4 3.4v110.94h180.35V169.52a3.41 3.41 0 0 0-3.4-3.4zm-6.94 3.4a7 7 0 0 1 6.94-6.94h173.55a7 7 0 0 1 6.94 6.94V284H141.58z" fill-rule="evenodd" fill="#cfd8dc"/><path d="M148.52 164.35h173.55a5.18 5.18 0 0 1 5.17 5.17v112.71H143.35V169.52a5.18 5.18 0 0 1 5.17-5.17z" stroke-width="1.76" stroke="url(#i)" fill="none"/><path d="M141.58 169.52a7 7 0 0 1 6.94-6.94h173.55a7 7 0 0 1 6.94 6.94V284H141.58z" fill="url(#j)" fill-rule="evenodd"/><path d="M144.52 179.8c3.79 1.24 8.43 1.63 11.26-1.17a10.48 10.48 0 0 0 2.27-3.79 29.07 29.07 0 0 0 2-12.26h-11.53a7 7 0 0 0-6.94 6.94v9.13a30.87 30.87 0 0 0 2.94 1.15z" opacity=".05"/><path d="M117.41 275.18h235.8v5.67a3.76 3.76 0 0 1-3.75 3.76H121.17a3.77 3.77 0 0 1-3.76-3.76z" fill="#cfd8dc"/><path d="M222.11 275.18h26.4v1.88a1.89 1.89 0 0 1-1.88 1.88H224a1.9 1.9 0 0 1-1.88-1.88v-1.88z" fill="#afbec5"/></g><path class="bc" d="M263.39 284.51H38v15.85h430.28A118.87 118.87 0 0 0 481 284.51z"/><g><circle cx="390.03" cy="260.2" r="4.38" stroke="#263239" stroke-width=".79" stroke-miterlimit="10" fill="none"/><path class="i" d="M463.12 257h-72.28a.33.33 0 0 0-.35.36V263a.33.33 0 0 0 .35.35h72.28z"/><path class="am" d="M463.12 258h-72.28a1.19 1.19 0 0 0-.35 0v.46a1.5 1.5 0 0 0 .35 0h72.28zM463.12 259.32h-72.28a1.5 1.5 0 0 0-.35 0v.46a1.19 1.19 0 0 0 .35 0h72.28zM463.12 260.64h-72.28a1.5 1.5 0 0 0-.35 0v.46a.88.88 0 0 0 .35 0h72.28z"/><path d="M464.9 262h-74.06c-.21 0-.35 0-.35.08v1.21s.14.07.35.07h74.06z" fill="#d3145b"/></g><g><path d="M126.48 155.7c-3.08-3.22-7.22-5.63-11.69-5.63a15 15 0 0 0-1.91.12 44.27 44.27 0 0 1 6.64-14.2l-1.16-.82a46 46 0 0 0-6 11.79q-1.25-8.44-3.1-16.8c.23-3.91.48-7.66.73-11.13.23-.66.48-1.31.76-2a53 53 0 0 1 5.46-8.94l-1.16-.82a65.79 65.79 0 0 0-4.73 7.39c.17-2.09.33-4 .48-5.85.09-1 .17-1.9.24-2.77 3.25-2.94 10.49-12.54 4.16-16.06.32-1.42.59-2.86.81-4.3l-1.4-.22c-.21 1.34-.45 2.66-.74 4a7.47 7.47 0 0 0-1.71-.18 37.75 37.75 0 0 1 6.84-13.7l-1.1-.9a39.73 39.73 0 0 0-7.22 14.74l-.66.1c-.85.14-1.71.33-2.58.56a224 224 0 0 1 4.82-23.28l-1.37-.34a220.84 220.84 0 0 0-4.94 24.05 33.1 33.1 0 0 0-3.67 1.43q-.84-3.25-1.78-6.48a3.54 3.54 0 0 0 .2-4.91c-3.15-4.18-8.15-2.55-11.87-.71-2.92 1.46-5.89 2.76-8.83 4.06s-6 2.61-8.9 4.1c-2.41 1.2-4.85 2.58-6.23 4.89 1.17 1.73 3.58 2 5.67 2 3.87 0 22.33-3.13 28.8-8.31.57 2 1.11 4 1.63 6a25.63 25.63 0 0 0-10.06 8.75c-1.84 2.94-6.13 13.46-1.2 15.23a5.71 5.71 0 0 0 3.5-.28 48.32 48.32 0 0 0 9.76-4.33q2.25 7.29 4 14.71c-.61 8.67-.93 17.36-1 26.06a17.74 17.74 0 0 0-6.93 8.71 19.8 19.8 0 0 0-3.75-4.63l-.91 1.09a20.54 20.54 0 0 1 4.11 5.39 15.43 15.43 0 0 0 1.09 10.33 16.15 16.15 0 0 0 6.53 6.82l-.34 13.57H107q-.37-6.72-.63-13.45c.36.21.73.41 1.1.6a94.46 94.46 0 0 0 1.86 12.85h1.45a90 90 0 0 1-1.78-12.12 33.61 33.61 0 0 0 4.52 1.59c0 3.52-.14 7.05-.32 10.57h1.42c.17-3.4.29-6.8.31-10.2 1.07.26 2.14.48 3.2.67 5.21.92 11.48 1 14.71-3.19a11.59 11.59 0 0 0 2-7c.01-7.03-3.64-13.66-8.36-18.62zm-22.26-44.51l.73-.46c.24 1.36.48 2.73.7 4.1.12.84.25 1.68.4 2.52l1.4-.23c-.13-.84-.26-1.67-.4-2.5-.23-1.65-.39-3.31-.51-5 .49-.34 1-.69 1.43-1l-.23 9.14q.47-4.91 1.07-9.79l.71-.56c0 .43-.08.88-.12 1.34-.25 2.94-.52 6.32-.8 10a21 21 0 0 0-1 4.51v-.1l.14-5.41a315.5 315.5 0 0 0-.39 4.42q-1.44-5.53-3.13-10.98zm3.27 25.5c-.25 5-.45 10.25-.56 15.45l.61-23.59c.13.56.26 1.12.38 1.68q-.26 3.19-.43 6.46zm3.85 13.76a16 16 0 0 0-3 1c.12-4.94.31-9.89.55-14.67l.06-1.14c1 4.84 1.77 9.72 2.43 14.61z" fill="#004d40" fill-rule="evenodd"/><path class="ad" d="M121.11 105.37a31.15 31.15 0 0 1 7.47-15l1 1a29.88 29.88 0 0 0-7.13 14.33z"/><path class="bg" d="M82.62 193.55a51.72 51.72 0 0 0 13.07-14.82c3-5.17 6.35-14.74 4.43-20.62a12.86 12.86 0 0 0-5.21-6.37c-7.26-5-17.36-4.54-25.12-.39s-13.43 11.48-17.22 19.45c-3 6.38-5.49 23.52.85 28.91 6 5.07 16.51.82 22.5-2a40.73 40.73 0 0 0 6.7-4.16z"/><path class="bh" d="M42.94 148.87c-2.91 2.26-4.79 5.06-4.19 8.39 1.74 10.14 18.46 11.23 26.05 9.25s26.93-16.3 14.74-24.51c-5.25-3.54-14.67-1.59-20.27-.18-3.97 1.02-11.55 3.32-16.33 7.05z"/><path class="bi" d="M104.13 105.92c-5-2.73-11.2-.49-15.95 2.59-10.63 6.91-25.86 23.38-19.34 37.38 1.7 3.65 5.74 5.85 9.74 6.16s8-1 11.62-2.83c7.73-3.93 15.84-12.22 19-20.37 2.93-7.3 2.8-18.57-5.07-22.93z"/><path class="bh" d="M140.94 103a38.38 38.38 0 0 0 24 .28c-.46.15-11.51-8.82-13.21-9.67a50.12 50.12 0 0 0-16-4.85c-3.86-.5-14.17-1.35-9.53 4.85 3.3 4.39 9.71 7.6 14.74 9.39z"/><path class="bi" d="M144.16 73.47a6.89 6.89 0 0 0-2.69-1.14c-10.42-2.58-18.39-1.06-27.81 3.94 1.27-.68 8.36 2.33 10 2.72 3 .71 6.55 2 9.71 1.63 2.63-.24 15.22-3.62 10.79-7.15z"/><path class="bh" d="M79.71 76.05c-3.08 4.43 6.2 3.62 10.17 2.77a53.17 53.17 0 0 0 12.69-4 24.16 24.16 0 0 0 10-8.61c1-1.6-5.49-1.63-6-1.56a71.32 71.32 0 0 0-8.4 2c-5.42 1.46-12.61 3.72-16.83 7.62a13.62 13.62 0 0 0-1.63 1.78z"/><path class="bj" d="M131.83 87.32c-2.12-.64-21.22-5.85-17.68 1.06 1.21 2.38 8.26 2.77 10.53 2.66a10.2 10.2 0 0 0 4.6-1c.22-.1 3.05-2.58 2.55-2.72zM149.83 141.25a34.7 34.7 0 0 0-4.92-5.85 28.49 28.49 0 0 0-11.13-7 16 16 0 0 0-12.78 1.26c-8.32 5.17-5 17.89-1.7 25.26a33.74 33.74 0 0 0 19.88 18c3.79 1.24 8.43 1.63 11.27-1.17a10.6 10.6 0 0 0 2.26-3.79 28.44 28.44 0 0 0-2.88-26.71z"/><path class="bg" d="M131.34 130.58c8.5 4.89 22.85 4.18 31.5.39 9-4 4.5-13.39-1.24-18.35-8.29-7.16-24.91-10.45-33.27-1.81a13.17 13.17 0 0 0-3.8 9.14 13 13 0 0 0 6.67 10.53c.03.07.1.07.14.1z"/><path class="bj" d="M115.46 116a30 30 0 0 0 14.11 10.39 4.74 4.74 0 0 0 3.19.35c1.77-.64 2.23-3 2.09-4.85-.46-6.24-4.11-11.8-8.22-16.52-2.38-2.72-10.71-11.23-14.67-7.19-3.72 3.74 1.17 14.51 3.5 17.82z"/><path class="bg" d="M91.83 105.78c0-15.2-31.14 9.57-34.33 12.54-2.38 2.2-8.36 6.59-6.27 10.49s9.21 1.81 12.19.67c9.38-3.48 28.45-11.55 28.41-23.7z"/></g><g><path class="i" d="M193.78 247.91v-11.66h-22.15v-9.84l17.72-30.53h17.56v29.71h5.57v10.66h-5.57v11.66zm-8.86-22.32h8.86v-5.91-2.91c0-1.06.07-2.15.12-3.24s.11-2.17.17-3.24.11-2 .16-2.91h-.33c-.65 1.58-1.34 3.14-2.05 4.67s-1.45 3.09-2.21 4.68zM236.45 248.89a16.76 16.76 0 0 1-14-7 25.41 25.41 0 0 1-4-8.54 50 50 0 0 1 0-23.42 24 24 0 0 1 4-8.37 17.06 17.06 0 0 1 6.12-5 19.1 19.1 0 0 1 15.71 0 16.64 16.64 0 0 1 6.15 5 24.21 24.21 0 0 1 4 8.37 43.6 43.6 0 0 1 1.4 11.65 44.49 44.49 0 0 1-1.4 11.73 25 25 0 0 1-4 8.54 17.24 17.24 0 0 1-6.15 5.21 17.51 17.51 0 0 1-7.83 1.83zm0-10.83a4.65 4.65 0 0 0 2.33-.62 5 5 0 0 0 1.93-2.41 19.85 19.85 0 0 0 1.31-5 56.93 56.93 0 0 0 .49-8.37 55.13 55.13 0 0 0-.49-8.28 18.29 18.29 0 0 0-1.31-4.85 4.51 4.51 0 0 0-1.93-2.25 5.34 5.34 0 0 0-4.68 0 4.5 4.5 0 0 0-1.92 2.25 18.25 18.25 0 0 0-1.32 4.85 56.5 56.5 0 0 0-.49 8.28 58.36 58.36 0 0 0 .49 8.37 19.81 19.81 0 0 0 1.32 5 4.94 4.94 0 0 0 1.92 2.41 4.67 4.67 0 0 0 2.35.62zM278.78 248.89a27.82 27.82 0 0 1-11-2 20.15 20.15 0 0 1-7.55-5.41l6.4-8.87a21.1 21.1 0 0 0 5.12 3.57 12.37 12.37 0 0 0 5.54 1.36 10.54 10.54 0 0 0 5.5-1.24 4 4 0 0 0 2.05-3.69 6.58 6.58 0 0 0-.49-2.62 4.38 4.38 0 0 0-1.89-2 11.59 11.59 0 0 0-3.94-1.23 43.7 43.7 0 0 0-6.64-.41v-9.85a30.82 30.82 0 0 0 5.46-.4 10.84 10.84 0 0 0 3.48-1.2 4.54 4.54 0 0 0 1.85-1.84 5.51 5.51 0 0 0 .53-2.47q0-4.76-5.41-4.75a10 10 0 0 0-4.68 1.06 24.12 24.12 0 0 0-4.51 3.21l-7.06-8.54a32.55 32.55 0 0 1 8-5 22.29 22.29 0 0 1 8.94-1.77q8.63 0 13.75 3.82t5.12 10.87q0 7.54-8.37 11.24v.33a16 16 0 0 1 7.23 4.47 11.45 11.45 0 0 1 2.78 8 12.71 12.71 0 0 1-1.64 6.52 15.24 15.24 0 0 1-4.39 4.81 20 20 0 0 1-6.44 2.95 30.06 30.06 0 0 1-7.74 1.08z"/></g><g clip-path="url(#k)"><path opacity=".2" d="M513.69 178.1l-26.25 7.57-26.24 7.58-26.24 7.58-26.24 7.58-26.25 7.57-26.24 7.58-26.24 7.58-26.25 7.58-26.24 7.57-26.24 7.58-26.25 7.58-15.4 4.45-22.57-13.91-23.25-14.33-23.26-14.33L117.28 209l-23.25-14.33-23.26-14.33-23.25-14.33-23.26-14.33-23.25-14.33 6.26 26.36 23.25 14.33 23.26 14.33 23.25 14.34 23.26 14.32 23.25 14.34 23.25 14.33 23.26 14.33 14.69 9.05-12.21 3.52-26.25 7.58-26.24 7.58-26.24 7.58-26.24 7.57 23.72 13.1 26.24-7.58 26.25-7.58 26.24-7.58 26.24-7.57 10.53-3.04 9.78 6.03 23.25 14.33 23.26 14.33 23.25 14.33 23.25 14.33-6.26-26.37-23.25-14.33-23.25-14.33-23.26-14.33-1.9-1.17 17.09-4.94 26.24-7.58 26.25-7.57 26.24-7.58 26.24-7.58 26.24-7.57 26.25-7.58 26.24-7.58 26.24-7.58 26.25-7.58 26.24-7.57 26.24-7.58-23.72-13.09z"/><path class="ai" d="M145.28 279.51L169 292.6l26.24-7.58-23.72-13.09-26.24 7.58z"/><path class="bc" d="M119.03 287.08l23.73 13.1L169 292.6l-23.72-13.09-26.25 7.57zM224 256.77l23.73 13.1 26.24-7.58-23.72-13.09-26.25 7.57z"/><path class="ai" d="M250.25 249.2l23.72 13.09 26.25-7.58-23.73-13.09-26.24 7.58z"/><path class="bc" d="M171.52 271.93l23.72 13.09 26.25-7.57-23.73-13.1-26.24 7.58z"/><path class="ai" d="M197.76 264.35l23.73 13.1 26.24-7.58-23.73-13.1-26.24 7.58zM92.79 294.66l23.73 13.1 26.24-7.58-23.73-13.1-26.24 7.58z"/><path class="bc" d="M66.55 302.24l23.72 13.09 26.25-7.57-23.73-13.1-26.24 7.58zM433.95 196.16l23.73 13.09 26.24-7.58-23.73-13.09-26.24 7.58zM486.44 181l23.72 13.09 26.24-7.57-23.72-13.1-26.24 7.58z"/><path class="ai" d="M460.19 188.58l23.73 13.09 26.24-7.58L486.44 181l-26.25 7.58z"/><path class="bc" d="M276.49 241.62l23.73 13.09 26.24-7.57-23.73-13.1-26.24 7.58z"/><path class="ai" d="M407.71 203.73l23.72 13.1 26.25-7.58-23.73-13.09-26.24 7.57zM302.73 234.04l23.73 13.1 26.24-7.58-23.72-13.09-26.25 7.57z"/><path class="bc" d="M328.98 226.47l23.72 13.09 26.25-7.58-23.73-13.09-26.24 7.58zM381.46 211.31l23.73 13.09 26.24-7.57-23.72-13.1-26.25 7.58z"/><path class="ai" d="M355.22 218.89l23.73 13.09 26.24-7.58-23.73-13.09-26.24 7.58z"/><g><path class="ai" d="M23.25 147l6.26 26.37 23.26 14.33-6.26-26.36L23.25 147z"/><path class="bc" d="M0 132.67l6.26 26.37 23.25 14.33L23.25 147 0 132.67zM93.02 190l6.26 26.36 23.25 14.33-6.26-26.36L93.02 190z"/><path class="ai" d="M116.27 204.33l6.26 26.36 23.25 14.33-6.25-26.36-23.26-14.33z"/><path class="bc" d="M46.51 161.34l6.26 26.36 23.25 14.33-6.26-26.36-23.25-14.33z"/><path class="ai" d="M69.76 175.67l6.26 26.36 23.26 14.33L93.02 190l-23.26-14.33z"/><path class="bc" d="M279.05 304.64l6.26 26.36 23.25 14.33-6.25-26.36-23.26-14.33zM139.53 218.66l6.25 26.36 23.26 14.33-6.26-26.36-23.25-14.33z"/><path class="ai" d="M255.8 290.31l6.26 26.37L285.31 331l-6.26-26.36-23.25-14.33zM162.78 232.99l6.26 26.36 23.25 14.33-6.26-26.36-23.25-14.33z"/><path class="bc" d="M186.03 247.32l6.26 26.36 23.26 14.33-6.26-26.36-23.26-14.33zM232.54 275.98l6.26 26.36 23.26 14.34-6.26-26.37-23.26-14.33z"/><path class="ai" d="M209.29 261.65l6.26 26.36 23.25 14.33-6.26-26.36-23.25-14.33z"/></g></g></g></svg>